<mxfile host="app.diagrams.net" modified="2024-03-07T08:45:42.339Z" agent="Mozilla/5.0 (Windows NT 10.0; Win64; x64) AppleWebKit/537.36 (KHTML, like Gecko) Chrome/122.0.0.0 Safari/537.36 Edg/122.0.0.0" etag="PQfQDm4PzkKCz64yNvIw" version="24.0.2" type="device">
  <diagram name="페이지-1" id="HjoPZx5fyRYVCotoUAyw">
    <mxGraphModel dx="1893" dy="1842" grid="1" gridSize="10" guides="1" tooltips="1" connect="1" arrows="1" fold="1" page="1" pageScale="1" pageWidth="827" pageHeight="1169" math="0" shadow="0">
      <root>
        <mxCell id="0" />
        <mxCell id="1" parent="0" />
        <mxCell id="NqW5akh8zdySq_Utj7iF-38" style="edgeStyle=orthogonalEdgeStyle;rounded=0;orthogonalLoop=1;jettySize=auto;html=1;exitX=0.25;exitY=0;exitDx=0;exitDy=0;" parent="1" source="iRQ4Wu5U3kiScN2gP9Qv-2" target="NqW5akh8zdySq_Utj7iF-37" edge="1">
          <mxGeometry relative="1" as="geometry" />
        </mxCell>
        <mxCell id="iRQ4Wu5U3kiScN2gP9Qv-2" value="&lt;font style=&quot;font-size: 17px;&quot;&gt;&lt;b&gt;Tilte Scene&lt;/b&gt;&lt;/font&gt;" style="swimlane;fontStyle=0;childLayout=stackLayout;horizontal=1;startSize=30;horizontalStack=0;resizeParent=1;resizeParentMax=0;resizeLast=0;collapsible=1;marginBottom=0;whiteSpace=wrap;html=1;align=center;" parent="1" vertex="1">
          <mxGeometry x="-60" y="340" width="160" height="120" as="geometry" />
        </mxCell>
        <mxCell id="iRQ4Wu5U3kiScN2gP9Qv-3" value="GameStart (Button)" style="text;strokeColor=none;fillColor=none;align=center;verticalAlign=middle;spacingLeft=4;spacingRight=4;overflow=hidden;points=[[0,0.5],[1,0.5]];portConstraint=eastwest;rotatable=0;whiteSpace=wrap;html=1;fontSize=15;" parent="iRQ4Wu5U3kiScN2gP9Qv-2" vertex="1">
          <mxGeometry y="30" width="160" height="30" as="geometry" />
        </mxCell>
        <mxCell id="iRQ4Wu5U3kiScN2gP9Qv-4" value="GameQuit (Button)" style="text;strokeColor=none;fillColor=none;align=center;verticalAlign=middle;spacingLeft=4;spacingRight=4;overflow=hidden;points=[[0,0.5],[1,0.5]];portConstraint=eastwest;rotatable=0;whiteSpace=wrap;html=1;fontSize=15;" parent="iRQ4Wu5U3kiScN2gP9Qv-2" vertex="1">
          <mxGeometry y="60" width="160" height="30" as="geometry" />
        </mxCell>
        <mxCell id="iRQ4Wu5U3kiScN2gP9Qv-5" value="Setting (Button)" style="text;strokeColor=none;fillColor=none;align=center;verticalAlign=middle;spacingLeft=4;spacingRight=4;overflow=hidden;points=[[0,0.5],[1,0.5]];portConstraint=eastwest;rotatable=0;whiteSpace=wrap;html=1;fontSize=15;" parent="iRQ4Wu5U3kiScN2gP9Qv-2" vertex="1">
          <mxGeometry y="90" width="160" height="30" as="geometry" />
        </mxCell>
        <mxCell id="NqW5akh8zdySq_Utj7iF-41" style="edgeStyle=orthogonalEdgeStyle;rounded=0;orthogonalLoop=1;jettySize=auto;html=1;exitX=0.25;exitY=0;exitDx=0;exitDy=0;entryX=1;entryY=0.25;entryDx=0;entryDy=0;" parent="1" source="iRQ4Wu5U3kiScN2gP9Qv-6" target="NqW5akh8zdySq_Utj7iF-39" edge="1">
          <mxGeometry relative="1" as="geometry" />
        </mxCell>
        <mxCell id="iRQ4Wu5U3kiScN2gP9Qv-6" value="&lt;font style=&quot;font-size: 17px;&quot;&gt;&lt;b&gt;Setting&lt;/b&gt;&lt;/font&gt;" style="swimlane;fontStyle=0;childLayout=stackLayout;horizontal=1;startSize=30;horizontalStack=0;resizeParent=1;resizeParentMax=0;resizeLast=0;collapsible=1;marginBottom=0;whiteSpace=wrap;html=1;align=center;" parent="1" vertex="1">
          <mxGeometry x="-80" y="540" width="220" height="120" as="geometry" />
        </mxCell>
        <mxCell id="iRQ4Wu5U3kiScN2gP9Qv-7" value="Display (Button)" style="text;strokeColor=none;fillColor=none;align=center;verticalAlign=middle;spacingLeft=4;spacingRight=4;overflow=hidden;points=[[0,0.5],[1,0.5]];portConstraint=eastwest;rotatable=0;whiteSpace=wrap;html=1;fontSize=15;" parent="iRQ4Wu5U3kiScN2gP9Qv-6" vertex="1">
          <mxGeometry y="30" width="220" height="30" as="geometry" />
        </mxCell>
        <mxCell id="iRQ4Wu5U3kiScN2gP9Qv-8" value="Sound (Button, Slide, Toggle)" style="text;strokeColor=none;fillColor=none;align=center;verticalAlign=middle;spacingLeft=4;spacingRight=4;overflow=hidden;points=[[0,0.5],[1,0.5]];portConstraint=eastwest;rotatable=0;whiteSpace=wrap;html=1;fontSize=15;" parent="iRQ4Wu5U3kiScN2gP9Qv-6" vertex="1">
          <mxGeometry y="60" width="220" height="30" as="geometry" />
        </mxCell>
        <mxCell id="iRQ4Wu5U3kiScN2gP9Qv-9" value="Back (Button)" style="text;strokeColor=none;fillColor=none;align=center;verticalAlign=middle;spacingLeft=4;spacingRight=4;overflow=hidden;points=[[0,0.5],[1,0.5]];portConstraint=eastwest;rotatable=0;whiteSpace=wrap;html=1;fontSize=15;" parent="iRQ4Wu5U3kiScN2gP9Qv-6" vertex="1">
          <mxGeometry y="90" width="220" height="30" as="geometry" />
        </mxCell>
        <mxCell id="NqW5akh8zdySq_Utj7iF-44" style="edgeStyle=orthogonalEdgeStyle;rounded=0;orthogonalLoop=1;jettySize=auto;html=1;exitX=0.25;exitY=0;exitDx=0;exitDy=0;" parent="1" source="iRQ4Wu5U3kiScN2gP9Qv-11" target="NqW5akh8zdySq_Utj7iF-42" edge="1">
          <mxGeometry relative="1" as="geometry" />
        </mxCell>
        <mxCell id="iRQ4Wu5U3kiScN2gP9Qv-11" value="&lt;font style=&quot;font-size: 17px;&quot;&gt;StartGame&lt;/font&gt;" style="swimlane;fontStyle=0;childLayout=stackLayout;horizontal=1;startSize=30;horizontalStack=0;resizeParent=1;resizeParentMax=0;resizeLast=0;collapsible=1;marginBottom=0;whiteSpace=wrap;html=1;" parent="1" vertex="1">
          <mxGeometry x="160" y="340" width="160" height="60" as="geometry" />
        </mxCell>
        <mxCell id="iRQ4Wu5U3kiScN2gP9Qv-14" value="&lt;font style=&quot;font-size: 15px;&quot;&gt;게임을 시작한다.&lt;/font&gt;" style="text;strokeColor=none;fillColor=none;align=center;verticalAlign=middle;spacingLeft=4;spacingRight=4;overflow=hidden;points=[[0,0.5],[1,0.5]];portConstraint=eastwest;rotatable=0;whiteSpace=wrap;html=1;" parent="iRQ4Wu5U3kiScN2gP9Qv-11" vertex="1">
          <mxGeometry y="30" width="160" height="30" as="geometry" />
        </mxCell>
        <mxCell id="iRQ4Wu5U3kiScN2gP9Qv-17" style="edgeStyle=orthogonalEdgeStyle;rounded=0;orthogonalLoop=1;jettySize=auto;html=1;exitX=1;exitY=0.5;exitDx=0;exitDy=0;entryX=0;entryY=0.5;entryDx=0;entryDy=0;" parent="1" source="iRQ4Wu5U3kiScN2gP9Qv-3" target="iRQ4Wu5U3kiScN2gP9Qv-14" edge="1">
          <mxGeometry relative="1" as="geometry" />
        </mxCell>
        <mxCell id="iRQ4Wu5U3kiScN2gP9Qv-18" value="&lt;span style=&quot;font-size: 17px;&quot;&gt;QuitGame&lt;/span&gt;" style="swimlane;fontStyle=0;childLayout=stackLayout;horizontal=1;startSize=30;horizontalStack=0;resizeParent=1;resizeParentMax=0;resizeLast=0;collapsible=1;marginBottom=0;whiteSpace=wrap;html=1;" parent="1" vertex="1">
          <mxGeometry x="160" y="400" width="160" height="60" as="geometry" />
        </mxCell>
        <mxCell id="iRQ4Wu5U3kiScN2gP9Qv-19" value="&lt;span style=&quot;font-size: 15px;&quot;&gt;게임을 종료한다.&lt;/span&gt;" style="text;strokeColor=none;fillColor=none;align=center;verticalAlign=middle;spacingLeft=4;spacingRight=4;overflow=hidden;points=[[0,0.5],[1,0.5]];portConstraint=eastwest;rotatable=0;whiteSpace=wrap;html=1;" parent="iRQ4Wu5U3kiScN2gP9Qv-18" vertex="1">
          <mxGeometry y="30" width="160" height="30" as="geometry" />
        </mxCell>
        <mxCell id="iRQ4Wu5U3kiScN2gP9Qv-20" style="edgeStyle=orthogonalEdgeStyle;rounded=0;orthogonalLoop=1;jettySize=auto;html=1;exitX=1;exitY=0.5;exitDx=0;exitDy=0;entryX=0;entryY=0.5;entryDx=0;entryDy=0;" parent="1" source="iRQ4Wu5U3kiScN2gP9Qv-4" target="iRQ4Wu5U3kiScN2gP9Qv-19" edge="1">
          <mxGeometry relative="1" as="geometry" />
        </mxCell>
        <mxCell id="iRQ4Wu5U3kiScN2gP9Qv-21" style="edgeStyle=orthogonalEdgeStyle;rounded=0;orthogonalLoop=1;jettySize=auto;html=1;exitX=1;exitY=0.5;exitDx=0;exitDy=0;" parent="1" source="iRQ4Wu5U3kiScN2gP9Qv-5" target="iRQ4Wu5U3kiScN2gP9Qv-6" edge="1">
          <mxGeometry relative="1" as="geometry" />
        </mxCell>
        <mxCell id="iRQ4Wu5U3kiScN2gP9Qv-26" value="&lt;span style=&quot;font-size: 17px;&quot;&gt;&lt;b&gt;Display&lt;/b&gt;&lt;/span&gt;" style="swimlane;fontStyle=0;childLayout=stackLayout;horizontal=1;startSize=30;horizontalStack=0;resizeParent=1;resizeParentMax=0;resizeLast=0;collapsible=1;marginBottom=0;whiteSpace=wrap;html=1;" parent="1" vertex="1">
          <mxGeometry x="180" y="490" width="180" height="100" as="geometry" />
        </mxCell>
        <mxCell id="iRQ4Wu5U3kiScN2gP9Qv-27" value="&lt;span style=&quot;font-size: 15px;&quot;&gt;밝기 조절 (Slide)&lt;/span&gt;" style="text;strokeColor=none;fillColor=none;align=center;verticalAlign=middle;spacingLeft=4;spacingRight=4;overflow=hidden;points=[[0,0.5],[1,0.5]];portConstraint=eastwest;rotatable=0;whiteSpace=wrap;html=1;" parent="iRQ4Wu5U3kiScN2gP9Qv-26" vertex="1">
          <mxGeometry y="30" width="180" height="30" as="geometry" />
        </mxCell>
        <mxCell id="iRQ4Wu5U3kiScN2gP9Qv-28" value="&lt;span style=&quot;font-size: 15px;&quot;&gt;카메라 줌인, 줌아웃(Slide)&lt;/span&gt;" style="text;strokeColor=none;fillColor=none;align=center;verticalAlign=middle;spacingLeft=4;spacingRight=4;overflow=hidden;points=[[0,0.5],[1,0.5]];portConstraint=eastwest;rotatable=0;whiteSpace=wrap;html=1;" parent="iRQ4Wu5U3kiScN2gP9Qv-26" vertex="1">
          <mxGeometry y="60" width="180" height="40" as="geometry" />
        </mxCell>
        <mxCell id="iRQ4Wu5U3kiScN2gP9Qv-25" style="edgeStyle=orthogonalEdgeStyle;rounded=0;orthogonalLoop=1;jettySize=auto;html=1;exitX=1;exitY=0.5;exitDx=0;exitDy=0;entryX=0;entryY=0.5;entryDx=0;entryDy=0;" parent="1" source="iRQ4Wu5U3kiScN2gP9Qv-7" target="iRQ4Wu5U3kiScN2gP9Qv-28" edge="1">
          <mxGeometry relative="1" as="geometry">
            <mxPoint x="190" y="584.5882352941178" as="targetPoint" />
          </mxGeometry>
        </mxCell>
        <mxCell id="iRQ4Wu5U3kiScN2gP9Qv-29" value="&lt;span style=&quot;font-size: 17px;&quot;&gt;&lt;b&gt;Sound&lt;/b&gt;&lt;/span&gt;" style="swimlane;fontStyle=0;childLayout=stackLayout;horizontal=1;startSize=30;horizontalStack=0;resizeParent=1;resizeParentMax=0;resizeLast=0;collapsible=1;marginBottom=0;whiteSpace=wrap;html=1;" parent="1" vertex="1">
          <mxGeometry x="180" y="590" width="180" height="120" as="geometry" />
        </mxCell>
        <mxCell id="iRQ4Wu5U3kiScN2gP9Qv-30" value="&lt;span style=&quot;font-size: 15px;&quot;&gt;소리 조절 (Slide)&lt;/span&gt;" style="text;strokeColor=none;fillColor=none;align=center;verticalAlign=middle;spacingLeft=4;spacingRight=4;overflow=hidden;points=[[0,0.5],[1,0.5]];portConstraint=eastwest;rotatable=0;whiteSpace=wrap;html=1;" parent="iRQ4Wu5U3kiScN2gP9Qv-29" vertex="1">
          <mxGeometry y="30" width="180" height="30" as="geometry" />
        </mxCell>
        <mxCell id="iRQ4Wu5U3kiScN2gP9Qv-31" value="&lt;span style=&quot;font-size: 15px;&quot;&gt;음소거 기능 (Toggle)&lt;/span&gt;&lt;div&gt;&lt;span style=&quot;font-size: 15px;&quot;&gt;배경음악&lt;/span&gt;&lt;/div&gt;&lt;div&gt;&lt;span style=&quot;font-size: 15px;&quot;&gt;환경소리&lt;/span&gt;&lt;/div&gt;" style="text;strokeColor=none;fillColor=none;align=center;verticalAlign=middle;spacingLeft=4;spacingRight=4;overflow=hidden;points=[[0,0.5],[1,0.5]];portConstraint=eastwest;rotatable=0;whiteSpace=wrap;html=1;" parent="iRQ4Wu5U3kiScN2gP9Qv-29" vertex="1">
          <mxGeometry y="60" width="180" height="60" as="geometry" />
        </mxCell>
        <mxCell id="iRQ4Wu5U3kiScN2gP9Qv-32" style="edgeStyle=orthogonalEdgeStyle;rounded=0;orthogonalLoop=1;jettySize=auto;html=1;exitX=1;exitY=0.5;exitDx=0;exitDy=0;entryX=0;entryY=0.5;entryDx=0;entryDy=0;" parent="1" source="iRQ4Wu5U3kiScN2gP9Qv-8" target="iRQ4Wu5U3kiScN2gP9Qv-30" edge="1">
          <mxGeometry relative="1" as="geometry" />
        </mxCell>
        <mxCell id="iRQ4Wu5U3kiScN2gP9Qv-34" value="&lt;span style=&quot;font-size: 17px;&quot;&gt;&lt;b&gt;Close&lt;/b&gt;&lt;/span&gt;" style="swimlane;fontStyle=0;childLayout=stackLayout;horizontal=1;startSize=30;horizontalStack=0;resizeParent=1;resizeParentMax=0;resizeLast=0;collapsible=1;marginBottom=0;whiteSpace=wrap;html=1;" parent="1" vertex="1">
          <mxGeometry x="180" y="710" width="180" height="70" as="geometry" />
        </mxCell>
        <mxCell id="iRQ4Wu5U3kiScN2gP9Qv-35" value="&lt;span style=&quot;font-size: 15px;&quot;&gt;설정창 닫음&lt;/span&gt;" style="text;strokeColor=none;fillColor=none;align=center;verticalAlign=middle;spacingLeft=4;spacingRight=4;overflow=hidden;points=[[0,0.5],[1,0.5]];portConstraint=eastwest;rotatable=0;whiteSpace=wrap;html=1;" parent="iRQ4Wu5U3kiScN2gP9Qv-34" vertex="1">
          <mxGeometry y="30" width="180" height="40" as="geometry" />
        </mxCell>
        <mxCell id="iRQ4Wu5U3kiScN2gP9Qv-33" style="edgeStyle=orthogonalEdgeStyle;rounded=0;orthogonalLoop=1;jettySize=auto;html=1;exitX=1;exitY=0.5;exitDx=0;exitDy=0;entryX=0;entryY=0.5;entryDx=0;entryDy=0;" parent="1" source="iRQ4Wu5U3kiScN2gP9Qv-9" target="iRQ4Wu5U3kiScN2gP9Qv-35" edge="1">
          <mxGeometry relative="1" as="geometry">
            <mxPoint x="170" y="760" as="targetPoint" />
          </mxGeometry>
        </mxCell>
        <mxCell id="iRQ4Wu5U3kiScN2gP9Qv-40" value="&lt;span style=&quot;font-size: 17px;&quot;&gt;&lt;b&gt;게임화면 (마을)&lt;/b&gt;&lt;/span&gt;" style="swimlane;fontStyle=0;childLayout=stackLayout;horizontal=1;startSize=30;horizontalStack=0;resizeParent=1;resizeParentMax=0;resizeLast=0;collapsible=1;marginBottom=0;whiteSpace=wrap;html=1;" parent="1" vertex="1">
          <mxGeometry x="560" y="365" width="180" height="230" as="geometry" />
        </mxCell>
        <mxCell id="iRQ4Wu5U3kiScN2gP9Qv-42" value="&lt;span style=&quot;font-size: 15px;&quot;&gt;캐릭터창&lt;/span&gt;" style="text;strokeColor=none;fillColor=none;align=center;verticalAlign=middle;spacingLeft=4;spacingRight=4;overflow=hidden;points=[[0,0.5],[1,0.5]];portConstraint=eastwest;rotatable=0;whiteSpace=wrap;html=1;" parent="iRQ4Wu5U3kiScN2gP9Qv-40" vertex="1">
          <mxGeometry y="30" width="180" height="40" as="geometry" />
        </mxCell>
        <mxCell id="iRQ4Wu5U3kiScN2gP9Qv-43" value="&lt;span style=&quot;font-size: 15px;&quot;&gt;인벤토리&lt;/span&gt;" style="text;strokeColor=none;fillColor=none;align=center;verticalAlign=middle;spacingLeft=4;spacingRight=4;overflow=hidden;points=[[0,0.5],[1,0.5]];portConstraint=eastwest;rotatable=0;whiteSpace=wrap;html=1;" parent="iRQ4Wu5U3kiScN2gP9Qv-40" vertex="1">
          <mxGeometry y="70" width="180" height="40" as="geometry" />
        </mxCell>
        <mxCell id="iRQ4Wu5U3kiScN2gP9Qv-44" value="&lt;span style=&quot;font-size: 15px;&quot;&gt;NPC 와의&amp;nbsp;&lt;/span&gt;&lt;div&gt;&lt;span style=&quot;font-size: 15px;&quot;&gt;상호작용(대화)&lt;/span&gt;&lt;/div&gt;&lt;div&gt;&lt;span style=&quot;font-size: 15px;&quot;&gt;상점&lt;/span&gt;&lt;/div&gt;" style="text;strokeColor=none;fillColor=none;align=center;verticalAlign=middle;spacingLeft=4;spacingRight=4;overflow=hidden;points=[[0,0.5],[1,0.5]];portConstraint=eastwest;rotatable=0;whiteSpace=wrap;html=1;" parent="iRQ4Wu5U3kiScN2gP9Qv-40" vertex="1">
          <mxGeometry y="110" width="180" height="80" as="geometry" />
        </mxCell>
        <mxCell id="iRQ4Wu5U3kiScN2gP9Qv-45" value="&lt;span style=&quot;font-size: 15px;&quot;&gt;설정창&lt;/span&gt;" style="text;strokeColor=none;fillColor=none;align=center;verticalAlign=middle;spacingLeft=4;spacingRight=4;overflow=hidden;points=[[0,0.5],[1,0.5]];portConstraint=eastwest;rotatable=0;whiteSpace=wrap;html=1;" parent="iRQ4Wu5U3kiScN2gP9Qv-40" vertex="1">
          <mxGeometry y="190" width="180" height="40" as="geometry" />
        </mxCell>
        <mxCell id="iRQ4Wu5U3kiScN2gP9Qv-47" value="&lt;span style=&quot;font-size: 17px;&quot;&gt;&lt;b&gt;NPC 상점&lt;/b&gt;&lt;/span&gt;" style="swimlane;fontStyle=0;childLayout=stackLayout;horizontal=1;startSize=30;horizontalStack=0;resizeParent=1;resizeParentMax=0;resizeLast=0;collapsible=1;marginBottom=0;whiteSpace=wrap;html=1;" parent="1" vertex="1">
          <mxGeometry x="860" y="465" width="180" height="350" as="geometry" />
        </mxCell>
        <mxCell id="iRQ4Wu5U3kiScN2gP9Qv-51" value="&lt;span style=&quot;font-size: 15px;&quot;&gt;무기 강화 UI&lt;/span&gt;" style="text;strokeColor=none;fillColor=none;align=center;verticalAlign=middle;spacingLeft=4;spacingRight=4;overflow=hidden;points=[[0,0.5],[1,0.5]];portConstraint=eastwest;rotatable=0;whiteSpace=wrap;html=1;" parent="iRQ4Wu5U3kiScN2gP9Qv-47" vertex="1">
          <mxGeometry y="30" width="180" height="80" as="geometry" />
        </mxCell>
        <mxCell id="iRQ4Wu5U3kiScN2gP9Qv-54" value="&lt;span style=&quot;font-size: 15px;&quot;&gt;음식(포션) UI&lt;/span&gt;" style="text;strokeColor=none;fillColor=none;align=center;verticalAlign=middle;spacingLeft=4;spacingRight=4;overflow=hidden;points=[[0,0.5],[1,0.5]];portConstraint=eastwest;rotatable=0;whiteSpace=wrap;html=1;" parent="iRQ4Wu5U3kiScN2gP9Qv-47" vertex="1">
          <mxGeometry y="110" width="180" height="80" as="geometry" />
        </mxCell>
        <mxCell id="iRQ4Wu5U3kiScN2gP9Qv-55" value="&lt;span style=&quot;font-size: 15px;&quot;&gt;창고&lt;/span&gt;&lt;div style=&quot;&quot;&gt;인벤토리 &amp;lt;--&amp;gt; 창고&lt;/div&gt;&lt;div style=&quot;&quot;&gt;이동가능하게끔.&lt;/div&gt;" style="text;strokeColor=none;fillColor=none;align=center;verticalAlign=middle;spacingLeft=4;spacingRight=4;overflow=hidden;points=[[0,0.5],[1,0.5]];portConstraint=eastwest;rotatable=0;whiteSpace=wrap;html=1;" parent="iRQ4Wu5U3kiScN2gP9Qv-47" vertex="1">
          <mxGeometry y="190" width="180" height="80" as="geometry" />
        </mxCell>
        <mxCell id="iRQ4Wu5U3kiScN2gP9Qv-58" value="&lt;span style=&quot;font-size: 15px;&quot;&gt;대화스크립트&lt;/span&gt;" style="text;strokeColor=none;fillColor=none;align=center;verticalAlign=middle;spacingLeft=4;spacingRight=4;overflow=hidden;points=[[0,0.5],[1,0.5]];portConstraint=eastwest;rotatable=0;whiteSpace=wrap;html=1;" parent="iRQ4Wu5U3kiScN2gP9Qv-47" vertex="1">
          <mxGeometry y="270" width="180" height="80" as="geometry" />
        </mxCell>
        <mxCell id="iRQ4Wu5U3kiScN2gP9Qv-53" style="edgeStyle=orthogonalEdgeStyle;rounded=0;orthogonalLoop=1;jettySize=auto;html=1;exitX=1;exitY=0.5;exitDx=0;exitDy=0;" parent="1" source="iRQ4Wu5U3kiScN2gP9Qv-44" target="iRQ4Wu5U3kiScN2gP9Qv-54" edge="1">
          <mxGeometry relative="1" as="geometry" />
        </mxCell>
        <mxCell id="iRQ4Wu5U3kiScN2gP9Qv-57" style="edgeStyle=orthogonalEdgeStyle;rounded=0;orthogonalLoop=1;jettySize=auto;html=1;exitX=1;exitY=0.5;exitDx=0;exitDy=0;" parent="1" source="iRQ4Wu5U3kiScN2gP9Qv-14" target="iRQ4Wu5U3kiScN2gP9Qv-40" edge="1">
          <mxGeometry relative="1" as="geometry" />
        </mxCell>
        <mxCell id="iRQ4Wu5U3kiScN2gP9Qv-61" value="&lt;span style=&quot;font-size: 17px;&quot;&gt;&lt;b&gt;게임화면 (던전)&lt;/b&gt;&lt;/span&gt;" style="swimlane;fontStyle=0;childLayout=stackLayout;horizontal=1;startSize=30;horizontalStack=0;resizeParent=1;resizeParentMax=0;resizeLast=0;collapsible=1;marginBottom=0;whiteSpace=wrap;html=1;" parent="1" vertex="1">
          <mxGeometry x="560" y="650" width="180" height="150" as="geometry" />
        </mxCell>
        <mxCell id="iRQ4Wu5U3kiScN2gP9Qv-62" value="&lt;span style=&quot;font-size: 15px;&quot;&gt;인게임 UI&lt;/span&gt;" style="text;strokeColor=none;fillColor=none;align=center;verticalAlign=middle;spacingLeft=4;spacingRight=4;overflow=hidden;points=[[0,0.5],[1,0.5]];portConstraint=eastwest;rotatable=0;whiteSpace=wrap;html=1;" parent="iRQ4Wu5U3kiScN2gP9Qv-61" vertex="1">
          <mxGeometry y="30" width="180" height="40" as="geometry" />
        </mxCell>
        <mxCell id="iRQ4Wu5U3kiScN2gP9Qv-63" value="&lt;span style=&quot;font-size: 15px;&quot;&gt;인벤토리&lt;/span&gt;" style="text;strokeColor=none;fillColor=none;align=center;verticalAlign=middle;spacingLeft=4;spacingRight=4;overflow=hidden;points=[[0,0.5],[1,0.5]];portConstraint=eastwest;rotatable=0;whiteSpace=wrap;html=1;" parent="iRQ4Wu5U3kiScN2gP9Qv-61" vertex="1">
          <mxGeometry y="70" width="180" height="40" as="geometry" />
        </mxCell>
        <mxCell id="iRQ4Wu5U3kiScN2gP9Qv-65" value="&lt;span style=&quot;font-size: 15px;&quot;&gt;설정창&lt;/span&gt;" style="text;strokeColor=none;fillColor=none;align=center;verticalAlign=middle;spacingLeft=4;spacingRight=4;overflow=hidden;points=[[0,0.5],[1,0.5]];portConstraint=eastwest;rotatable=0;whiteSpace=wrap;html=1;" parent="iRQ4Wu5U3kiScN2gP9Qv-61" vertex="1">
          <mxGeometry y="110" width="180" height="40" as="geometry" />
        </mxCell>
        <mxCell id="iRQ4Wu5U3kiScN2gP9Qv-66" value="&lt;span style=&quot;font-size: 17px;&quot;&gt;&lt;b&gt;인게임 UI&lt;/b&gt;&lt;/span&gt;" style="swimlane;fontStyle=0;childLayout=stackLayout;horizontal=1;startSize=30;horizontalStack=0;resizeParent=1;resizeParentMax=0;resizeLast=0;collapsible=1;marginBottom=0;whiteSpace=wrap;html=1;" parent="1" vertex="1">
          <mxGeometry x="827" y="870" width="180" height="350" as="geometry" />
        </mxCell>
        <mxCell id="iRQ4Wu5U3kiScN2gP9Qv-67" value="&lt;span style=&quot;font-size: 15px;&quot;&gt;HP&lt;/span&gt;&lt;div&gt;&lt;span style=&quot;font-size: 15px;&quot;&gt;MP/SP&lt;/span&gt;&lt;/div&gt;&lt;div&gt;&lt;span style=&quot;font-size: 15px;&quot;&gt;DashCount&lt;/span&gt;&lt;/div&gt;" style="text;strokeColor=none;fillColor=none;align=center;verticalAlign=middle;spacingLeft=4;spacingRight=4;overflow=hidden;points=[[0,0.5],[1,0.5]];portConstraint=eastwest;rotatable=0;whiteSpace=wrap;html=1;" parent="iRQ4Wu5U3kiScN2gP9Qv-66" vertex="1">
          <mxGeometry y="30" width="180" height="80" as="geometry" />
        </mxCell>
        <mxCell id="iRQ4Wu5U3kiScN2gP9Qv-68" value="&lt;div&gt;&lt;span style=&quot;font-size: 15px;&quot;&gt;단축바&lt;/span&gt;&lt;/div&gt;&lt;span style=&quot;font-size: 15px;&quot;&gt;포션 (HP, MP/SP)&amp;nbsp;&lt;/span&gt;" style="text;strokeColor=none;fillColor=none;align=center;verticalAlign=middle;spacingLeft=4;spacingRight=4;overflow=hidden;points=[[0,0.5],[1,0.5]];portConstraint=eastwest;rotatable=0;whiteSpace=wrap;html=1;" parent="iRQ4Wu5U3kiScN2gP9Qv-66" vertex="1">
          <mxGeometry y="110" width="180" height="80" as="geometry" />
        </mxCell>
        <mxCell id="iRQ4Wu5U3kiScN2gP9Qv-70" value="&lt;span style=&quot;font-size: 15px;&quot;&gt;스킬 단축바&lt;/span&gt;" style="text;strokeColor=none;fillColor=none;align=center;verticalAlign=middle;spacingLeft=4;spacingRight=4;overflow=hidden;points=[[0,0.5],[1,0.5]];portConstraint=eastwest;rotatable=0;whiteSpace=wrap;html=1;" parent="iRQ4Wu5U3kiScN2gP9Qv-66" vertex="1">
          <mxGeometry y="190" width="180" height="80" as="geometry" />
        </mxCell>
        <mxCell id="iRQ4Wu5U3kiScN2gP9Qv-72" value="&lt;span style=&quot;font-size: 15px;&quot;&gt;미니맵&lt;/span&gt;" style="text;strokeColor=none;fillColor=none;align=center;verticalAlign=middle;spacingLeft=4;spacingRight=4;overflow=hidden;points=[[0,0.5],[1,0.5]];portConstraint=eastwest;rotatable=0;whiteSpace=wrap;html=1;" parent="iRQ4Wu5U3kiScN2gP9Qv-66" vertex="1">
          <mxGeometry y="270" width="180" height="80" as="geometry" />
        </mxCell>
        <mxCell id="iRQ4Wu5U3kiScN2gP9Qv-71" style="edgeStyle=orthogonalEdgeStyle;rounded=0;orthogonalLoop=1;jettySize=auto;html=1;exitX=1;exitY=0.5;exitDx=0;exitDy=0;entryX=0;entryY=0.5;entryDx=0;entryDy=0;" parent="1" source="iRQ4Wu5U3kiScN2gP9Qv-62" target="iRQ4Wu5U3kiScN2gP9Qv-66" edge="1">
          <mxGeometry relative="1" as="geometry" />
        </mxCell>
        <mxCell id="iRQ4Wu5U3kiScN2gP9Qv-75" value="&lt;span style=&quot;font-size: 17px;&quot;&gt;&lt;b&gt;던전&lt;/b&gt;&lt;/span&gt;" style="swimlane;fontStyle=0;childLayout=stackLayout;horizontal=1;startSize=30;horizontalStack=0;resizeParent=1;resizeParentMax=0;resizeLast=0;collapsible=1;marginBottom=0;whiteSpace=wrap;html=1;" parent="1" vertex="1">
          <mxGeometry x="827" y="1230" width="180" height="270" as="geometry" />
        </mxCell>
        <mxCell id="iRQ4Wu5U3kiScN2gP9Qv-79" value="&lt;span style=&quot;font-size: 15px;&quot;&gt;보스체력&lt;/span&gt;" style="text;strokeColor=none;fillColor=none;align=center;verticalAlign=middle;spacingLeft=4;spacingRight=4;overflow=hidden;points=[[0,0.5],[1,0.5]];portConstraint=eastwest;rotatable=0;whiteSpace=wrap;html=1;" parent="iRQ4Wu5U3kiScN2gP9Qv-75" vertex="1">
          <mxGeometry y="30" width="180" height="80" as="geometry" />
        </mxCell>
        <mxCell id="iRQ4Wu5U3kiScN2gP9Qv-80" value="&lt;span style=&quot;font-size: 15px;&quot;&gt;재화 획득시 드롭 UI&lt;/span&gt;" style="text;strokeColor=none;fillColor=none;align=center;verticalAlign=middle;spacingLeft=4;spacingRight=4;overflow=hidden;points=[[0,0.5],[1,0.5]];portConstraint=eastwest;rotatable=0;whiteSpace=wrap;html=1;" parent="iRQ4Wu5U3kiScN2gP9Qv-75" vertex="1">
          <mxGeometry y="110" width="180" height="80" as="geometry" />
        </mxCell>
        <mxCell id="iRQ4Wu5U3kiScN2gP9Qv-81" value="&lt;span style=&quot;font-size: 15px;&quot;&gt;대화?&lt;/span&gt;" style="text;strokeColor=none;fillColor=none;align=center;verticalAlign=middle;spacingLeft=4;spacingRight=4;overflow=hidden;points=[[0,0.5],[1,0.5]];portConstraint=eastwest;rotatable=0;whiteSpace=wrap;html=1;" parent="iRQ4Wu5U3kiScN2gP9Qv-75" vertex="1">
          <mxGeometry y="190" width="180" height="80" as="geometry" />
        </mxCell>
        <mxCell id="iRQ4Wu5U3kiScN2gP9Qv-74" style="edgeStyle=orthogonalEdgeStyle;rounded=0;orthogonalLoop=1;jettySize=auto;html=1;exitX=1;exitY=0.5;exitDx=0;exitDy=0;" parent="1" source="iRQ4Wu5U3kiScN2gP9Qv-62" target="iRQ4Wu5U3kiScN2gP9Qv-80" edge="1">
          <mxGeometry relative="1" as="geometry">
            <mxPoint x="827" y="1300" as="targetPoint" />
          </mxGeometry>
        </mxCell>
        <mxCell id="iRQ4Wu5U3kiScN2gP9Qv-82" value="&lt;span style=&quot;font-size: 17px;&quot;&gt;&lt;b&gt;게임화면 (필드)&lt;/b&gt;&lt;/span&gt;" style="swimlane;fontStyle=0;childLayout=stackLayout;horizontal=1;startSize=30;horizontalStack=0;resizeParent=1;resizeParentMax=0;resizeLast=0;collapsible=1;marginBottom=0;whiteSpace=wrap;html=1;" parent="1" vertex="1">
          <mxGeometry x="370" y="850" width="180" height="150" as="geometry" />
        </mxCell>
        <mxCell id="iRQ4Wu5U3kiScN2gP9Qv-83" value="&lt;span style=&quot;font-size: 15px;&quot;&gt;미&lt;span style=&quot;white-space: pre;&quot;&gt;&#x9;&lt;/span&gt;&lt;/span&gt;" style="text;strokeColor=none;fillColor=none;align=center;verticalAlign=middle;spacingLeft=4;spacingRight=4;overflow=hidden;points=[[0,0.5],[1,0.5]];portConstraint=eastwest;rotatable=0;whiteSpace=wrap;html=1;" parent="iRQ4Wu5U3kiScN2gP9Qv-82" vertex="1">
          <mxGeometry y="30" width="180" height="40" as="geometry" />
        </mxCell>
        <mxCell id="iRQ4Wu5U3kiScN2gP9Qv-84" value="&lt;span style=&quot;font-size: 15px;&quot;&gt;구현&lt;/span&gt;" style="text;strokeColor=none;fillColor=none;align=center;verticalAlign=middle;spacingLeft=4;spacingRight=4;overflow=hidden;points=[[0,0.5],[1,0.5]];portConstraint=eastwest;rotatable=0;whiteSpace=wrap;html=1;" parent="iRQ4Wu5U3kiScN2gP9Qv-82" vertex="1">
          <mxGeometry y="70" width="180" height="40" as="geometry" />
        </mxCell>
        <mxCell id="iRQ4Wu5U3kiScN2gP9Qv-85" value="&lt;span style=&quot;font-size: 15px;&quot;&gt;설정창&lt;/span&gt;" style="text;strokeColor=none;fillColor=none;align=center;verticalAlign=middle;spacingLeft=4;spacingRight=4;overflow=hidden;points=[[0,0.5],[1,0.5]];portConstraint=eastwest;rotatable=0;whiteSpace=wrap;html=1;" parent="iRQ4Wu5U3kiScN2gP9Qv-82" vertex="1">
          <mxGeometry y="110" width="180" height="40" as="geometry" />
        </mxCell>
        <mxCell id="NqW5akh8zdySq_Utj7iF-1" value="각 옵션들은 탭형식으로 관리." style="text;html=1;align=center;verticalAlign=middle;whiteSpace=wrap;rounded=0;" parent="1" vertex="1">
          <mxGeometry x="370" y="520" width="100" height="140" as="geometry" />
        </mxCell>
        <mxCell id="NqW5akh8zdySq_Utj7iF-11" value="" style="edgeStyle=orthogonalEdgeStyle;rounded=0;orthogonalLoop=1;jettySize=auto;html=1;" parent="1" source="NqW5akh8zdySq_Utj7iF-8" target="NqW5akh8zdySq_Utj7iF-10" edge="1">
          <mxGeometry relative="1" as="geometry" />
        </mxCell>
        <mxCell id="NqW5akh8zdySq_Utj7iF-8" value="" style="shape=image;verticalLabelPosition=bottom;labelBackgroundColor=default;verticalAlign=top;aspect=fixed;imageAspect=0;image=data:image/png,iVBORw0KGgoAAAANSUhEUgAABAwAAAHuCAYAAAAbV55YAAAAAXNSR0IArs4c6QAAAARnQU1BAACxjwv8YQUAAAAJcEhZcwAAHYcAAB2HAY/l8WUAAFmWSURBVHhe7d0LfBX1nf//t81usNQoS4LSuCCpSChqxIeJ+ifImogCXsjSklC5tCVY5dIF9Pcn2gJaufzUsFuQlosXQleDXQIrhq4SCoY2Ev5qsguESgmGhsISERMWDaWSbZr/dy4nOSdzgCQk5CR5PX3EMzNnOGdmznfmzLznM3MuqzMEAAAAAADg5yvuIwAAAAAAQD0CAwAAAAAA4EFgAAAAAAAAPAgMAAAAAACAB4EBAAAAAADwIDAAAAAAAAAeBAYAAAAAAMCDwAAAAAAAAHgQGAAAAAAAAA8CAwAAAAAA4EFgAAAAAAAAPAgMAAAAAACAB4EBAAAAAADwIDAAAAAAAAAeBAYAAAAAAMCDwAAAAAAAAHgQGAAAAAAAAA8CAwAAAAAA4EFgAAAAAAAAPAgMAAAAAACAB4EBAAAAAADwIDAAAAAAAAAeBAYAAAAAAMCDwAAAAAAAAHgQGAAAAAAAAA8CAwAAAAAA4EFgAAAAAAAAPAgMAAAAAACAB4EBAAAAAADwIDAAAAAAAAAeBAYAAAAAAMCDwAAAAAAAAHgQGAAAAAAAAA8CAwAAAAAA4EFgAAAAAAAAPAgMAAAAAACAB4EBAAAAAADwIDAAAAAAAAAeBAYAAAAAAMDjsjrD7QYAdEF//OMf9fHHH6uiokInT57UZZdd5j4DtD5rt6Nnz56Kjo7WDTfcoOuuu859BgAAhBoCAwDogmpra5WTk6Nt27bp6NGj7lDg0uvTp4/uu+8+paamKiwszB0KAABCAYEBAHQxf/3rX/X9739fn3zyiTsEaH9f//rX9Ytf/EJf+QpXSwIAECr4VgaALmbjxo2EBQg5Vpu02iYAAAgdBAYA0MVs377d7QJCC20TAIDQQmAAAF2IdRa3vLzc7QNCi9U2rZtvAgCA0EBgAABdiPVrCEAoKysrc7sAAEB7IzAAgC6Eexcg1NFGAQAIHQQGANCFfP75524XEJpoowAAhA4CAwAAAAAA4EFgAAAAAAAAPAgMAAAAAACAB4EBAAAAAADwIDAAAAAAAAAeBAYAAAAAAMCDwAAAAAAAAHgQGAAAAAAAAA8CAwAAAAAA4EFgAAAAAAAAPAgMAAAAAACAB4EBAAAAAADwIDAAAAAAAAAeBAYAgDaR/JP12rZtm/23/ifJ7lAAAAB0FAQGAABcUqO1eJMVpKzXM8PdQQAAACGIwAAAgEvpoTs06Aq3GwAAIIQRGAAAcAmNvnOQyAsAAEBHcFmd4XYDADq5l19+WRs2bHD72pZ1D4MfJfa0u08WPqdxP8m3ux2PadW2sepvuo5vn6tJL5Rp8MOPafL9t6t/rysUHmaeqDmtk0c/VO4rL+mN/zxp/yvL0B+v1zNJzuvq4EaNm/GSGp71c/uP9PriZPW2e44od8YU/fyg3ePok6zHpqRo6E391fOqcIXX1uj0n8177n9PG7Pe0JZD3letn6ea/Vr7wCy9YV7jh1Mn6K6be6vnV8PNGDWq+fyk9u9Yq5+tyDfv2qDvneM1+dFUDe1zrrjgpHa+ME7Pbnd7XX2TzHIZM1SD+/TUFVdY72EtmpM6vv8D5b75C232WzYNGpbvkV9N05TlZep523g99gMzv/162su35j9/rZ1971NyL+df+MYL5vYnX9fi4c6S1Gf5enb8c9rp9LW61NRUPfroo24fAABoT1QYAADaVe++t2vy0jVakp6sQb3dsMASfoV6Xp+syc+v0jMj3IDA2Ll9j4673RowWKnuAW9jtycNcsMC4+CHesMvLOj70DNa/8qPNDbRjGOFBdbAsHBzQN5TfW9P0ROr1+jF7w2yxw0qvLdu+MGP9PrqHynl9r5uWGA/ofCremvwP/5Iq1Y8Jv9XGDVp8nnCgmAGaezi9Vrz47Ea+s3e9WGBJdyezlH6p+cvMJ1G7+jB6jniGa16frKSr3fCAsvpL/9T7/2uIWzom5Cq293uQLfrnpvql6SOvL+hzcICAAAQWggMAADta0CKxt9kDqRrT+vIh/nKfStXWwrLdLrWfV49NfR7j2mo26cPN+iDo263+mrQ/Q1hQgP/g9wa7Tf/pv7QeMBj+tHUoerpHjjXWFUMq5/T3KVrlX/wtDNQV2jQxP+jH97k9nqYaUpLVm9zDF9zfL92vpNrpjtfe47XuM+bg/oBo/XY9xqmbcuquZo7d632fO4O0GntybKG+f6e07q97lPGoJn/R4/d3vDvT5vpzDfLJvednSo76XsfazqfCQhUGgv/+j1aPNPMr9tfc/q0Tp+u0fEj+dq58b2GKojeg3RPsMTg9ns0qD4vOKLdecGrEAAAQOdDYAAAaH81Zdr4/47RFHPQ/PMVP9dPfzJNU5Z+2HCQ32uw7klyu1WmvD2+w9xw9b8tpf5guN6A29W/Pi8o0553Gs6kDx2brP7uyfqaQxs1J32ufv7v+frwnTf03Iy52njQdzDeV/c8PNrtDu5k4U81adIsPbv052a6n9OcSXO08ZDv34dr0O0pbrc51P7dh/rww+N+QUiNTn9mDfP97VHZZ+5TvSbrsRF93Z4aleXM0hgznc+ZZfPzpc9q2rhp+tmHvnnqaeZpvH35QVDR/e35rTm0Rc+l36sHxozRmDEPaFaWee7gG9r5e9/09tbg4fWxTL2ASo3Du5Xnf1kHAADo1AgMAADt7sjWf9FLv3N7XCe3vqv99cf5PdU7xu00yvJ2158ZD79+sEa63T79R95qDvcdNQc/0FrfgbiSdc8tvnjhtPa8/ZL2u32O/XppU0NQcUX/W82/OIc/79GGn2xpdP8E8+8/9LtzQVTfc//78xkxuD7U0Gc7te6VwKm0zvRvXpan/b5j/X53KDX49QSOo7maM/Wnyq+vzPA5qdz/LJPvZXredFdDJYetUaXGzjdEfQEAAF0HgQEAoJ2d1JH9wQ5D83W80u20+O5tYDn4hj70nekO7687Jrrdtv4aObjh7Lx1kFtvwCD19eUFfy7T7l+53f62f6z6Kwt69tYNbqfH0TJtdDsDHDneKERovuT+vZ37Khiny/YEv2fAZ7naXx8A9FbfW9xOjxrtefvnjYKRBif/9V3t8V2J0Wuw7kp0uy3+lyM0qtQAAACdH4EBAKCdndTxRr8McGEnteHD/e6ZceuyhPF2l23ASN3ax+0+vUfv/bvbbekb2fCThp+f1J9uv123e/7MsfGf3XGsyobhbmcjJz/72O1qfdf1arjI4vjRLW5XYyf18fGGA/ievc9Vy3BEZQVuZ1Cb9e5e3+v01OB7G17H/3KEwEoNAADQFRAYAAA6pJPv7FGZWwkQPuAO+SID/8sRTu//wBwO+4np3XC/A3OA/cTixVrs+ZuswVe547QTX3VBs/hXYDR2gQP9/G176qsien7zLvcyCv/LEU5rT75fpQYAAOgSCAwAAB3TZ7na47vBYHh/3fptq6On7omtjwu0//2AuKDD8F0R0Sz1N1NsgcINeu+w291zkO6yqir8bxx5er8+CHb5BgAA6NQIDAAAHdRJrf3Qd8O+cA1KGCv1StXgAfYA8/Qevdv4IPfPNQ0H44c2aty99+re8/6N07PNvlzi4v3R71KD3n1GuV2N9dQNvRsuXTh5PN/taoky5e3z3ayxpwYNTQ6o1Di5993ASg0AANAlEBgAADqu7Pe0373fQHjMjUoeMSjgINdzCP3hxzrudqrPIKX0crtDTP7+I/XBxhX9Bzf65QJXrxQN8t2rwczVkb1uZwuV/XJn/a8u9Lz+DqXWV2qc1J5tFxNGAACAjorAAADQgW3Ue/vcW/z37KtRN/l+XcAc5P42yG8LHMzTbl/pffggjfyn0fUBQzA9/W4+2DpOq6a+xMH6qchzvP6/v+f3ywVDNWHG4IZ7L9j6avTskRrku9nB8f1670O3u6U+W6t3fW/ac7AG+8KIz/bovUK3GwAAdCkEBgCADm3z+/vNYbiltwbd7B5WH9+jd4Me5Jbp5+t3Ntzg7//5J616fYl+lD5WyfYvJCRrbPoP9aPFq/T6xre1yhyot64P9dERXxIg9f9H897fTjbvO0rjH39GP3zIfUKbtfZXDZdbWOOtsaZzxg/1QzPei6+v0j/d7osQTurD7JeC//RiM9Uvy/Ce6vlVe5COvL+hVV4bAAB0PAQGAICO7Vfvao+dAIQr3D3jfqRogzk0P4ftz2rO8nwdd8/0h/cerOSHH9OP7F9I+JEeezhFybf3V++rWvRbBRe0+Zd59b/uoPC+Sp76I/O+T2jy/UN1o+8mg0ZZ1lw9Vx8aSFdY0/mPKUox4w3q7Zu209r/y+f0L1sb7nlwUX61RR8G/KLCEe3OK3O7AQBAV0NgAADo4PL13u/9D5gvfJB75FfPadL35+hnWz9U2fHTOn26/joB1Zw+rZNH92jnWy/pX9a0wbX7v3tJc194QzsPnVT929aYaThepo/rb7BgOamdy6dp0lM/05Y9x3X6z/Ujm9FP6siHufrp1CmaldXwk4gXb6dy/8tvIg7vVt5BtxsAAHQ5l9UZbjcAoJN7+eWXtWHDBrcPaKy/fvjKKqX0s7prtD97kmb9a+vFEU2RmpqqRx991O0DAADtiQoDAADguGm07rDDAqOmTHveubRhAQAACC0EBgAAwBikx6bdI99tFE7veVdrA+5nAAAAuhoCAwAAuqjbJ/5QT7i/vLBq44saO8C9mWJNmTb/62anGwAAdFkEBgAAdFFX9L9Lo9xfXuh/lTuw1rrZ4lyt5WaHAAB0eQQGAAB0VX+uUU2t211To5O/36KfzZ2mZ1vrZxoBAECHxq8kAEAXwq8kINTxKwkAAIQOKgwAAAAAAIAHgQEAAAAAAPAgMAAAAAAAAB4EBgAAAAAAwIPAAAAAAAAAeBAYAAAAAAAADwIDAAAAAADgQWAAAAAAAAA8CAwAoAu56qqr3C4gNNFGAQAIHQQGANCFfP3rX3e7gNBEGwUAIHQQGABAF9K/f3+3CwhNN9xwg9sFAADaG4EBAHQh0dHRiomJcfuA0GK1TSoMAAAIHQQGANDFDB8+3O0CQgttEwCA0EJgAABdzNixYzmLi5BjtUmrbQIAgNBxWZ3hdgMAuoja2lpt2LBBv/71r3X06FF3KHDp9enTR/fee6/S0tIUFhbmDgUAAKGAwAAAurg//vGP+vjjj1VRUaGTJ0/qsssuc5/B+fzP55+r4pPjdvcVX/uaruvz93Y3zs/a7ejZs6d9Pw3rBofXXXed+wwAAAg1BAYAALTAM4tf0EcHSu3uGwfG6tm5T9rdAAAAnQX3MAAAAAAAAB4EBgAAAAAAwIPAAAAAAAAAeBAYAAAAAAAADwIDAAAAAADgQWAAAAAAAAA8CAwAAAAAAIAHgQEAAAAAAPAgMAAAAAAAAB4EBgAAAAAAwIPAAAAAAAAAeBAYAAAAAAAADwIDAAAAAADgcVmd4XYDOI8TlZX67LNKtw9AV7c2+990+MgRu7vfdX01ecJ37G4ACCW9ekXp6qgotw8AmofAAGiinDdzlbMp1+0DAAAIfWljUpT2rRS3DwCah0sSAAAAAACABxUGQBP5Vxhc3StKvSjvA7q0U59/rlOnPre7e/S4Sj2uusruBoD29lllpU64l1FSYQDgYhAYAE3kHxjw5QsAAEIV+ywAWguXJAAAAAAAAA8CAwAAAAAA4EFgAAAAAAAAPAgMAAAAAACAB4EBAAAAAADwIDAAAAAAAAAeBAYAAAAAAMCDwAAAAAAAAHgQGAAAAAAAAA8CAwAAAAAA4EFgAAAAAAAAPAgMAAAAAACAB4EBAAAAAADwIDAAAAAAAAAeBAYAAAAAAMCDwAAAAAAAAHgQGAAAAAAAAA8CAwAAAAAA4EFgAAAAAAAAPAgMAAAAAACAB4EBAAAAAADwIDAAAAAAAAAeBAYAAAAAAMCDwAAAAAAAAHgQGAAAAAAAAA8CAwAAAAAA4EFgAAAAAAAAPAgMAAAAAACAB4EBAAAAAADwIDAAAAAAAAAeBAYAAAAAAMCDwAAAAAAAAHgQGAAAAAAAAA8CAwAAAAAA4EFgAAAAAAAAPAgMAAAAAACAB4EBAAAAAADwIDAAAAAAAAAeBAYAAAAAAMCDwAAAAAAAAHgQGAAAAAAAAA8CAwAAAAAA4EFgAAAAAAAAPAgMAAAAAACAB4EBAAAAAADwIDAAAAAAAAAeBAYAAAAAAMCDwAAAAAAAAHgQGAAAAAAAAA8CAwAAAAAA4EFgAAAAAAAAPAgMAAAAAACAB4EBAAAAAADwIDAAAAAAAAAeBAYAAAAAAMCDwAAAAAAAAHgQGAAAAAAAAA8CAwAAAAAA4EFgAAAAAAAAPAgMAAAAAACAB4EBAAAAAADwIDAAAAAAAAAeBAYAAAAAAMCDwAAAAAAAAHgQGAAAAAAAAA8CAwAAAAAA4EFgAAAAAAAAPAgMAAAAAACAB4EBAAAAAADwIDAAAAAAAAAeBAYAAAAAAMCDwAAAAAAAAHgQGAAAAAAAAA8CAwAAAAAA4EFgAAAAAAAAPAgMAAAAAACAB4EBAAAAAADwIDAAAAAAAAAeBAYAAAAAAMCDwAAAAAAAAHgQGAAAAAAAAA8CAwAAAAAA4EFgAAAAAAAAPAgMAAAAAACAB4EBAAAAAADwIDAAAAAAAAAeBAYAAAAAAMCDwAAAAAAAAHgQGAAAAAAAAA8CAwAAAAAA4EFgAAAAAAAAPAgMAAAAAACAB4EBAAAAAADwIDAAAAAAAAAeBAYAAAAAAMCDwAAAAAAAAHgQGAAAAAAAAA8CAwAAAAAA4EFgAAAAAAAAPAgMAAAAAACAB4EBAAAAAADwIDAAAAAAAAAeBAYAAAAAAMCDwAAAAAAAAHgQGAAAAAAAAA8CAwAAAAAA4EFgAAAAAAAAPAgMAAAAAACAB4EBAAAAAADwIDAAAAAAAAAeBAYAAAAAAMCDwAAAAAAAAHgQGAAAAAAAAA8CAwAAAAAA4EFgAAAAAAAAPAgMAAAAAACAB4EBAAAAAADwIDAAAAAAAAAeBAYAAAAAAMCDwAAAAAAAAHgQGAAAAAAAAA8CAwAAAAAA4EFgAAAAAAAAPAgMAAAAAACAB4EBAAAAAADwIDAAAAAAAAAeBAYAAAAAAMCDwAAAAAAAAHgQGAAAAAAAAA8CAwAAAAAA4EFgAAAAAAAAPAgMAAAAAACAB4EBAAAAAADwIDAAAAAAAAAeBAYAAAAAAMCDwAAAAAAAAHgQGAAAAAAAAA8CAwAAAAAA4EFgAAAAAAAAPAgMAAAAAACAB4EBAAAAAADwIDAAAAAAAAAeBAYAAAAAAMCDwAAAAAAAAHgQGAAAAAAAAA8CAwAAAAAA4EFgAAAAAAAAPAgMAAAAAACAB4EBAAAAAADwIDAAAAAAAAAeBAYAAAAAAMCDwAAAAAAAAHgQGAAAAAAAAA8CAwAAAAAA4EFgAAAAAAAAPAgMAAAAAACAB4EBAAAAAADwIDAAAAAAAAAeBAYAAAAAAMCDwAAAAAAAAHgQGAAAAAAAAI/L6gy3G8B55LyZq5xNuXZ32pgUpX0rxe4GAAAd19mzZ1VZWanTp0/rr3/9qzu0Yyv9uEyfHP/U7h7Q/3pFf7233d3RfeUrX1FERISioqIUHh7uDgXQlggMgCYiMAAAoPM4evSofve739mP6Hj69u2rm2++Wddee607BEBb4JIEAAAAdCknTpzQli1bCAs6sCNHjujtt9/WyZMn3SEA2gIVBuhQ2rNssL3L+y677DJdccUVdhne5Zdf7g4FAADNVVBQoAMHDrh96MhuuukmDRkyxO0D0NoIDNAhUDYYyCq/s74gr7vuOncIAABoqpdfftntQmfw6KOPul0AWhuXJCDkUTbodezYMW3dulWffPKJOwQAADTFmTNn3C50FjU1NW4XgNZGYICQR8nguf3+9793uwAAQFMQGHQ+fKZA2yEwQMgjMDi3srIytwsAAAAAWheBAULan/70J7cL5/L555+7XQAAAADQeggMENIIDC6MMjwAAAAAbYHAAOjg+KETAAAAAG2BwAAAAAAAAHgQGAAAAAAAAA8CAwAAAAAA4EFgAAAAAAAAPC6r445pCGEnTpzQW2+95fYhmAcffFDR0dFuHwAAOJ/Kykq9+eabbl8L3XCvJibFqPuZcuVnb1OZOzgU3TnmUcX1cnv81dboTPVxHdlfouLfVagj/+ZSWlqaevTo4fYBaE1UGAAAAACtoq/ihiQq7jq3N4RU//dH+uh37t+BclVU/0XdevTVwCEP6uFvJyrma+6ILRQVm6DE+IGKcvsBdA4EBgAAAEBruDlOCTfdqP693f4QcraqUIW73L+CbfqPnGz98p3d+vRLKSzyRiXfd6euccdtvijF3nKrbhzYR5znBzoXAgN0flbZ4KOP6tGJ96q/OwgAAKB1dVfcddcozO3rCM78d5Fyf/2RTpnusF4DdesgZ3iz9R6kviQFQKfEPQwQ0lrlHgbnus7QfDEm3BCh6o+LdOAzd1gHxD0MAABouja5h0GfBKX8Q5yu6e6NCyr3vqw3P3C6u//9rbrzjhsV83fdFWaftqtVzakj2rurULv/u+EuAv3vm6jkft306X9tUUWvf9CN0REKt1/aGf+/Csx7dr9Tw+L769oe5rXsp2p1puojFW57X+V/sgY4fPcw8J+OQN2V8I8P69arw1R7vEhrNu92h/dQ35vjFHfTN8x8hSvMnbXaL6t17MBvVfChc9+DG5MfVsI3zPQ1Pg1Zv9/VXVGxcbr1Jmdanfkwas+osmy38n/rBBYXg3sYAG2HCgN0Wc6XV6z68P0CAAAuxslyFf12mw6cdHpPHchT3hbnr7DUGabed2rkiAT1j+yu2soy+14CZSdqFd4jRgkjRupOz2UMYbpm8IO61QyvLLfuPXBAR76QPf6d901UWnKc+l5+RkcOWM+VqfJ/w9T96jgl33OrOURvjjP66JP/sbvCrozyq8b8O/WPG6jo7n9RdYUzvQcOn1Lt5RHqO/g+DXOrEY7tL1R+cYVqrJ4vK1Tkznfeb3arwh5DivmmFZL8jc5WleuAdQ+FMitssIKERN03lLseAKGMwABd1DUa9PckBQAAoBX8qVIVR4+optbp/cvZIzpi+q2/T+3T592VcOeNigqTTu3P1S/eyrfvJZD/Vo4K/njGHKlHaeCtN9r/NsBXTumjLb/Uf+Rb9x4oUN6vilTxv2b45d0V/uURFfz7m9pWYD2Xrzd/fUDV5qmw3jEK8krndeZktfMrCd0j9Hf2EEu53s/L1Zv/lq2cLc70Fvw6R1tKrXcJV+8+A+2xTh038/mns/qL1fPXs6p25/vIf1e6v7xwRkW/+Q/lbvyFfvnWNhVY91DI/w+9WVwha3H1uKZ/MwMOAJcSgQG6nkHJevj7KRp4pdXTXTFJj+pR6x4Hj07UvTfYY9isssHkb0/UlEd8z0/R99Pu1a1/H/i1ZpUNWs+lxEcrYdTD+v6UwPHjepvX+sadGplmXssebv6mTNHEf7zzou9IDAAAOoCvxanP1WFS7af6eOen7kDLGR3YX2Ef6If36iPnENxP1RHtPu52W/5Uokq3fv/M8TId8Lv0QMcrVOkc9auH3/5Mc/muGLCcqfpUlf7vYXxa4QQB4d2bceLl1KducNLgzN5K2XUNX40QF1YCoYvAAF1PxUcqfLdIFV9aPTWq+NBXNpiv3b7auZAtGwQAAB3ON6KcM/df1qr7kEQl+v/1cfcELjcH+k5XvTPVvrP0Xmeq6+/K1Hpqa3XW7QzUXVF/31d9+5i/r3XT37hDW6JHb/d1+oRf1OsAuDQIDND1nPpUR45W6+xfrZ6/6OyffGWDFW6KHtplgwAAoIOxbhpoPX4tWjfedGOjv2hF2CO1n+5REc4JjDPVqrKHWK7Rjf/woB7+7hRZVZjfun+kRo4yf7dHK9wdo2m6K+b2e/WtCdbrPKq00e7rjBrITzACHQCBAdBYByobBAAAHYDvN8mqSpT98st6Oejfm3rfHe3SilJcb+fOBbWfV+qI3RWlhDEPKjE2Wt2/PKaSgjzl5rjTuaP8nFUPwfQf/i3dOzhGUWGVOvD/5es//j3bnV+zn+SOAyB0ERgAjXWUskEAANAxfHLKPuGggF8hCA3dY+PVv5dV/3BGRz4ucQb2iXOG/W+Fit7O0/sHfDdvNCK6q5vbeWG36sbrrH2nah34da4K9pWposrdWzL7VE1/HQDthcAAaCzEywYBAEBoOlvr/ExC96/F2I/1jn6kI9YB999GK+6+gU75fwjoMShZKUP72tNTe/wjFX7sDNflYQ03Pwy46eE1ujMmKuDGiLYva+1fPFC37vq7gBs6d1OYPbJ53v0FCUd3DRzEPhXQERAYAI2FdNkgAAAIVaX/XWkfOHf/xj8oJdmqTkxW8u19zZBPVVhQokrzZPd+w5T28INKdqsXh933oNImTtHE+9q29qBbpF/FZPJI+z3ThvZXhDmgr/2sRFve3d1QKflxhSprzOPfRishbaSGWf9m2L361ndTFNfDOvxv5Gi5PrVvznSN4h5wxh92X6JuVJk+PWmN0EM3jkpx5zlZDz78sIZd161RiAAgFBEYAI2FcNkgAAAIXWf+67d6v+yUaurCdU1/qzIxRtd8zb1F4PH39ebbhTpQYfYyukerv1u9OLDvNepeW6kKs//RliL+3q9isn9fRfxtrapPlKvkt2/ql5veV0VAJcFHKigoUUV1jTnW76uB1r8Z0Ffd/1Sm998u0qfWTZ0DlOv993ab16hVmDv+wD5/p+6qVOHO91VWdUa14de48xyjKH2qku3/oQP2DheAUHZZneF2AyHnxIkTeuutt9y+FrrhXk1MilH3M+XKz94m524CfZX88Ej1j6jVp//1S+UW+9994BolpqXoxh7mi/9wgf2LBue7uU//+yYquV93M26+sn8deK+CO8c8qrheUuXel/XmB+5AW3/dOzFZMd3PqHxHtrb5SgBb4MEHH1R0NL9gDABAU1RWVurNN990+9AZpKWlqUcPfnMBaAtUGKCLOqLy43btnK65+UGNHOaU2iUOsp5r/7JBAAAAAGhvBAbosso//K12V5xRbVgP9R3olNr9ne8uRO1cNggAAAAA7Y1LEhDSWuWShE6OSxIAAGg6LknofLgkAWg7VBgAAAAAAAAPAgMAAAAAAOBBYAAAAAAAADwIDAAAAAAAgAeBAQAAAAAA8CAwAAAAQJdx+eWXu13oLPhMgbZDYAAAAIAu44orrnC70FkQGABth8AAAAAAXco3vvENtwsd3YABA9wuAG2BwAAhjcT4wr761a+6XQAAoCk4yOw8+CyBtkVggJB25ZVXul04lx49erhdAACgKfr27as777zT7UNHNWTIEEVHR7t9ANrCZXWG2w2EpG3btqm8vNztg78+ffpo1KhRbh8AAGiuTz75RJ999plOnz6tv/71r+7Qju+j35fajzd+M9Z+7Ay+8pWvKCIiQr169VLv3r3doQDaEoEBQt6RI0eUl5fn9sHf8OHDuQ4TAAB4jJ2Ubj9ufD3LfgSAluCSBIQ8ygaDu/322wkLAAAAALQZKgzQofiXDdbW1rpDL539B5zyvkEDL315n68MLyoqiuv1AADAeVFhAKA1EBgAzcCXLwAA6AjYZwHQGrgkAQAAAAAAeBAYAAAAAAAADwIDAAAAAADgQWAAAAAAAAA8CAwAAAAAAIAHgQEAAAAAAPAgMAAAAAAAAB6X1RluN4AL4DeNAQChbsd7hW4XurIVL6+xH2c8OsV+RNeWdFei2wU0D4EB0AwEBgCAUOf7rgIAy9W9orTyp5luH9A8BAZAMxAYAABCne+7KumuofYjuqYDBz+2HwcOuMF+RNe0472dBAa4KAQGIeaj3x/Qicoqtw+hhvK+0Hd1VKRu/OZAtw8Auh7CbQCWE5WVmv54BoEBLgqBQYhZ8XKWnQQCaBnrjNqMRynHBdB1ERgAsBAYoDUQGIQYX2BgnSG9OirKHYpQQXlf6LK+FK0KHQIDAF0dgQEAC4EBWgOBQYjxBQZWyTt3MwWazroruHXJCIEBgK6OwACAhcAAreEr7iMAAAAAAEA9AgMAAAAAAOBBYAAAAAAAADwIDAAAAAAAgAeBAQAAAAAA8CAwAAAAAAAAHgQGAAAAAADAg8AAAAAAAAB4EBgAAAAAAAAPAgMAAAAAAOBBYAAAAAAAADwIDAAAADqRpLuG2n8AYG0L7h6a6PYBzUdgAAAA0InMeDTd/gPQtV0dFWVvC9K+leIOAZqPwAAAAAAAAHgQGISYQd+MtUuHro6KdIcAaAprnbHWHWsdAgAAAHDxLqsz3G4AAAAAAAAbFQYAAAAAAMCDwAAAAAAAAHgQGAAAAAAAAA8CAwAAAAAA4EFgAAAAECIqivOU906RKtz+c6mpqlJVVY3bBwBA2+BXEgAAQAdVo/Lt2cretEU795erqtoM6h6pa3tcq35jp2nJdxMU7ozYYeTPjVfG1pHKLF6kZHeYV7myxqdqpaZrwxvpinGHXkjTXrvtOdPh9tjCFRndS9f2T1La1OkaOaCjfWpoH/maF5+hPLcvwIhMFS9u/VZevnGWMt6O0ezls5UY4Q7s4MpfnaDU1dL09euUfr07sB0401Hq9jkirr5WUTHxSpkwRWlDojvc9ryzoMIAAAB0QNXKX5Cq1KdWqjhslJ5+bZeKi4u1a9NyZXwnTrf0G9iuO5cly1MUPzff7QtV1cp9Il4TXi13+y8lK7gotj+z4l1btXrBBMUcz9G88XcrfW3gQcOFted8oN1Z4YCvLfn+2iAssFQeOazyQ+Wq/LM7oINp6nap/bZfsZq+3v0MP9iljf88S0lhxVo2c7RSF+SbNb2Z9ixTSvw8hfqWONQRGIScapUW5CmvoPT8K0VtjapOVKnqjNsPAEBXsmuVXth8TJHmYCF7eboS+zjxQHhkrBLHz1b6sPY8/VeinQXH3O4QVp2vwkK3uz2FRyhmcJrmv75W0wfVqGTFC8q+0DUZ/kJlPtDpJTyRq+KCF5VytTugQ2nqdilEtl9h4YoclKzpy7OVOSJSxzYv1LIC97kmKjEbhg6wJQ55HT8wqK1SycZlmjU5RSOGxSs+3vwljVDKuGla+E5HTJorVbh6nuatLjRd53E4WzPvH6GZbzRvHq0ywHiSti7L+fyD/bVRmziUo1nj0rVsV7Mz4dB1KEsTzDLjTBbQvvLfzlGV4jRpRrIuGA0czVPmjFSNSHK2eUn3p2rWinxV1LrP2yX+5rnxWabLn1XybIb7zrS563/Ga+7r2fsdQzRi3CxlFbvbuRO5mpWUrqzDpntrhruNnaCsQ6a/olBZC6YpdcQQZ/iwEUp9IktFp+x/6adaxa/Oqh9vyAgzva8WXeDsWrWKXpun9PuTnNc2+0Lpc3NUeq7bHBQvU8oDC5VvlkHp6lR3Ohu+Cyq2ZmrauBEa4pvOGcuUX+U+adjfJ+MzlWO9pzudSfena+HWCtXsz9G8ySOUdIcZ544k+98WeuYxiLBYpT8xUdeaA5Yt9ftw1SrdZO3nua/n9z62881Hk5c3OrPq4uyG9mi35UzlvTHPtAl3vTSC7x97twuNx6tfD867vrqv81S28paY9mhvh3zbjSpV7VgWsK6lz81Vaf22yXKhdbvR6webjvNtl/xdaDzftrR+2zdNy3b4bRi2O8s1c6OzzO15sqZ3cZ4qzpQqZ256w3Z4rPm3BU3ZP4xQ8lPTlWjmJHdrwydUfTBXy55oeL3697GXXZVyn0hS+lrrk8tThj0fvn23ChW+urBhmTfehsOjYwcGtaXKeuwhpT+fo8r+07R8s1WOuEs71i7RtHtjFde/qVf1tYUOUh5XbTYMwTYY6MT8ykDr/9roetb/qdDhwwdU/mkHvTFXU0vZKHkDLrFSHSgzD4OGKjHaGXJOp8z33Nh5yqlOdC5b+GCXVv8wThWvZWjC3Dy/nfqmy1++VJVJi7Rxe7F2bV6iUd0KtXLGQuVaL3Z1il7ckWm2tEZ9qbTv2uBj+sOnMUp9YaN2fVCsrUtGKbxwpaYtzm00HYXKKYjR7Fd/Y0/v2h/E6MDqaZp6nn2K8rVTNW15kbp950Xz2ru0efEond2eaeax8Wu74mcrd+10xZrO2KkbAr4Lqncs1GRzQFJ565PauMvM46tTFFOWrYzHVppDeT8Hc5S5PUpT1prp3LVZT956TLlzR2vI5DWqeWC5tlr/9qVUhZsDtlmeeTyHwQlK7GE+4TLfZQkRqiwvVUTik1q91Xx+uzZo2o3W+8zSyn3m6fPMR9OXNzqtQ1maOmOZ8mpHadEm0362r9XsQQe04KdB73zQMtZ64FtfzXqw5IFwFQZbX7cv09ITSVr0tmmjBauVYm83RmjEU0WKnbVWvzHHMJufStCxrQs1b3XDmtbkddv3+usDp2PhZjPWebdLfs43XnW+Fj5itqWfJujJfzPLsmCtpvT9g7LnTHXWxXqlylmyRVE/cOdpjpmnTfM0OmmC1tSM1HJ7/rOU2r3I/Ft3u3khEWZbH28eyw6YV3dEVJar9KtD9eSKHdpl3mfDjFvs95llL7tIpfx0hzJHWGM27Peue8Q5NjxWXqGY1CXaWGCGb30xcBsOjw4dGFRsXKaVe2rMF8RarZs7UrE9rHLEcEX0i9PIR2YrZYAzXrvoIOVx1TsKzW4J0EasHTnz5fbimEh3QMfS1FI2St6AS+2YKqygu0+/C97wr2RdtgprYzX9mdnOZQth4Yq9f77mfzdG1dvX6PWAHd0mGjZd88fGKsK8XHh0oqaMSZRq81VS7D5/LtFpWrQiQ2mDoxUeZnZp75iiNPNPtbs08EBc12riE37TO3a2Jg02u+GbcxuN56otVPY6sxttpivzu3HmtcMVPWS2npxwrbQjT1tOuOM1SYVy1+Wqqt9EzZ+TrGhrHgekaf5UM6GHNyhvlzuazZ1Oe6RojfxeivN5JDrLx5rH8MHTNSnJDCsoUZH13AVFK8oq9z5SUX9WN/GJVVr0SLKznxceo7QJo8w7l2vffr8zm8E0eXmjsyp52zpbH6P0OQ3tNHHGIk0361Pr8VtfrdefuUSzg66viZr+dJpiu5vO7nGaPiHZrLvmX094UrPtG/qZ9fb+SUoxB+flHxQ77b9Z67b7+vZ6YqZjcpoZIuXvadqadyEVm7KVWxWjifMylGwty+6xSnvaOvNfrg1vBx5NBJsn1Qab/yZsN22RirJ2JQ9VNOxvmeWwanG6kgdF2O8TM3aiRkWbZbfvgM6/ZYhW2uJVyhgbp2hrWiIT3G14kUpb8n3QBXTgwKBceblmBeiRoumTrVz5/Hyldb7yOKv0ZOUO/wvkvGVHjhaUI7ZGeVztMW0xK0FD+aRf+d05Na8csWh5ikYssKaqVCvHOe/TcIOTZpY/Nbu8CiHLv9zMWlcmz1P2pmV2u5+33R3HLjnz63dZd7gNKF1rPF59qVqWZvmXujZaBy621LVZpbT+bbxJpWz+LjDeqSJl+5ffmXmYt7FU9atRo+1JfbmktTyqqpS/3L+00PzbTc29ERjQ1VXpwD6zPkYnKL7RmbS4xMSmHXQGETNgoPwvg4iIcPrONvt7LkIRXzUPp77QWWeAK1YDb3Y7bdFKiDeH4hWlOhDs4P/QXpWY7WDCHUMDpitukPUiZif4I6e/SWpLVLLHTFl8guLMQbZPRNwtZqqqtbfUfzt4s+L8D7zCLje77WbqB8UFTId1sK7awDm8KBFX6grz8EX1F05/k51reaNDqy+db/hz9jvM+r/fHF5GJ2posPWp1TRaD8zrx8WZA/rG6+uAWxTnv2KYg3/LzWZ9aRCuy6315S9OX7PW7evNdsN/JLNdsntbqbGX7C8xx10JSvCf14g43TLAHDXsLw04fgo6T+eY/+ZvN88lQlfaG4bTavaWwd6GV+sL7g0XVMcNDGrNSnjQPA5LVKLfF1ow1ZtmabQ52P0i8Wmt21Gs4h2r9fiNFcqaM0EZW1tWe3LecsTWKI87lKvcUyO13Cqf2rVZi0aeVe7cCWYDeO7pbW45YsLMXK2bak9lwx1J3bvKNrv8qZnlVQhRvnKzshhNedVqe1u1/IEabXg+u74E7OJZpWrvKsZqH1bbet5dB6Y3CutaWOra7FLal7baJb/rmlHK1uB845Ura+Y0LSvupklLG9bjvOfNemyVB/rxbU/seVqe4iyP+0coozhWs935fzr+mPIWz2tU9gd0Vdcq2goAjh4O3G54fKHT1p7jFVcG7GzbWnzQaXZ//8bZ0W22qhKz/Zum1NEN1+MH/rygT7hzkO3HeU8zP8G+0N2z8UVLRgQeOD3llF03a4f8sHMGr3rjrMDXGrfS+R5o8/C/XMes0DnGVz1i/XRmluZNTlGK72SLb1oupMnLGx1akF9JWDTceuLc63+L1+Emiuhub12Cr6/N0Zx12w3s2ka5Ko6Yh1M5muU/HfGpWmkdj/kCjjZTrsNHzcOAb9RXldUczlfW3HSlmPXbuReBOy0XYt//zjqxlFJ/Qse3PBFcxw0M3C+02OgLJYQlen1doWlg07VoZqJTetI9ViOfnq/0ftXKf+X1lpWltXk5YqOyohnTldKjWnnvnOMnRVqzHLEl5U/NKa9CyKrenqvcKil5xnylWb+DbT772LGZyhjt2dW+KPXtw21bS2bEmQN489573BFsLSl1bUEpbX3Jr1vK1lrttCBbr+83kzs1UxMHu+vxzCc10bxH/jtbAsvl3O1JwDzVBpv/chUWsxYB9hn4/uZh/16VnHeHPEqRvc2DOWrwjFZtdubNw5URVzr9wdTWNFQEXSwrkB2frswPojXl+TfsgNA6sHECx8bM+zY6MK8+Y0+trgi2OQ7rZj8kLw48aPL9OQdPTeQGFTGPrAv6Wt7gtJUVFNoVmrHufajK105W6lPrVZWYoWXWtdnWdKx3TsqcV7OWNzons75Yq3eQ9b/mL01Zs2v0ZZMCsmaur83Rmuv2xfob83d9utYFmY7iN9LrD+TbREWhdpp9Kg10g8RDWZo8LkPrTw1VxvKN+o09HRs0/YKXo5tjv8Xjlb6kSNHfy9Qb1glP698+b9+1AefQoe9h0CQnDmjfYXNocGd8o4Ycp6HDzAHw4X3By/suoM3LERuXFYUlKsG62UfJOa67a81yxOa8VkvKq9DOGkrn6//cS1FKSq3WlajEJP8P1QyJT3C7Wkdg+5Ci4+LM4fsxlZb6H0a3oNS1WaW0jUt+3VK2VmqnpftLzDsmKDExYC1SnPWeu0u11xlgCzpP55j/tj+7B3QMCXdYFXGFWrm88DwH9RHmu8scWlo7m42qc5x7j8SY7ZF7jxVrZ7jxgcW+hhtsXbQP8p1A9gfzNdK8p7Oel+tw0AywSEUBlwRXqKTEKq02261gP+cWH2dfq1xU3Ap3JeoXrwQrPC0uMu96idWUauXqXFWHJShlhLXXVq4d28wncH2KZj+SqBj7XlXW4D9c+HNp1vJG5xSpgYOsSwPMvkFAY67WgYONGoJ9XF6tav8NQLVZ/5t0U/DG66v7s4TnWl+bozXX7YsSY/YXzbI8VKyiS71hqK1S3vI1ZqlGKm24Wwm941373hQps9KV2M+6h4E1Xrn+cMHPq0j5m82GIWmK5t8fq0jrhKdRzobhvDpuYNAv2hxgmJ3yigt8wNXOdSxXdA88ALJcTLlQm5cjBikrsr/sznXdXWuWI7bmayEEBfmVBPdSlLP2N2WEddlbIDcIajMXURocoFmltN6S39Z07Ki9Finzfr/pMH/2+t6a1/ICXVTE6NnKuCNcVZtmacKCHJUcdWKDmqoqle7KU+FB58s9ZuwUjYwsV9azC5V30IxTW6PSdxZq4Wvlihg+RZPs4NDsDN9hDlArtijbus+I2VbUHC3Usp9m29uU5ovRN6wzXR/kKbfCvOeZatX0irZPXOwtyJM1SGdKlf/8vHOU0FYr99VlKrTmyUxvyeo5WrZHih2TosC41RWRorSxkaretEDTXi1UhXUdrvl3VYfNPsdys2ycsbz69VOM2Q6W5m9Rifk3NafMdJp3SJuQYP/6y6wFeSo9ZU1sjapPmOl9NUv5LTjJciE1p8xntn2lZo2doKyDkUqYk6G0aOuZKEVaO3uHC/XuHmc6KvZkK2NJo/LhYPNxTXOWNzqruAdSFBtWomVPmfXJagg11SrduFArG/2ef8JgJ4DMWWvWH2u0U6XKWbCyiTcG91tfaypUuPwF+2cJz7m+NkdL1+2ggmyXgu7TBx8vzqyfCdaynGm2pfutbYW1nKx1N0tZ/j+t2FrOVKl8T44WTnrIviQ7ZtzTmjbEeSrqamvDUK7C/BJne11RouynXlBeo/mJibFqkQqVt7nCjGe2Y2eiFN3PDNq9U3nWvFnfB9szNe+VVouGO6WOGxiExWqg1ZiLS86/slwdab5upNOmsTfWpHIh05CsFaJVNKc8rvbLRu9breo/m4ceVzohaGOtWo4YQuVPuKS6uTd9CUjYLWY9aIqmlfiZ8Rp/QTWlNLgp3ACg3Upp/dmrUbIWfeCdjjb7GUugS4lW2vJfKeupNEV9tE5zJrg3CB0zXhnP5yj/mLs96mHWwzdWaXZsuZY+Zsa5Y4im/rxE0d/N1LrFI+ure+KmvqhFY67V3hUTNOSOeI14bI0qh5sD1wuWuAYTo/SfZCixR5EWjjbv+UCGcq6apNnfTdCVxQs0eki8GTZT2bWTtGpGkAquYbOVOaxcyx6525neTTVKnLpKqyefexuW+NRGrXtqqM5uXqCx9k1rh+ihx+Yr79Nu9fPoEZasJ5ekKa4qW+nm39w9bpWsy7uizePmJemK/mipptr3DRiipHEztWr3l+pmVUW2ioZqtyEjxmrm8h2qiZ+uzI2/0qqxvvmMUIpdIVCpDdZnF3+3Jj9XpIELFimlhzuKJdh83NyM5Y2OLchND+tv4n19ulavmK7Es1s0x1oXh4/VvB1RShkduC5FjJ6vVVMTVfP2HLu93D1unnZc/bhmN2WfNyxRE33r65DRmvP2hdfX5mjRuh1UkO2SdV8Aj3OMF52mVRszld63REtnJNn3DbDX3VeK9GW31jqx5Hcj9mEPaerT61TeO00Za7dqw5zE+vmNeGCK5o+IU+X6dHt7fffkhSqKXWS24YFLJGby08oYFqWixaM1ZMgIZbwVoUkzJyrBzNsCa97MsJnrzmrS8uliy3AedR3Y3p+Prbvtttvqpv7rH9whwfyhbs3Dt9Xd9u0VdXvdIY69dSu+7T/cjDfJ9D+0NHC83UvrRpv3uO3H7zr9ZWvqxpv+8a80es9tc+1pmbvN7Q82njvOnDy33+ZO321z65x38PVPrnv9mD3A8ZeddQvuMcMff6vuC6u/8et/8VbdTNN/96KdTv85vPtj//cy7/bKeNM/vm5NmTvA0qTXcqfz4TWmy0/j5WA7x7i45Bp//o198eZM8/zddQt+6w5w7X1xdODnmr/A7p/5pt0aXV/UvfW49fp+7alxe3D7G7ctZ10eXbd0t9MfdDrPse4Fjru3bulDpn/K63X+q09jwZeDt502dTqCjXeuZRmgSfPkOse4AACgeYLu/7ZA8P0JoHPp0PcwiJs62y5ZK1o+VdNW5PuVzZWrZEeee41NjFLTRyrycJYWWqV1VinPmVLlLViorMMRSv7BJLdcqJXLES+6PK5Ery/NceappkJ5Ty9Q7qlIpTyUHDxNbGHJUkw/a4pK9W6eVdJjlp31fq1a/oSOJGJ4ilIiq5W7OEM5buluxa5lemFdo7UgPk7Jpn0Xblpz3hK/c6nevFLLdjnlYfbrv1YuDTLvHfCzRC3RuqW03lI2Z3hjwcaLGJ2mNHtZTlOWPa9mFLe8btl61iIAAACEvg4dGFglQBkbNyhzaoLObn3Br2xuquavzpXv/mkRwxfpjRWzFVu+VFOtn89ImqqlH0Urfck6ZY5oOPxu1XLEiyyPu3bcIj3eI08zx1jlMqP1wu5rlbJ4reY3uhmdvxaVLA1/Ui+O85X03K2xrzj3mm+98ieEniA3PYyfJ7t4LyJZ819dpJTovVo1ySnVmvxKpUaNtW654yciRfODlPg9PrNphfaJE+5R+YuTdbdpV6Of2qKaxOlatbx17rDbmqW03lK24PdMCTqetX1av84MP6vcZ8fa2xSnvC5PlV9lLQIAAEDou8wqM3C7ASC47fPsm16OfL744u5h0VqvAwAA0ELlr05Q6mpp+vp1Sr/eHdgC+XOtmxlbN5Pm3kTovDp2hQEAAAAANINzc+SLCwsszg3CCQvQuREYAAAAAAAADwIDAAAAAADgwT0MAAAAAACABxUGAAAAAADAg8AAAACgEzlYdsj+A4C3835t/wEtxSUJAAAAncjYSen2Y/Yrq3T55d3sbgBdz+8Pfqz5C59TWFiY1v/iFXco0DxUGAAAAAAAAA8CgxDjKyMs/+MRdwiAprBSdKvkznoEAAAAcPEIDELMj59dbP8dPnLUHQKgKX7zXqHWrvs3rXw5yx0CAAAA4GIQGISYu+9KdLsAAAAAAGg/BAYAAAAAAMCDwAAAAKAT4ZcRAACthcAAAAAAAAB4EBgAAAAAAAAPAgMAAAAAAOBBYAAAAAAAADwuqzPcboSAn7+8xv49+RmPTlESP7EINNmqNb/Qu78p0NevuUY/++fn3KEA0PVM/ME0ffnlWWW/soobIKLDO1FZqc8+q3T70ByHyv+o1365XmFhYXr6yf/jDkVz9eoVpaujoty+rofAIMQQGAAtQ2AAAA4CA3QmO8x+8Qqzfwy0l2d/nKEbvznQ7et6CAxCDIEB0DIEBgDgIDBAZ+ILDK7uFaVeXfgsb0v87//+r45VfKK//du/1bXRX3eHoqk+q6zUic8qCQwIDEILgQFaw0e/P+B2dR1v523Th/+1Wz2uukqPz3jMHdp1dPVyOQANCAzQmfgCg6S7hpr943R3KND2nvm/mfY+NYEBgUFIITDAxbKu9Zv+eIbbh64ibUyK0r6V4vYB6MoIDNCZEBigvRAYOAgMQgyBAS6Wf2DQlTZufzpzxr4p0te6d7fPtncVvnI5AgMAPgQG6EwIDNBeCAwcBAYhhsAAF8sXGFjX+q38aaY7FJ1Vzpu5ytmUS2AAoB6BAToTAgO0FwIDx1fcRwAAAAAAgHoEBgAAAAAAwIPAAAAAoBOxLkcAAKA1EBgAAAAAAAAPAgMAAAAAAOBBYAAAAAAAADwIDAAAAAAAgAeBAQAAQCcyoP/19h/QGVwdFWn/Bn4v8whcSldHRTltr1eUO6RrIjAIUZe5jwAAAM3xf5+Za/9dfnk3dwjQcVkHbM/+OENp30pxhwCXxoxH0+22ZwUHXRmBQYj5zXuFbhcAAAAAAO2HwCDEUEaI1mCl8TcOHOj2oTOzyuQolwMAAEBbuKzOcLsBAAAAAABsVBgAAAAAAAAPAgMAAAAAAOBBYAAAAAAAADwIDAAAAAAAgAeBAQAAAAAA8CAwAAAAnVr5qxMUHx/f8HdHkkaMTte814pUVeuO1FaqC7VscqpmbSx3B7QuZ94mKOuQO6CdeJax+Uu6P0WpMxYqe1eFatzx0FzVyn3CWp4ZymvUVkuWp9jLedr6KneIqzZPGdZn8FSeO6Djon13TPlzrWWUruwKd0CoOJSlCeazm/Bq22yPm8ydjoA2lTRCKeOmaeFrhaoIsQZFYAAAALqAWE1fX6zi4mLt2pqlp0d3U9HyaRq/ON8ckrWSPcuUEj9P+W6v7c+VKj9UrsNHKt0Bbc8+kJwbMBWXSMMyLv5glzb+8ywlhRVr2czRSl3Q/OXcfvMRSiI09I4E81ikkg+cIY5yFb9/zO4q+mBn4LL9oMSMLSXcav27zof2HeKqc5W33eooUe6mEntQSAu23b5EYqducNqT9b20cblmDQtX8YpZGj12ofJPuSM1VRvOB4EBAADoUsJ7xCjxkVV6coRUtTlX+a2UGJQUFso5hPNzdYpeLChW7hOX6uCtRDsLPFNx6YWFK3JQsqYvz1bmiEgd27xQywrc55okROYjBETeerNizOFoUUmpO8Q4UaSig1JEjwjJtDv/Nly+f68ZO0Y33xrpDulMaN+hruqdPOXXxikh3rTFHTvNnIa2oNvtdhAeGavkGS8qe/FIRVbkauGKQveZpmnL+egygYFTGuP3N8wp+8h8p7zty4gO5WjWuHQt29VKeySNhEq5VudSomWjTTsZt1J+X8+GrzQwSZm73EE+B1cq1bSt1NWB/6IjctaX9klbO5ZyZY03y2r4QhW2dVlzM7FdAC4sJibW/L9SVSecfmsbX/TaPKWPHqEhvn2FyQuVs9/v+3v7PHvdWvlBvpbNSFXSHdZ3xb/opSeSlL7WKnN1y8HNn132GqwE9lSRsuemK2XEEHu8ISNSlL44R6X+Z5Tc98ncmK15k0c472NdSmGmJ++oO05jJ3I1KyldWYdN99YM+7X9twMVWzM1bVzDvKXOWKZ8v2p2e9s/PlM51jJwpy3p/nQt3Fqhmv05AdNh/dvCJp0Bi1DyU9OVaH1/bm34Vqk+mKtlT6RrRJI1jeYvaYRZBnmqsLal552PChW+urBhPuKHaMS4Wcoqbpt9rJAw4BYl9DDb9T175fu4qs3BQZGuVcp3RimiNl9F9dUHVSoqNvshPRJ0ywB3kK9d35/UsKznmvbmtwN83s/D5n7fPZWtvMUN4/naR4B2at86mqdMs06OGGYNt9rFNC3b0dDAad+XQoW2bCuSBicrY+xI6fAG5TYOUhp99vZ8+pbPmVLlmLZT377Gms+wIHDefdux+jZjls/KHf5t0G2rc/NUurHhs87Y6j5dr8rs059ju21x27F/W5+3sbThuNHdtme85rQ7e3qs7eoTWSqqqlL+8mlKrV8HzL/d1LTjg4jhT2r6MNOGNm9Rvm/9qyhU1oKG16t/H7uNnm8+qlW6aZlm+dq2GR50nb2ALlZhMFKZvrKPTcs17cZK5Tydqsn2Am4lwcpB/qdChw8fUPmnl+qCFOegtt2vz+nQ4pQwJMJsDPZpb/2OpFFbpCI78KtWYXFgZlq1e5/ZREUoIc7aAe1saFNB7duiLQfN46lc5b4d+l/mlPcC/qpVUmp24MJi1K+fM6RkebqmLS9S1HeXa+sus6/wb08rpftOZX53qlZa63q9UmXNzFBR7Gyte8+M99I/6bGf7lDmCOu5hn2NdY/E2GMHqC3RskfMTnBxlCYs3apdxbu08ZkUdSvI1ITpK1UaED6aneclWxT1g7XO9Lw+TbdU5Gre4yuDn7Wzqhl2ZJopMEZkuqWu65R+vZnbHQs12RwkVt76pDZar/XqFMWUZSvjsUavdTBHmdujNGXtb1S8a7OevPWYcueO1pDJa1TzgLtcXkpVeHG2Zi3ONUuxCSKGKjHePJYdqA/hIyrLVfrVoXpyxQ57GWyYcYuObZqnWavN1JxnPizHyisUk7pEGwvM8K0valS3Qq2csVC5nTYzSFSctfx2l2iv2z6Kis3OSI9EJUyOV2KYzD6Jezaydq9KdptHc3CQ6AxR+dqpdrvu9p0XteuDXdq8eJTObjftbW7D53fez8Pf9mVaemqklm/apeKCdWZf2mofEzRvu/tK7dS+VZ2vhY/MU86nCXry36xpW6spff+g7Dlm3d1n/QMX7btt7XtLuXvMXvSwZMUkjVJKj2rlvxfsTHnDZ/8bs3w2z0mwl8/opAlaU2Pa19tm3guylNrdHLTPaZj36k2zNNpsx75IfFrrdphxdqzW4zdWKGvOBGVsbbSAts/ThFdqNPJn1me9Q/OT3OH1IpVyzu12udnGW+24myYtNe3JtJVFI88q73nT1jcHvk/+8qWqTFrktB2znxVeuFLT7h+hjOJYzXbb2dPxx5S3eF5gWzwn9zKk2lIdqD/pc0x/+DRGqS9sNOtwsbYuGeW8j91GzzcfEaosL1VE4pNavdWajw3uOjuridPi6LKXJFhlHyOfztT0AabJbspttXKZoOUg8bOVazbQL465RKVhZqNpJgMXKdG+9q9IxdYXr49ZSQtrIxTRw6y6BYFlVntL7CsGFXeH09+p0KaCKnx7g8p7JCjBbEfy32vF66DbBOW9gE/NqXIVvpqhlTvMLuOYUUo2B1zWdbfZ68rNDvyTyhwbq4hws68Qnaj056eb50uV9Uqjg4fE+Vo9M1HR1ng9zP+aqPrtbGUfNrt1czKVNihC4ea/6CHpypyRbA5msrSmUfh47YQnNXtItMLNNIYPSNPEB66VDheq2Do72WQVyl2Xq6p+EzV/TrIzzea15k81h5SHNygvoGLuWk18YrYS7ZGiNfJ7KbJjj8Tpmm+Wiz0dg6drkrXzXeBcK39hkYqydoEOVTTsIw2ZrVWL05XsLoOYsRM1Ktrspu87UH8WPbhopS1epYyxcYrubnojEzRljJmP2iKVNmMHuKOx70dQu08l9jyaz9+qKLBCgTDzHWRmv3pXkbNPsq9E+8xBeULcLVaf+TeFpl2bw9hh05X53Tjz+VntbbaenGDa0Y48bfGdFGny55Go6U+nKdZq891jlfb80/ZBYd47zndg+7Rv08I3ZSu3KkYT52Uo2Wq71rQ9bZ35L9eGt/13YGjfbamkYIdZ4gkaOdLMbFiikpMiVL05N2jYUf/ZW23k/klKsQKTWrd9WfPePU7TJ5h2U5uvkmLrX5To9XXmsxwwXYusba89jnU8N1/p/aqV/8rrgcdztaY9vGDa4QDrszb77uahyQqy9fp+0yymZmriYKetJM58UhPNbOW/syXwMzTrlqft1AZrZ+Z7p7hpJ94iI60GVa6KI06/otO0aEWG0gY760rkHVOUZiWCu0sD5zmIxCdWadEjyc46Gx6jtAmjzFpQrn37z98S/XXxexjEqJ+1laioVP2tiJpRRtXkckR7/HjNs28A4mrC+wSUTvmXkQWUiDVSvEwpDyy0S1hKV6c6/8av4qF9yhE7qFvjzSZPKtrd8EVTUlxovhDjNOk75hnrC60++XO/vM3ySjArsqMVSgD9yp0WXqhkz1eKV186lapZK/ID2gptqhWZnbD87dWKSJqo2cmxZsfLfCE2qvC62Hm/YNmd2z7mveOW8NllmN47aV9sGefFlg8CoaFUK8c57dQqD12wTRo6c5XemGPtdRn7SlVk1p3EeGvL7yciWYlBdswS70pWhNvdHCX7rUOQRCU0CpcjkhLtM8JF+wN3/2Jj49wuR0T3K5yOc22zg6ktUcke82/NvMXVf0eZfnNQGWu+q/aW+u/E3qy4wW6nJexysztvpmNQXMD8Wjutqj3r9LSKCF1pzdoXp/WFM6DJIiKsKavWF2ec/s7IuY/BMbNPYj6rPUX294XTVt2zkRWF2mkOKMt3F5mxYpUQ756kOrRXJWbchDuGBnx+cYNuNv83B6EfOf1e5/g8BtyiOP8XCotTnNVES5z1o13at1Fiva4V4Pu33Yg4+7KM6v2l5vDIh/bddgqVt8ks6WEjNepqZ0hiknPJTOEO737BzWaZNwjX5dYy97Qv69ORzlrt4cQB7TP7MdfeGe+EPPXiNHSYFTTt0wH/quDoRCX7f9bNUGraU7U5CkhMDFhrFGetNua7YK8zwBa07ZyjnTW3XZ9bhCK+ah5OfaFmt9KIK2U3xeqmt8QuHhiU6IBVOzTgG07Da2YZ1SUpR/SVTr201b4j67pzlYj5WNUMa6ebrwrTgOvvvLlIyaa/XcsRO6Krb9HNVhmn+RJ0vmjcOxLHJyolKcEsY7NzWeweVB0yGw/zhRxrvrx9dSStWQJolTtVm2W/2WprvpK9yeag3fdCp8wB4dh5yqlO1NOv7bLbyuofxqnitQzzfnmBnxFtqlVUv52r3FMRSr4rUbH3jzJfIyXK3x7kmrAWzntzyu7ynnVL+PLMa22f75wt9dcaZZwtLB8EQof/Hc53aOv6VZr/XbPN9q0vZ76w1z9n59xf8B0z73hNc7bafhfz753+emaANai6OnD3z9n5vEiHnTOf1Rtn2YFJ/Z/vPj2tthN7LuU6bIXcvv0to+ZwvrKsEye++0XEpza67OMcaqtUstEKU1Pqg8rO8POBF+Tex6B0X4lKiq1QoOFgJtJ8D8WZZVz4gXlun/lEe9yiWLe8XUcq7H2YoiUjAj97d5nZB2JGiz+PRutHu7RvM4f2mdhTOZrlP4++efiLPVIbon3bCvK1xTrxUbBQSb7PYGaOvV3N35yr5l01H0S1E7Zc0b1x4zLNyw6avtBp/32PK66021xLHDtqrzXKvN+dD/fPvg9CqwZJwZXb7x+rb/gaVFWJ2QebplTTnuyTSL5puaAalW/PMscMKfUnqb33Z7uwLhsY1FSVKm/BQvuMW0LKSHsFb24Z1aUpR3RLWvqY1w8LV6yvpOmDYvsLoOnauxyxI4rVLbeaTc3BvSqxPhL3jsR2KHB9vBLM5+D7KaPqkr1m5YvQLYPcNbu1SwDdcie7RNZ8bplzUxRxKk+57jWDJeuyVVhrdoaf8Wsr9883O8Mxqt6+Rq8HHPjRpi6edU1evtkpG6XkYaY3OtlOsUs2vxUYlNhaMu/NLLvrM1FLnndK+MJ7WG2p6ZpexmnmpNnlg0AHEhVl1lazdtsHPP6qVf1n89DjSnVzBlyUqGvsdzHv4/TXMwOsQRERrfEujbgHZTGPrHMDw8C/oCc3WpN19nu/eRzYz9n+HcrS5HEZWn9qqDKWb9Rv7OnYYF8men5m+7d4vNKXFCn6e5l6wwoqrX/7vB2HdnKJirfO2peY/QvrpoYDEpTgnsW1zqQOtS6x3Z+jIuvLwRxQWGfzbWFOe0pe3PB5+/8tGm6ebM7nUfulOQTxF7h+tEv7tvyN+bs+XesazZ/990a60+7aCu3bqFbur3JVHT1RWf7L3vxtmBor7clX/sUmBldHKso8nD7TuHGZdz9z2vz/Sl3R0oSgMbuZJmuR2Tf2nxfnzzlp1nYqVFho1vGwgernO7Ez3hwnfhCtKc+/YZ9osqbDOUl9fuVrJyv1qfWqSszQsvW/caZ/vXMSsDm6WGCQV3+pwJAxM7WqPFoTF2zQi+PM0ZLR3DKqS1OOGKuBVvlLPbekqblpaYcoRww9zn0MCu2DH98diRPira8D96aIZph1lr9onzmwCnO/zC2tXALYeNnr1jgzBaYtlVptpUoH9pnPLzpB8b4zCq64xEQzxeWNrlOiTV20E1uUt8McQI8e6e6URWvUvdZlKjvsktBALZj3ZpbdXTssOeAzaI6ml3G2oHwQ6EhujtPNpk0X7mp0PxLfPVxujbW3uxfL+R4o9JToVu8ww8xjQsB61kr6OSF3eXHRxZ/la67aKuUtX6MSRSptuLObXb7jXZXWxihlVroS+7khZ225/lB/md+5FCl/s/k+S5qi+ffHKtIKKo3yw82LuzuqW+LM98wpc+C1u/H3Q4zi7zTfDYV5yjP7HgGX1cTHOfuWvpsiBtGsz+NQsYr8G5Fv/Yhz1o92ad/W/Meb+W88bZcC7dthtYMC80mMMPsj7iCfGLcKM3dT4HFUs7n7Jo3vIWb2ZJx7NPW7WQN9IdpFSrjZXmvcG51fWlXvLNMas38dOSbZCSY+yFeuaRbJP5ivkYMinf1Fs3d24WZRrh3bSqXrUzT7kUTF+E5ul/+BCoPza7hUoLhgq3LXvqjZ98c4K7LR3DKqS1OOGO42jIvU7uWIHZR7H4PifWaj4bsjsXtglTgk2f0poyLnbKo5iL/F91m1dQlgQFv5QqftGq0gpVdBr1OiTV2sirw88zVivrReS6+f7xFLrCHl2rC5Fb5dmll2F2y8pmnvMk4ghIQla9IPrPuRrFTGq4WqqDHbaOunrJ5aqfzaWKX/IMW7jW3E+ZnGQuVtrlBNbY2qg11znDRJ0wdJ+SsylLXLjGf+q9iVpYwV+dKAdE15oKXrs0+MvmGdyfwgT7nWTJypNtMSp7QJ5ttszzLNWpCn0lPWOWIzfSdKlf9qlvL9r/ttLWeqVL4nRwsnPWTfQT9m3NOaNsR5Kupq6yx0uQrzS8y0Wcu5RNlPvdDo/ivB5iNK0dYvWuzeqTxrmFnGpdszNe+V5u7+dkyR8dblkEZthBLjAw/L4uITzT6J1RWrW/xT3IgUpY2NVPWmBZpmtWurTZrlVnW4RDnLc+wDr6Z9Hj4len2pdc8t6zMpVc4Ca/2IVMpD7km0dmnfZv7HTlBCWImWzVyovP1mmBml5lSVaR9ZyvK/J09roX0HqNiUa9pBjJKGBQmE3CrM8q35jQ70mytGqekjFXk4Swut7ZjVlk0bdCrGI8wB9aQWhbrBttsRo9OUFlmt3MXTnHZsfXbuZ75s/UUGH8H41snFE/TQ0/mq7pemp2c4p6R0TbSZc2lvQZ79vWTNc/7z8zzHC975iFKk1RQPF+rdPfYaoYo92cpY0vxLXLr4PQwCXaoyqi5ZjthRXe3cAf/Y/g3K892R2HlG1l2wrJ8y2rcjV6UV5ivaulTBfaq1SwBr/mKt6H4C2orZIPQ2D6ed628DVJsDS/NwZcSVTn9r6rJtqkRvbTZfFsPma0ejebbKw6p35Ksw6E5WM1zKsrv2LOMEQkzsI2u1YcE90rYFGjskXkO+s0C5Z8w2+rXVTSgnNtvDyU8rY1iUihaP1pAhI5TxVpBTQGGxSn91g/09sOXZsRoSP0Rjn83V2WEZWrdyumIvOtCNUfpPMpTYo0gLRw9R/AMZyjlq9tnHrdLmJemK/mipptrXsg5R0riZWrX7S3WzrkFvFQ03lowf9pCmPr1O5b3TlLF2qzbMMQe07lgRD0zR/BFxqlyfriHme/XuyQtVFLtIi8b4b9iCzUecJs2cqAQzbIE1zCzjmevOatLy6Xa43+ldH6tbephH/4pGH2v/xGo7QaoNE5/aqHVPDdXZzaZdWze3vWOIHnpsvvI+7WZ/Jk37PFwDUjSuR55mjjHLf9gErfroWqUsXqv5Se647dS+rbvIr9qYqfS+JVo6I8k+CTNkxFjNfKVIX3bznRq8WLTv4CqUX2D2i/olaWhABauPW4VZkavcAndQC0UMX6Q3VsxWbLnZjln3eEiaqqUfRSt9yTqzDxakvTZB0O22Wccy1q8zw88q12rH5nN0PvM8VX61Ze8TTP3NxN11cl1ZlNKeytLW9aZt+N7m5kma/d0EXVm8QKPN91L8AzOVXTtJq2YEtgrvfFQqxa5KqNSGx0x7ir9bk58r0sAFi5RibUeao66LePfHt9Xddtvcunfd/qC2zTXj3FY3J/cLd4Dji9w5gcPd8eZuc3r9BX2fxuM38X2CT/Mf6tY8bIY/vMZ0uUNeGW/GG1+3pswdULambrx5nfGv+Maw7K1b+pD5d1NerzvmDgkm6HsGfb0mLtNOYOdzd9fddrs1r7fVzXzT/zP7ou6tx81w+7nRdUt3u4MtX7xVN9OMf/eine4AL+dzG1u3otQdYPnLu3Vzrdfzfb7usm/8ufnaim966l+rxO6tt/fnYwOGN7VNecajTTUoWVE31kx74/XX9tsFdXf7PdfyeXc/k2+vMEvZ3966Fd/2G36O17J4tgvmleeacW/7ceDS3fviaDPe5LrXz/chBt3meduN7TzbRwBAR3WObT6ATo8KA3+tUEYVEuWI/fopJkwqzd+iEvP+Naes0qx2KEfsJBLjE+WU1zf+eRX3p4ys58Judn5qxae1SwD3vK5lG0tVbT62moM5Wmi1lcgUpQx3pidm7BSNjCxX1rMLlXfQjGTeq/SdhVr4Wrkihk/RpKCJbzPQpuoVbt6g8rBkJfrOpvhLTFZyD7Nu/6bRNdDN1hZldyFSxgkAAIAOg8DAXyuUUYVEOaI5mHlySZriqrKVPixed49bZV9vfWnKETuhuDinFMz/jsSu+usJE81zjT631iwBjB0zThFvz9Tou+I1ZNIq7Y1O0aJX5yvZN2qPZC16Y5Vmx5ZrqVV2ZN5r6s9LFP3dTK1bPLK+TK7FaFOO2kLlWzdyGpbYsOz9hZnhVohTkGsOyt1hLdT6ZXftWcYJAACAjugyq8zA7QYQag5lacK4ldLUDdxnAgAAtJNyZY1P1UpN1wbubwN0KVQYAAAAADiPGKW/wc1wga6IwAAAAAAAAHgQGAAAAAAAAA/uYQAAAAAAADyoMAAAAAAAAB4EBgAAAAAAwIPAAAAAAAAAeBAYAAAAAAAADwIDAAAAAADgQWAAAAAAAAA8CAwAAAAAAIAHgQEAAAAAAPAgMAAAAAAAAB4EBgAAAAAAwIPAAAAAAAAAeBAYAAAAAAAADwIDAAAAAADgQWAAAAAAAAA8CAwAAAAAAIAHgQEAAAAAAPAgMAAAAAAAAB4EBgAAAAAAwIPAAAAAAAAAeBAYAAAAAAAADwIDAAAAAADgQWAAAAAAAAA8CAwAAAAAAIAHgQEAAAAAAPAgMAAAAAAAAB4EBgAAAAAAwIPAAAAAAAAAeBAYAAAAAAAADwIDAAAAAADgQWAAAAAAAAA8CAwAAAAAAIAHgQEAAAAAAPAgMAAAAAAAAB4EBgAAAAAAwIPAAAAAAAAAeBAYAAAAAAAADwIDAAAAAADgQWAAAAAAAAA8CAwAAAAAAIAHgQEAAAAAAPAgMAAAAAAAAB4EBgAAAAAAwIPAAAAAAAAAeBAYAAAAAAAADwIDAAAAAADgQWAAAAAAAAA8CAwAAAAAAIAHgQEAAAAAAPAgMAAAAAAAAI1I/z9w1lhWAc4JNQAAAABJRU5ErkJggg==;" parent="1" vertex="1">
          <mxGeometry x="827" y="5" width="367" height="175" as="geometry" />
        </mxCell>
        <mxCell id="NqW5akh8zdySq_Utj7iF-9" style="edgeStyle=orthogonalEdgeStyle;rounded=0;orthogonalLoop=1;jettySize=auto;html=1;exitX=1;exitY=0.5;exitDx=0;exitDy=0;entryX=0;entryY=0.5;entryDx=0;entryDy=0;" parent="1" source="iRQ4Wu5U3kiScN2gP9Qv-43" target="NqW5akh8zdySq_Utj7iF-8" edge="1">
          <mxGeometry relative="1" as="geometry" />
        </mxCell>
        <mxCell id="NqW5akh8zdySq_Utj7iF-10" value="" style="shape=image;verticalLabelPosition=bottom;labelBackgroundColor=default;verticalAlign=top;aspect=fixed;imageAspect=0;image=data:image/png,iVBORw0KGgoAAAANSUhEUgAAA9QAAADcCAYAAACRb+l0AAAAAXNSR0IArs4c6QAAAARnQU1BAACxjwv8YQUAAAAJcEhZcwAAHYcAAB2HAY/l8WUAADHzSURBVHhe7d0NdFTnfefxHwgkPEJmJEaMEEhCMCCBsLBsy1YQsRMS4pdlk5b0pHXqeLdNj89pc/ac7Z7dbDdtN9m22+3pttvT9qQ969bZbOoNDRuTOIsNsRLZJpYjG9uAeIkwMgLJyMhIQrbMGAkL7/Pce0cajUZCc62XQfP9cC73zp07o5nn/p/nuf+5bws+NAQAAAAAAFKy0BsDAAAAAIAUkFADAAAAAOADCTUAAAAAAD6QUAMAAAAA4AMJNQAAAAAAPpBQAwAAAADgAwk1AAAAAAA+kFADAAAAAOADCTUAAAAAAD6QUAMAAAAA4AMJNQAAAAAAPpBQAwAAAADgAwk1AAAAAAA+kFADAAAAAOADCTUAAAAAAD6QUAMAAAAA4AMJNQAAAAAAPpBQAwAAAADgAwk1AAAAAAA+LPjQ8KYBAADG+OCDD9Tf3+8M7777rjdXuvnmmxUMBp1h0aJF3lwAADILCTUAABjHbh4cOXJEbW1t3pyJRSIR3XrrrVqwYIE3BwCAzEBCDQAAxuju7naS6dge6fz8/JG90QsXLtS1a9dG9lpfunTJWcbusbZJdTgcdh4DAJAJSKgBAMCIixcv6rnnnnOmly9f7iTJBQUFzuNk+vr6nOS7t7fXefyJT3xChYWFzjQAAPMdCTUAABjR0NDg7HmurKzULbfc4s29vmPHjqm1tdXZi71jxw5vLgAA8xtX+QYAAI6WlhYnmbaHeKeSTFt2efs6+3r7PgAAZAISagAA4HjjjTecsT3M24/Y62LvAwDAfEdCDQAAnAuQ2Vtk5ebmKhQKeXNTY19nX2/fJ/4WWwAAzFck1AAAwDlU27LnQMccOnTIGWLsBcuefvppnT171pszfpnY62PvBwDAfEZCDQAA9N577znjvLw8Z2yTZ5s42+Hy5cvOvBMnTjjT9jkr2TKx18feDwCA+YyEGgAAaNmyZc44tmfZ3vpq06ZNzmAP47Zqa2u1Zs0aZ7CSLRN7fez9AACYz0ioAQBA0kO1q6qqnCHGJs02qY6/z3TiMskOHQcAYL4ioQYAAE6ynJOToytXrqizs9Obmxr7Ovt6+z6xPdYAAMxnJNQAAMBRWVnpjI8cOaLBwUFneqrs8vZ1Vux9AACY70ioAQCAY8OGDVq5cqWzl/m1117T+++/7z0zObucXd6+zr7evg8AAJlgwYeGNw0AADKcvTr3T37yE129elXZ2dm69dZbVVZW5j073rlz55w900NDQ1q8eLE+/elPa+nSpd6zAADMbyTUAIDMdW1Y6jsn9Zph6D3p6hV3GJGZXWR0wU060pel8wOmfIwFCxY4Fxmzw8KFC3Xt2jXn4mN2iG1GrFq1ykm+A4GA8xgAgExAQg0AyDxvnZTafiadfcmbgWTeyCpV66K1ToI9EXvf6fXr12vdunXeHAAAMgcJNQAgc3x4TWr+324yHRNcLS0vkwL50mKTONoh01193x2il5y990+9HxlJqrMXfqgNGzercMUKZ4/1okWLnPkAAGQiEmoAQOZ4+o9NgtguLcySNu+UIh+Xcgu8J5HM5cuX9fTTTzvTa651qXboqLS8XHrgD515AABkMhJqAEBmaP6OdPo5qaBM2vqbUn6J94R0/vx5nTp1yhn39fV5czNXQUGBc050RUWFsxfacu4rfalTevFb7nnn6z8h1T3sPAcAQKYioQYAzH8X35AO/Fd3+oH/LC1f40zu3btXP/7xj3XmzBnnMcZbu3at7r33Xu3atcud0XtWevqP3On7fl8q5NxpAEDmIqEGAMx/zd+WTh+UNt0n3f4FZ9ZXvvIVvf766840rs/eW/qb3/ym++DVPdLJA9L6e6S6f+XOAwAgAy30xgAAzF/nXnXHkW3OyJ4TTDKdGltesXOpY+Woc6+4YwAAMhQJNQBgfhvoloYuu1fxXlbszGpoaHDGSM1IudlytOVpy9WWLwAAGYqEGgAwv/V1uOOCUmf0zjvv6Pjx4840UmPLzZafwyvPkfIFACADkVADAOa3oag7vmmZMzp9+rQzhj8j5eeV50j5AgCQgUioAQDz29Ur7njxTc6oq6vLGcOfkfLzynOkfAEAyEAk1ACA+S2W8C1a4oz6+/udMfwZKb/FbnnqAxJqAEDmIqEGAAAAAMAHEmoAAAAAAHwgoQYAAAAAwAcSagAAAAAAfCChBgAAAADABxJqAAAAAAB8IKEGAAAAAMAHEmoAAAAAAHwgoQYAAAAAwAcSagAAAAAAfCChBgAAAADABxJqAAAAAAB8IKEGAAAAAMAHEmoAAGbUdn39ew1qaLDD9/T1T3uzJ/Lpr+t7zrJm+N7XzavH2/6N73nv16DvfSPZEgAAYDaQUAMAAAAA4AMJNQAAAAAAPpBQAwAAAADgAwk1AADw70NvDABABiKhBgAA/i3wxgAAZCASagAAAAAAfCChBgAA/nHINwAgg5FQAwAAAADgAwk1AAAAAAA+kFADAAAAAOADCTUAAAAAAD6QUAMAAAAA4AMJNQBgfpvz+yQf0YVL3qQKVBQp8KaTK4gUmaU8ly6YVwMAgHRFQg0AwIzq0+kLfd60FLnzi9rkTY+3SV+8M+JNm1deOG1eDQAA0hUJNQBgfkuD+yQ3NhwZTYxL7td/+tpnVeo9HFF4q774Z1/X50q8x7qgIw2N3jQAAEhHJNQAgPltzg/5Npr+p77dFEups1X0yX+jx556St/71l/rr//GDN/6np769n/Xb9w+ejh438H/pf/W5D0AAABpiYQaAIAZ16f93/gv+p8vxx3AnZ2tgpJN2rTRDCUF9qFnSB3P/q3+wx+zdxoAgHRHQg0AwKw4qe///q/qy3/6v9T4cof63hsyqXOMmX7ngtpe3q+//b0vmWV+pA7vGQAAkL4WfGh40wAAzD8tT0pHzVD9OWnL5/Sd73xH//RP/+Q9iVR96Utf0sMPPzyuXAEAyETsoQYAAAAAwAcSagAAAAAAfCChBgBkhnS42jcAAJhXSKgBAJmBK4YAAIBpRkINAAAAAIAPJNQAAAAAAPhAQg0AAAAAgA8k1AAAAAAA+EBCDQAAAACADyTUAAAAAAD4QEINAMgM3IcaAABMMxJqAEBm4D7UAABgmpFQAwAAAADgAwk1AAAAAAA+kFADAOa3RUvc8QdXnFEwGHTG8Gek/K665anFXvkCAJCBSKgBAPNbLOG7+r4zKi4udsbwZ6T8vPIkoQYAZDISagDA/JYdcMfvv+OM1q9f74zhz0j5eeU5Ur4AAGQgEmoAwPxWUOqO+zqc0bJly7R582ZnGqmx5WbLz+GV50j5AgCQgUioAQDzW15Yys6Vopekd7qcWTt27HDGSM1IudlytOVpy9WWLwAAGYqEGgAw/5Xd4Y7bXnBGDzzwgDZs2OBMY2psedlyc3jlqLLb3TEAABmKhBoAMP+t2+aOTx6Qes86k9/85jf127/921q7dq3zGMnZ8rHlZMvLYcvPlqO17uPuGACADLXgQ8ObBgBg/mr+jnT6OamgTNr6m1J+ifeEdP78eZ06dcoZ9/X1eXNn15mz53Tw4EFnuqpqs2pvr3Gm50JBQYFWrVqliooKZzziUqf04rekvnPS+k9IdQ97TwAAkJlIqAEAmePpP5Z626WFWdLmnVLk41Jugffk3HrwNx9Ry6uv6EPzb8vttdr9rUe9Z9LA5T6p7WfS8X3StWFpebn0wB96TwIAkLlIqAEAmePDa1Lz/3aTw5jgapMglkmBfGnxTe4wBx77zuM633HOpNPS6tIyffnhh9wn5oK9x7Qd7IXHes9J/W96Txj2R4i6f2W2IDhrDAAAEmoAQOZ566SbVJ99yZuB61pzl5tMr9zkzQAAACTUAIDMZQ9ftucD272wQ+9JV6+4e2bnwE+eO6jei28708sLV+jTn7jbmZ49C7yxsXiJO2Qvdffe2/PO7WHyAABgDBJqAADSQFqfQw0AAJLiBCgAAAAAAHwgoQYAAAAAwAcSagAAAAAAfCChBgBgDr3zzjt67LHHdPRQs/ouXtCli93OtJ3X39/vLQUAANIRFyUDAGCO/N3f/Z3+5E/+RHfddZc++9nPauPGjc78X/ziF/rRj36kl156SX/wB3+g3/md33HmAwCA9EJCDQDAHPjd3/1dNTU16R//8R9VXV3tzR2rpaVFv/Vbv6X6+nrn8V/91V85YwAAkB5IqAEAmGV/9md/pv379+v555/35kzunnvuccb333+/fu/3fs+ZBgAAc4+EGgCAWXTy5ElVVVWpq6tLK1eu9OZO7q233nLGxcXFOnHihDZt2uQ8BgAAc4uEGgCAWfS1r31NH3zwgf78z//cmzN1X/3qV7Vo0SL96Z/+qTcHAADMJRLqafB2T48uXuzxHgGId/ZchzcFwPr3/+7favd3v6tbb73VmzN1R44c0Rd+9Vf1H7/2h96cmVMUXuFNAYi3pqzUmwLSX2FhSCtCIe8RZgIJ9TT45qPf0rM/e8F7BABActeGh/XUE/+swcFB53FjY6Mzvp7t27d7U1JOTo7+5Rd+3XsEAMDEPvnxbfrKI7/pPcJMIKGeBiTUAICpuHr1qv7fnv+ja9euOY8/9alPOePr+elPf+pNSQsXLtSuX//X3iMAACZGQj3zSKinQXxCvaIwpEIOqwAcNnl4ve0N75GUGwh4U0Dm+n//97s6c+aMgsGgN2fq+vv7Vb52rT7z2c97c6bX8PCwM164YIFuuukmZxqAdDkadcbZixdrfWSdMw2kq4s9PXrbOx2VhHrmkVBPg/iE+iuPfNkErnu/UCDT2esL/M7vftWZtj82/d3/SP0iTMB88yu/8ivatWuXvvjFL3pzpu673/2u9u7dq+9///venOlDfQWSo27gRvPsz5pMfvKYM01CPfMWemMAADALPv/5z+vv//7vvUepsa+zrwcAAOmBhBoAgFn04IMPOhcW+5u/+RtvzvXZZe1gX2dfDwAA0gMJNQAAs+wv/uIvnPtQ/8M//IM3Z2J2GbusHf7yL//SmwsAANIBCTUAALPM3oPangv96KOP6td+7dd0+PBh75lRdp59zi5jl7XDli1bvGcBAEA6IKEGAGAO3HnnnWpqatJtt92mhx9+WEVFRaqvr3cGO23n2efsMnZZOwAAgPRCQg0AwBzJzs7WV7/6VR07dkzPPfec/uiP/sgZ7LSdZ5+zywAAgPREQg0AQBqorKzUpz71KWew0wAAIP2RUAMAAAAA4AMJNQAAAAAAPpBQAwAAAADgAwk1AAAAAAA+kFADAAAAAOADCTUAAAAAAD6QUAMAAAAA4AMJNQAAAAAAPpBQAwAAAADgAwk1AAAAAAA+kFADAAAAAOADCTUAAAAAAD6QUAMAAAAA4AMJNQAAAAAAPpBQAwAAAADgAwk1AAAAAAA+kFADAAAAAOADCTUAAAAAAD6QUAMAAAAA4AMJNQAAAAAAPpBQAwAAAADgAwk1AAAAAAA+kFADAAAAAODDgg8Nb9q3d955R5cuXdL777/vzcksp0636a0L3c70hsg6Fa8scqYzTW5urvLz85WXl+fNSR+ZHqNz5d333tNrh48600uXLtUdNVucacwe6iWmivqanqjDcy8T6wZxd2PreuuCXm97w5leWRRWxfqIM43xcnJyFAwGVVBQ4M1J3UdKqI8ePaqXXnrJewS4QqGQNm7c6AxzjRgFXNRL4MZGHcZcIO6QSWpqapxh0aJF3pyp8Z1Q24C2gQ1MpL6+XlVVVd6j2UeMAuPNdb1sbm5WS0uL9whAqrZu3arNmzd7j2YffWtmYpsOmaK8vFw7duzwHk2Nr3OobQ5OUON6mpqavKnZd+3aNWIUSGKu6yXJNPDRvPjii97U7GP7L3PNZd9B3GE2tbe369133/UeTY2vhPr8+fPeFDA5e57LXOjq6vKmACSiXgI3trmqw2z/ZTbiDpki1ZjzlVD39fV5U8Dk5ipWiFFgYtRL4MZGHcZcIO6QKXp7e72pqfGVUF++fNmbAiY3V7FCjAITo14CNzbqMOYCcYdMkWrM+T6HGkhnxCiQfqiXwI2NOoy5QNwh3flKqAEAAAAAyHQk1AAAAAAA+EBCDQAAAACADyTUAAAAAAD4QEINAAAAAIAPJNQAAAAAAPhAQg0AQLorq3aG+q31qr+l1Jt5PUGFS0pVWhI2U5mh9BZTPqaMqsu8GcAsCCwvNvWsVMXLA94cYB4Ihp24Li3KlB7EvwUf+ri524svvqjjx497j/yJfOYhbV8TUPRsox5/ps2bi+kT0Y6Htqs8EFX7s4+r4bQ3O0HdLz+i6kKp5+ij2vuSN3P9Dj30yXIFou1qfLxBH2XtbN26VZs3b/YezR5i9MYQi7+xhjV8Jarucy167ZUT6krt3vrpbUp1q067HqlWSD1qeXSvmr251EtXrF5a0bYGPd7Y7kwnlWvK8tdtWVoJ5XmjuWuXM3pki/k2F1v06A+m8k0miKUUTKkdNJ8ttc81c5L2adOKvjWT+tbA6hrV3VGp0mBA2dlZzrzhoSENRntMH9WqQy+1qd/Mm/HvRN+RAXEXa1u8h5OavP2ZNim37d53yOnR4R/t1aGL3uwUTaUdT74+P3qfF1NWVqZ7773Xe3R97KGeJs6v4lPeawDMvnSO0YE3T+jEcXdo6xzQcHaeiivqtfOXtpvmGUguUByZND5CNaVeMg0g3YUqalVvkte0qbMmEd31QK0iK/KUNdij9lbTR7V1qCf6gXJuLlZ5SViLvEWnS9qVQQZInzLvV6eNMW9byBneHHCfGugaO//4KXXaX3LmSmGlarfWqnLcDpGAcnLMKCtHNy1x52QKEuppUa3qO6pUFSn2HgPpJr1jdLC3SU0vukPj/j369r4W9QybJ3Ijqr6LQ+gwgcAqRTZ50+OEVFFsD1Mb1vBVdw6AdGXq65YaVVWWpMnpCQHVbS43/0vRcwe1e/eTajho+qjGA3pyz+N6bPdePfnsYfW4C0+TdCuDTJBOZd6j1ldGt4WcoXfQfepKz9j5Lx5Sq8+9v9MhVFGtms0VKhlXaC1q/OE+HfjRfh3s9GZlCBLqaRDYUqrwYu8BkIZuuBi90KxXzri/zOaHK5wxEK+/z/48n61Va6rdGYnM/HLb2fcNaID2GUhvRZtUmlZZZLHycu04qu4zreb/BJd71N07bu5Hk3ZlkAEocx/C2rR64kKL9nap48Jc7j6fG+l1DrV3rP7A6QYdGqxSbSSsvCXeOStXo7p05rAanz/hnK9Svv0h7YgENHzhkB770WFnmXjVD3xZdauzxpxjF4zUa1vteoXzsuW867VhRXta1fxck9pG1n3s+P9uHf5xh/LuqlJ5fkBZ9qcHs/zQ5fM68bODOvSmbUhLVfvZu1VdZJ53Xhsn/nyD3GLV3FWnqrJ8BRZ7Sw5H1dN5SoebDqk9/hxRrwz6T+7V8wPVqt9crlCufc2g3hvM0dKcYXW/8piefM1dfFS1dv5GnYoXR9X2zONqPMt5XsRousfodc6TmeDcnZEyyjVl5PwkaL7zQLfOHD2kgye7nWVc3rk0/Se0z3yW2rsqzWti321I/Z1H9ULT4bhztCevM8k+qxsjOep6ab/Oh7dpS0lQ3ml2Gr7crdaXnlfT6IrjPLhprJc9x1qkW0w5DZt68M9P6lDCufax+tdz1Cy3Jfk5Vc75kbb+BE39GFlvPeo4fVhNL7c7G9GBOz6nB28LK2ugTQd2N6rDXWxEaNsXtGtTUMNvH9buHx5yXxN731i9tDHa36GjLzbpsFMvY4IqNd+hevNahQMmnmOf4cqAzrc+r4Mvd41uyJv6YLl14oSa+sKqiYQUGHlNvzpaXlDTkbjXTHI+2dTamgnawUQT1FVrqn9HwVJVm/VUVRZWwLSp7teydTu+PRtl3/eeMXXatFftLepZVucchjiuTYm1ceXXKbMJ2zfTLjSadqGNvnW6+9aq7Q+qdm2eshN38Ywpp6AiW7eN6XPtOu/+RbOef9E9j9nlxbyprw1HP1BNzXpv/Rl2+ZNNavh5VJHtJhZKzXtle0/ZWDj6vHlNrA8p1fYH71Mkz/Rnr+3Wk6+Mjb9EE9eTZJ97SAPdZ9TyykGduODOum4Z0HdkSNwlmKRtHTW1GBuVwvKJf3/Tdj14Z2Tk84+KtYfJYtCbN+VtsQnazwTJ69wEdcCHeXEOdWDtdm3fHJb62t1zBdq6NZwVUKiiXvebRsFqP90lu/8qq7BUNc6ceNUqDduVFVXXGTdRCVTs0M7tVSrOy9JAZ6t531Z1vGvmr6jS9p07VOn8EhknK6Tqe2sVyY2q43V7voK7fHae+Xv37lCNs3yP2l87qIZWr0r1terA/gPu8PNWd57KVX///SZwTSc+fMk9B+d4m7qiOQqtqdGOX07yt428Nfdp510R5V+z5+20qr2rXW1v2L+TpVBprXMY0hi3lbt7IC93qd0kKphZxOjMx2hosXt22vDg6IZM4Jb79EteGUUvtDll33r2krOxXLltp3bdZdZJomCVU66ha91qs+uqtUP917IVXFOr+z9TpySvSFGWimt3qrY0oHed9XZCbW8PKSs3bDrsndpRwSHrM+JaizrfHnbqQfHGxDKuUoVZHzLJdudE22Br6rXT1p/lAQ33t6vVqccmscoOqfzWHdr1mUr3cM9XOtzTD/LCipQ4r4wzelh5z5sn3KSsqE73xd63x43RNvM5s4Plqr33PtUV2YVi8hWprlRx4AMNdMXiuV/DS/JUeutndPdEh7MXVqm+It98vdhrejScHVT5nffrvmR1IEHKbY1PKf2dYETVFcUKXBvQ+Ta3PWvvM+Vm27NP323W6KjY+4bN66NeubV1Dys/YpLp5d5CY4RV9xmvjbvqtQO2zZ6kzMa3bx0yfwoz4LxJNhpf6dKQfXClS4difdRzZiPbWSKgys/sNH1usfKyBtRh+yinHQ8ovHm7dnp1dYy8iHZsq9TNVzq8ut2jIdNHh2/Zri88tFN1Jhbk1c/WTtNTLzGxcJfp19d4r1eH2i84PbjCm3aodrWfdjyg6vt/yfvcpq+PxbXpJvOKK1X/L3aNtAfXLwNMt/SMu1RNPcZcqS6foOuEmn56SF1X7IMhdb3sldn+Rh2+XqDO+LbY3ErLhNr+St/92hPava/RPVeg8UntOWI6P/Nc3irvIjSdLeroswuHVHpHQkjHNtwHutTmbLiXq+6OchNGZuX/fLf27D9o3vegDuzZp5Ze866BclXXmCAfI0tZ0TY1PLHXPW/GWb5RbfYXlKywyp3ePWo2ojrUMfiBfeD80tLRaR7bwTvcIbStVlUF5gv1t2rfyHs1at/uJ3TYbgyav113d/ymgisrENDguSY94Zy3YxKifQf18qnzzq9hWcuLVZWwwVOzOmQ+sf3KbXLTM8wkYtT8iRmNUfN9vZNzLvXGtmKrdPftpcq2ZfTSaNkffGav9jS2acC8e2jLPaov9BaPM/Rms3bv3qdGu64OHtCePc3qMr1olklM6hLXjR8L+3Vi37e19xm73kwn/cNv68mTtiQCKr+jznwbTL+oTrxpEkmz3sNrakxqG2dTiYqyTbj3dulEwp5rV0j1d1QpaMP+1D7teaJBB516vE+7f3BYJjdTYE2dl9AeVpsNFuWpeH3Cmiypdg8XHO5Rh7MHK6DaOrPBYN/35JP69g/dGG384R4dPGeeN21BZU18XWpX84EntfefHzd1PhbPe7T/lN2Qz1ZRSaW72Dj2KJDdY+vAzzpMiZg6sLlOtZMmxH7aGj9S/Dtnm3XgR3u1+/E9OtDotmcN39+vVpOAK7tIJSNnfpTqjhr7vraM9+lxrwwa9+3WE6+ZNjjJVk3A1MGqQrtSTujJ7zzptgO2zY6V2caaMQm7lax9O+E9h+nVf8H0R5cH5fRS1wY1EOujTP12fqQydfGONWaND3WpeY+JD9tH2XZ8v3utjcCaatVM0O6P1u29Xr3KUrZ5q55jpq7H6s/+J3Woy7yRreOR0csctr9s6v67Zv6SsGoeeFAPfX6H6ipCTuxNyaa7dVuJaYjs5/7Bbu2LxfUTe9TQZj6L/VF8W73Tdl23DDDt0jXuUpJCjDlSXT5Rf7cpowENXrMPPtDgZa/MOrvUk7SvHWvGt8XmUFom1LpyXqdecTf2Y6KvdOuSnQjkeSu6R6echMB0hqurxjRwsQ33fpvQ2BnrIyq2GxgDHWo5Ft80dau53W6QScFwZFwj2WM6+DGHupqNn46L7usDwakE/+jei+62gwm3/+nXoVfbnT2Y2UVmw8KdOWq4W6decA8dHnHxsNqdPTImWYrfEMmtVandWDBLdxxPPCARM4IYnaEYDSocqdGOL2xXJM88jLbr5HGvPG4p1yp7mJEto6MJZX+mUa0XnFLSKrPBM9aQLrzRMnaj5HKLWs65nVyoeBrO0e7t0OGEw6q6XzjtJGbKNWUxbs8mpsPI3uOCVaoY2bAxSe2GVSYdNTH9hnsI9jiFFVpVYMYmhk8/H3+ItNF/SIed8/dHz88+ce6CiSLzzivLx/w4UmoPmTPjoa42k3YbudUqWWHi3L7vC/GH8EXVetI9YiW7sETxaXK0t3vchkh3l7tBlx1wf1Qax7Y/r439ZtFTrzh7GewG0aQh7bOtCazZrkceeST5YA8JTJTy34mq50Ji8tCtrj6nJEx75s5RSUSrbjbjcWVsVt0r7eoedwG6gKpLwqam2zauybzjqOipk+pyG7i4hN2TrH3DnIhsKHbiZOCcabfj68oF0/9ddNv9cCQxYse3+7F6JdNTd/58bP1suej03qb7jovly61q/Ocn1Hi8W9HhLAWWm37wnl166OFd2r7l+vvTqtfYdsj73GMCyZ4+0Or2D2PaLqSTOYu7FKQaY3Mbk7OwLTaH0jOhHuhX7GDUyfQcNhtTZjxmb1jchvv5U+71F0PhfKdSDF/NUsnWetXHD3YXhXVTnsZe/ziqgZ4xq92HEoXs1papRN2nnBljdfZowHb+i00ClrjB3d+dZM9KVIc6vA2RooqRX5ACG4udPSLqMxtZc3jVv4xCjE5rjIa2xDbOv6DPba9VufnOQ/3tav5Jg1q9v1FqPqh9i6G+rnHnsVqdfbZRlvIKEj/ou+pP8t06ui45SVLWzSH3iIKPIDqQmAhYp9TtdFh5Cq50ZmDaxfYeB1W62bslXG6VipebSBk6r/Zj7qxxSkJOImxjOFnYd/QMODGctSwk511Ptum8XcG5xSofOTSvXJFiJ53WhXPevsu1IeXb8ZVhBRLrcYm34bUkYD5tMgGFVpeqtMQMuTmT344nafvTo953nIg2dWDiiPbX1pjle93DFJMOsVu7xPH7dxy5IRXbcjBD3qKEkijMc97XNH4afxHZNvXYPdpjRBRyCnxQw4GEz7G1xH2v+IQ9Jmn7htkXUjjoRJKGs0oS1l+98u2RXkYgLzGSkrf7juiA++P3lPSr7cUn9fhje5zTpLoGTMuwxPQZd+3Ug59McsjviFKFljk9li51Je2xZJoZI0nfijQw13E3FanG2FzH5Mxvi82l9Eyop+ry+HPoYhvuw2+367C34R4M2N9jzGIF5araXDV2iLh7CmdGzshFZpS0Y45q0Pk1PUtZifdru2afTeI1s2FnI6+gVNVOwAdU5e3t7Omc7ls44CMjRo3rx2j8fagPHTygfU88rm/vaVBL3F7f7MXuB/3gQ+/w9QQ9V935WVn2JohTcG3YPdRrxpjScQ6LMhZ4Y0y72N7jvOKIs/c4VFMue3kC59xaZ4kkTCw50TRRDF8ZNOmXYSqHWzPbTOJulwyoeK23j3pNubsH9nKHTp10Z8leWMyOTeI9rh7bc9acheKFVXWP2TB/+Mt65JGHtOuB+3Tf/Wa4s9j7u6kZqRuT9Ox+25rBgQ7nMMWkQ+zWLnFS/jtFVbp754P6119+RI/8+i7ttOVghtrVCSURW3dXh5O0JXF1bkTAtB3uuHhTwucwg/ObSDITxQZmWdBWKyNLwbXj11/E/ng2K/rVceyg9u3erX3H7I/GWcpbn/yQX1fsIoMfaHhcTFrmPWJ9q5ecIZ2kS9xNJtUYS9OYnPFtsdlxYyfUprtz94ZlKVxSbbrL2IZ73AViLC9whs4d1KOPPpp8+IhXPkxuUMN2N4cWKStpoxtQjhO0wxp2TvCfihM61WG/WZ57Pl9sb8ywvfhOfPc/NPq3J1zLJsFznuM+rTOHGJ04RkfF34f6cGuHupLcjmTIbEBbOYuS7xMYuYjZ8PiNe8WODoi3JEdTTL2va9GCZPsTzXqOdUqxeylcMeVoxwuzJt4DGfusZsUk+SZIFLf3OLI+pIoiu6sxqq7XJ6ktJpac9WCSs6QH2sViw6wDm6xbsYsMBkzibn9FL1/rHg4Yfat99JoAsfXc26LHk9VhZ4hdeTSk2l/eqXp7Ia4r59Vy0N7f1lvmWfcK4xMy7XayWjASh0k3ljyz1dak8ncKa7XrX9SrsjigaFeLc27hHm+ZxrMJJREr4wnKYDy33bAbiy3/J+Hvxw0TXUl2PPrWuTGkjueTrzs7THgF+mln2pafH5R7nc+gwvHngIwRixPTliT+GO2I9Q9TjBH6jjmSLnGXTKoxNs0x6ccUt8UG3Q9q4n3iVj7W3w1fjfXSc2vC7uCGEdsbVlis6qC34X61W+1xtzho63MP38tetjz5xtOMiTt8oixJUKwJKWiD9+qAelK4AXr7GfecP+d8vtjeznEX3+nQpcvOt1Zo1QQtvkl0ws5hbqn9faSIGJ0gRlMzchhufmjMeayugMrdY9c10Jf4QfMVWutNxikvDMp8LA2/2zOF5KFSwYn2ZBlJ11tuuXc4/YD633LmmOK+pKj9EktCKp7gqp6BjWH3sOGkh7RivNG9x6s2361Se270yMX+JmBPZbDjPBNLSTr4kdh4p2f09ILYRQYDYZWvN3G90taXfrUfi7vE3lv97vtO5dC1kmpF7KkfV7t06KkDam7t8E4RMPIC4zYwxkj6/qUqLrC7VIZNHZg4omerrUnl75RujrhtRNch7dvfrNbOblOyrjyzsTWGeV+n5UxaBhHv3sHxzHs5KyV5O5A6+tbZZQ/jd8v75sLZ7R0nFvUSk8l0qOcdu1CWgoVJ4iSuf5hSjNB3zLJ0jLtEqcbYNMdkyqa+LdY74G4f54fHXn9oVLmKQ15/15Ps8PXZd+Mn1Dqhzm6breQrvM3dcB+60K4W90nXqXY5iwQrdfcUbimSstjejoDZqHdmxPTo1Dlv72Rl/dhbhNjbeHhXKh33ea/nbIva7YZdbrFq17p7O5NdfOdw23nZrx0or0lyGfygqrZVOIdGcu71TCNGJ4rRlBxrlbPj2zT6NQllFKioV4W9GFTceemjzHeLJNySoahONeX2m9kjBWIn9bSp30n4AwqXjC2lwG0VWpX0F11P0HymMbfHCqiy3qtfA91qH+mcYuf8mvVQk+Q2EcEq3V1pL6BkvknXKbN2MBWxvcfZZsPHbg+MXOxvIhdPqcNeVCYrrIr6hPMgR2JjSOdNHI+KXWTQxEdFlXu4d2Lb2XlCHXaRxcWqTnZLlXhLvEOXrTE/NJl6V27rzCQWhxUZVwc2uYcv2yuOT3QOnzXTbU1MCn8ndjqH3as9po0w66Lcud5EnDbzvnYhWwYfSyiDWyq1alyhd+hEp10pWSreMj23BKNvnQGxPbA5AeUnrKNT7d1OeQcr7p78lj7TKqjQ8glqcFG1nGt5mv6me5JbVrSctleRTxYncf1DfIxMUgb0HTMk7eIuNanGWMoxmdTonu7Askl7uQRT3RYzrfbxDudH1awVFaofd+vRgIo/VuP+GD7ZtVJmWdY3DG96yjo7O/X22297j/wpWFet8uBiXe03G+pv2C1vY/VG3V5kCi7arVdb33TnjVitjbeHTTFG1f3qLxT/7MUPCrRxXUj5eUu10Dzf8dpPdcZ7S8fVbr35foEiawq0rGi9Ntq9bvkrtbqkVOs316pu28e1IedV/eK8XbhA66rLlb/4qvrNxtSY9zGSfu53AyqtWqWlOQUqKVmm3IJirY8Uafhsl94636ec0vUKBwtUtqFMBcsKtHLVem3Zdpci+SZyo+1q+nGzemKHV0xaBjFR9eaVqbpomZYsWWgC6k21PNOmcfF/sUvXVlRqdTBP4fW3aEOx+f6hYpWWV+q2rR/TxhU5zsZXy0+f0evvea+xlq9TdXm+Fl/tV3vLGSUUQUpKSkq0YsUK79HsIUZvjBhdvfF2916y3bHvNpk+XRgcLaMNK/OdeC7fWKtt1au0ZIFpkI826JnXY9lJbH1IC3PDWr9hpfJvLlTx+i3adkdE+YtM+F88rsZn20fymf7AalUVL1VOwRqtW5Gn4IrVWr9lmz5eUWAWHtbChWbtxX3WWFnr2mLll1WqLHSzCsJlqrxzm24tthl4VO3NDXq1d/T4qYtvXVPhhtXKXxZW5S0btLJgmQpXlprvcZu23rlRK8zLhi+2qOGZ18fmWdRLR6zMx8TMuwNats4tO7uR+8YLh9Q5kpklq5dRvdmfo7JIWMsKzPoyMXWzrW9xsRE926QDzT2KP/It2hvQ6ioTR8vyZA/c6Hn9Gb16Pn6Jy+rsXTz6vibmCmzMmXpcvnGL7vrYx1VTNODWy76bVHxLqZZl52nlukLlmXhYbdrm2ntMEpn7oYZNrC2Mr2Om3llO3TOtSGBcHVjp1oFjjXp25NL/Sb57Sm3NBO1JomRtQgp/py+nWLeULtPim1eO1Dv7nT5Za3/QS6x3fXp3SZk2FC3V0vBoGTj1dFNIC5PU08sdPVoca+MqR+uc7Qu33LVVH68JayBWp6bSvtG3eo/8Sd5HSSs2rFPBkqVaUerWh7KNpVr6Rqe63n5TV5ZHVGbWWziyUWWFQdPOrlZpyXpV3VmnbfUbtOS1WN2euB+etPzHrfdbdd+Xdmhr5TqVrg4rtMKsXyd2P6Z77ihTnu0az76sZ4+5bUTS79R3QUOxz702Fnflo/1DYoxMUga276TvyIS4S3C951ONsVSXT/r335EJRK1bvkRLQ6UqvDmosNn+Kc09o86LycohNm/q22KKdqrnpnWqLMxT/pqquP7DlP3Htqq2LM/Zlm5/4YCa47avJl0PKQoGg4qkcDuzebCH2jjbPnq7n8tdajvtTceJnmrQ3p8cVnvvoHKCJnhiFxYozldWtENdCbe8Scnlw3r+523qvzKs7BUR533Lw3lyL6XSreYf2Nsu2D0o+SqvtH83ouLAsPo7D6vhB6NXMU5F9Hine3l7Y6i7c4KL70TVsn+PGo60q+f9LOfcP+eCCpXlCi0ZVI9Jxhqf2Kvmj/LdMTXE6AQxmhqnjJ4+pDZTRoEi93tUrjHl8363Wl/Yp70vjb2NjqtHrS+16dLCsCK2TCPFylsYVU/bIe1/pnnsbXRea9D+Ix0auGIa05JKt/zDWbp0qkmNZ0YytHGippxaLgzqZuc1lSpfnq2hgS6daNynhlMJr7vcogNPNOjw2R5FFwRUHHHXc6XpMAJDPWo/2qgnfjD2c+F6enSqyztI+GLHyMX+JnWhWXufaNQJe9+kWH0zsREY7lfHERNnz7SaFjTB5RPqsvdQtia6JoB936ea1GrfN1Dsxpxdv6WmkzcbK11veZ/T1IiDB1vUNTBk/n6p+/c3lCpwuU3NTx1KcvunUT1H9+lQ2yVlhWN1IKSsKz1qe3m/DiStA2PNaFsTZ8p/5+RBPX/MtD9x9a6yJKB3zzRr38vu/f3j9by8V/tMnba3G7MXo3Pe09bTtmY1Ovd8TWTbuH1qOmX+xrXROmf7wvCSYfWcHz3EfGroW6dfu5p/dtj0k8PK8upDZYl7pXhb3q3P7HXL+0qO2cB2Y8T2U6tuzlL0fJe6nOWmk3lPU4eHnTtceOvXDM6V/S93m7pm+ptkbcQY7ufe97KJ1aFY3Jn+IWg+89utanoqMUYmKwODvmMGpFvcpSrVGEt1+eTaX35eh7uiGs4KqtRuM5q+K38kUCcy9W0xq/uFPXryBffK+jn5sf4jolJTBQe6zGd92qybxO2rObTgQ8ObnrIXX3xRx48f9x5hbkS046HtKg9E1fbM42qc7HzBObR161Zt3rzZezR7iNF0MNcxWqddj1QrZBrxlpELQU2vyGce0vY1AUXPNs7xxUlSQ70EbmzUYcwF4g6pm/ltsZlQVlame++913t0ffNjD3Um2hRxzxW73KX2NE2mkeGIUQAAAMxzJNQ3pLDqNq5yDtftP9cyessWIG0QowAAAJj/SKhvGCFV3lGv+q13674v7FS1vfVStF2vvcC1HJEuiFEAAABkFhLqG0ZQxRXuxQNKg9JQf7uaf9Iwcs82YO4RowAAAMgsXJQMM4oLWADph3oJ3Niow5gLxB0yBRclAwAAAABgFpBQAwAAAADgAwk1AAAAAAA++Eqob7rpJm8KmNySJUu8qdlFjAITo14CNzbqMObCXK1/4g6zLdWY85VQ5+fne1PA5OYqVohRYGLUS+DGRh3GXAgGg97U7CLuMNtSjTlfCfXKlSu9KWByy5cv96ZmV1FRkTcFIBH1ErixzVUdZvsvsxF3yBSpxpyvhDonJ0cbNmzwHgHJ3Xbbbd7U7LOHwxGjwHjUS+DGNpd1mO2/zHX77bd7U7OPuMNsWrFihUKhkPdoarK+YXjTKSksLNTg4KB6e3u9OcAoe5/CO++8UwsWLPDmzD5iFBgrHeql7aSol4A/9K2YC8QdMsWaNWtUV1enQCDgzZmaBR8a3rQvV65cUVdXly5duqRoNOrNRaaxjWxubq4KCgq0atUqLVq0yHtm7hGjyFTpXC/ff/99vfXWW9RLYBL0rZgLxB0yhU2D7QXI7PUB7GHeS5cu9Z5JzUdOqAEAAAAAyETchxoAAAAAAB9IqAEAAAAA8IGEGgAAAAAAH0ioAQAAAADwgYQaAAAAAAAfSKgBAAAAAPCBhBoAAAAAAB9IqAEAAAAA8IGEGgAAAAAAH0ioAQAAAADwgYQaAAAAAAAfSKgBAAAAAPCBhBoAAAAAAB9IqAEAAAAA8IGEGgAAAAAAH0ioAQAAAADwgYQaAAAAAAAfSKgBAAAAAPCBhBoAAAAAAB9IqAEAAAAA8IGEGgAAAACAlEn/HyPYTY7x7AdLAAAAAElFTkSuQmCC;" parent="1" vertex="1">
          <mxGeometry x="832.32" y="210" width="356.36" height="80" as="geometry" />
        </mxCell>
        <mxCell id="NqW5akh8zdySq_Utj7iF-12" value="&lt;span style=&quot;font-size: 17px;&quot;&gt;&lt;b&gt;Item&lt;/b&gt;&lt;/span&gt;" style="swimlane;fontStyle=0;childLayout=stackLayout;horizontal=1;startSize=30;horizontalStack=0;resizeParent=1;resizeParentMax=0;resizeLast=0;collapsible=1;marginBottom=0;whiteSpace=wrap;html=1;" parent="1" vertex="1">
          <mxGeometry x="1230" width="180" height="210" as="geometry" />
        </mxCell>
        <mxCell id="NqW5akh8zdySq_Utj7iF-17" value="&lt;span style=&quot;font-size: 15px;&quot;&gt;수량을 셀 수 있는 아이템&lt;/span&gt;" style="swimlane;fontStyle=0;childLayout=stackLayout;horizontal=1;startSize=30;horizontalStack=0;resizeParent=1;resizeParentMax=0;resizeLast=0;collapsible=1;marginBottom=0;whiteSpace=wrap;html=1;" parent="NqW5akh8zdySq_Utj7iF-12" vertex="1">
          <mxGeometry y="30" width="180" height="90" as="geometry" />
        </mxCell>
        <mxCell id="NqW5akh8zdySq_Utj7iF-18" value="PortionItem" style="text;strokeColor=none;fillColor=none;align=center;verticalAlign=middle;spacingLeft=4;spacingRight=4;overflow=hidden;points=[[0,0.5],[1,0.5]];portConstraint=eastwest;rotatable=0;whiteSpace=wrap;html=1;fontSize=15;" parent="NqW5akh8zdySq_Utj7iF-17" vertex="1">
          <mxGeometry y="30" width="180" height="30" as="geometry" />
        </mxCell>
        <mxCell id="NqW5akh8zdySq_Utj7iF-19" value="Food(Buff)" style="text;strokeColor=none;fillColor=none;align=center;verticalAlign=middle;spacingLeft=4;spacingRight=4;overflow=hidden;points=[[0,0.5],[1,0.5]];portConstraint=eastwest;rotatable=0;whiteSpace=wrap;html=1;fontSize=15;" parent="NqW5akh8zdySq_Utj7iF-17" vertex="1">
          <mxGeometry y="60" width="180" height="30" as="geometry" />
        </mxCell>
        <mxCell id="NqW5akh8zdySq_Utj7iF-21" value="&lt;span style=&quot;font-size: 15px;&quot;&gt;장비 아이템&lt;/span&gt;" style="swimlane;fontStyle=0;childLayout=stackLayout;horizontal=1;startSize=30;horizontalStack=0;resizeParent=1;resizeParentMax=0;resizeLast=0;collapsible=1;marginBottom=0;whiteSpace=wrap;html=1;" parent="NqW5akh8zdySq_Utj7iF-12" vertex="1">
          <mxGeometry y="120" width="180" height="90" as="geometry" />
        </mxCell>
        <mxCell id="NqW5akh8zdySq_Utj7iF-22" value="Waepon" style="text;strokeColor=none;fillColor=none;align=center;verticalAlign=middle;spacingLeft=4;spacingRight=4;overflow=hidden;points=[[0,0.5],[1,0.5]];portConstraint=eastwest;rotatable=0;whiteSpace=wrap;html=1;fontSize=15;" parent="NqW5akh8zdySq_Utj7iF-21" vertex="1">
          <mxGeometry y="30" width="180" height="30" as="geometry" />
        </mxCell>
        <mxCell id="NqW5akh8zdySq_Utj7iF-23" value="Amor" style="text;strokeColor=none;fillColor=none;align=center;verticalAlign=middle;spacingLeft=4;spacingRight=4;overflow=hidden;points=[[0,0.5],[1,0.5]];portConstraint=eastwest;rotatable=0;whiteSpace=wrap;html=1;fontSize=15;" parent="NqW5akh8zdySq_Utj7iF-21" vertex="1">
          <mxGeometry y="60" width="180" height="30" as="geometry" />
        </mxCell>
        <mxCell id="NqW5akh8zdySq_Utj7iF-24" value="&lt;span style=&quot;font-size: 17px;&quot;&gt;&lt;b&gt;ItemData&lt;/b&gt;&lt;/span&gt;" style="swimlane;fontStyle=0;childLayout=stackLayout;horizontal=1;startSize=30;horizontalStack=0;resizeParent=1;resizeParentMax=0;resizeLast=0;collapsible=1;marginBottom=0;whiteSpace=wrap;html=1;" parent="1" vertex="1">
          <mxGeometry x="1420" width="210" height="210" as="geometry" />
        </mxCell>
        <mxCell id="NqW5akh8zdySq_Utj7iF-25" value="&lt;span style=&quot;font-size: 15px;&quot;&gt;수량을 셀 수 있는 ItemData&lt;/span&gt;" style="swimlane;fontStyle=0;childLayout=stackLayout;horizontal=1;startSize=30;horizontalStack=0;resizeParent=1;resizeParentMax=0;resizeLast=0;collapsible=1;marginBottom=0;whiteSpace=wrap;html=1;" parent="NqW5akh8zdySq_Utj7iF-24" vertex="1">
          <mxGeometry y="30" width="210" height="90" as="geometry" />
        </mxCell>
        <mxCell id="NqW5akh8zdySq_Utj7iF-26" value="PortionItem" style="text;strokeColor=none;fillColor=none;align=center;verticalAlign=middle;spacingLeft=4;spacingRight=4;overflow=hidden;points=[[0,0.5],[1,0.5]];portConstraint=eastwest;rotatable=0;whiteSpace=wrap;html=1;fontSize=15;" parent="NqW5akh8zdySq_Utj7iF-25" vertex="1">
          <mxGeometry y="30" width="210" height="30" as="geometry" />
        </mxCell>
        <mxCell id="NqW5akh8zdySq_Utj7iF-27" value="Food(Buff)" style="text;strokeColor=none;fillColor=none;align=center;verticalAlign=middle;spacingLeft=4;spacingRight=4;overflow=hidden;points=[[0,0.5],[1,0.5]];portConstraint=eastwest;rotatable=0;whiteSpace=wrap;html=1;fontSize=15;" parent="NqW5akh8zdySq_Utj7iF-25" vertex="1">
          <mxGeometry y="60" width="210" height="30" as="geometry" />
        </mxCell>
        <mxCell id="NqW5akh8zdySq_Utj7iF-28" value="&lt;span style=&quot;font-size: 15px;&quot;&gt;장비 ItemData&lt;/span&gt;" style="swimlane;fontStyle=0;childLayout=stackLayout;horizontal=1;startSize=30;horizontalStack=0;resizeParent=1;resizeParentMax=0;resizeLast=0;collapsible=1;marginBottom=0;whiteSpace=wrap;html=1;" parent="NqW5akh8zdySq_Utj7iF-24" vertex="1">
          <mxGeometry y="120" width="210" height="90" as="geometry" />
        </mxCell>
        <mxCell id="NqW5akh8zdySq_Utj7iF-29" value="Waepon" style="text;strokeColor=none;fillColor=none;align=center;verticalAlign=middle;spacingLeft=4;spacingRight=4;overflow=hidden;points=[[0,0.5],[1,0.5]];portConstraint=eastwest;rotatable=0;whiteSpace=wrap;html=1;fontSize=15;" parent="NqW5akh8zdySq_Utj7iF-28" vertex="1">
          <mxGeometry y="30" width="210" height="30" as="geometry" />
        </mxCell>
        <mxCell id="NqW5akh8zdySq_Utj7iF-30" value="Amor" style="text;strokeColor=none;fillColor=none;align=center;verticalAlign=middle;spacingLeft=4;spacingRight=4;overflow=hidden;points=[[0,0.5],[1,0.5]];portConstraint=eastwest;rotatable=0;whiteSpace=wrap;html=1;fontSize=15;" parent="NqW5akh8zdySq_Utj7iF-28" vertex="1">
          <mxGeometry y="60" width="210" height="30" as="geometry" />
        </mxCell>
        <mxCell id="NqW5akh8zdySq_Utj7iF-31" value="&lt;span style=&quot;font-size: 17px;&quot;&gt;&lt;b&gt;Inventory UI&lt;/b&gt;&lt;/span&gt;" style="swimlane;fontStyle=0;childLayout=stackLayout;horizontal=1;startSize=30;horizontalStack=0;resizeParent=1;resizeParentMax=0;resizeLast=0;collapsible=1;marginBottom=0;whiteSpace=wrap;html=1;" parent="1" vertex="1">
          <mxGeometry x="1330" y="225" width="180" height="430" as="geometry" />
        </mxCell>
        <mxCell id="NqW5akh8zdySq_Utj7iF-32" value="&lt;span style=&quot;font-size: 15px;&quot;&gt;InventoryUI&lt;/span&gt;&lt;div style=&quot;font-size: 11px;&quot;&gt;사용자의 UI 조작 처리 및 Inventory와 상호작용.&lt;/div&gt;" style="text;strokeColor=none;fillColor=none;align=center;verticalAlign=middle;spacingLeft=4;spacingRight=4;overflow=hidden;points=[[0,0.5],[1,0.5]];portConstraint=eastwest;rotatable=0;whiteSpace=wrap;html=1;" parent="NqW5akh8zdySq_Utj7iF-31" vertex="1">
          <mxGeometry y="30" width="180" height="80" as="geometry" />
        </mxCell>
        <mxCell id="NqW5akh8zdySq_Utj7iF-33" value="&lt;span style=&quot;font-size: 15px;&quot;&gt;InventoryPopupUI&lt;/span&gt;&lt;div style=&quot;font-size: 11px;&quot;&gt;인벤토리에서 사용되는 확인/취소 창 등 작은 팝업 UI 담당.&lt;/div&gt;" style="text;strokeColor=none;fillColor=none;align=center;verticalAlign=middle;spacingLeft=4;spacingRight=4;overflow=hidden;points=[[0,0.5],[1,0.5]];portConstraint=eastwest;rotatable=0;whiteSpace=wrap;html=1;" parent="NqW5akh8zdySq_Utj7iF-31" vertex="1">
          <mxGeometry y="110" width="180" height="80" as="geometry" />
        </mxCell>
        <mxCell id="NqW5akh8zdySq_Utj7iF-34" value="&lt;span style=&quot;font-size: 15px;&quot;&gt;ItemSlotUI&lt;/span&gt;&lt;div style=&quot;font-size: 11px;&quot;&gt;Inventory 내 각 슬롯 UI&lt;/div&gt;" style="text;strokeColor=none;fillColor=none;align=center;verticalAlign=middle;spacingLeft=4;spacingRight=4;overflow=hidden;points=[[0,0.5],[1,0.5]];portConstraint=eastwest;rotatable=0;whiteSpace=wrap;html=1;" parent="NqW5akh8zdySq_Utj7iF-31" vertex="1">
          <mxGeometry y="190" width="180" height="80" as="geometry" />
        </mxCell>
        <mxCell id="NqW5akh8zdySq_Utj7iF-35" value="&lt;span style=&quot;font-size: 15px;&quot;&gt;ItemTooltipUI&lt;/span&gt;&lt;div style=&quot;font-size: 11px;&quot;&gt;아이템에 마우스를 올렸을때 등장하는 툴팁 UI&lt;/div&gt;" style="text;strokeColor=none;fillColor=none;align=center;verticalAlign=middle;spacingLeft=4;spacingRight=4;overflow=hidden;points=[[0,0.5],[1,0.5]];portConstraint=eastwest;rotatable=0;whiteSpace=wrap;html=1;" parent="NqW5akh8zdySq_Utj7iF-31" vertex="1">
          <mxGeometry y="270" width="180" height="80" as="geometry" />
        </mxCell>
        <mxCell id="NqW5akh8zdySq_Utj7iF-36" value="&lt;span style=&quot;font-size: 15px;&quot;&gt;MoveHeaderUI&lt;/span&gt;&lt;div style=&quot;font-size: 11px;&quot;&gt;상단 헤더 부분 드래그 할때 마우스 따라 같이 움직임&lt;/div&gt;" style="text;strokeColor=none;fillColor=none;align=center;verticalAlign=middle;spacingLeft=4;spacingRight=4;overflow=hidden;points=[[0,0.5],[1,0.5]];portConstraint=eastwest;rotatable=0;whiteSpace=wrap;html=1;" parent="NqW5akh8zdySq_Utj7iF-31" vertex="1">
          <mxGeometry y="350" width="180" height="80" as="geometry" />
        </mxCell>
        <mxCell id="NqW5akh8zdySq_Utj7iF-37" value="" style="shape=image;verticalLabelPosition=bottom;labelBackgroundColor=default;verticalAlign=top;aspect=fixed;imageAspect=0;image=data:image/png,iVBORw0KGgoAAAANSUhEUgAAAucAAAGgCAYAAAAJssmBAAAAAXNSR0IArs4c6QAAAARnQU1BAACxjwv8YQUAAAAJcEhZcwAADsMAAA7DAcdvqGQAAB4OSURBVHhe7d0LkFZl/QfwZ+WiXFdWRLwFeAuvaCprMepqammZl3C00cqZ1NTJmoYSMy+RNSZqpo3lZNaUl7w0pOSNMUUdUVYx8RKTl7wUaoqiCyIiwv45Z4+2C7u4+/xZ+W19PjO/OM9539356ivw3dPzviet0Bxp6urq2j0fYWTLG9nyRra8ka3r09DQ0O75COP1zBvZ8ka2vJEtbzrKts6K/wEAAAJQzgEAIAjlHAAAglDOAQAgCOUcAACCUM4BACAI5RwAAIJQzgEAIAjlHAAAglDOAQAgCOUcAACCUM4BACAI5RwAAIJQzgEAIAjlHAAAglDOAQAgCOUcAACCUM4BACAI5RwAAIJQzgEAIAjlHAAAglDOAQAgCOUcAACCUM4BACAI5RwAAIJQzgEAIAjlHAAAglDOAQAgiJqGhobm6jiEfv36pcWLF1erWGTLI1se2fLI1nUjR45Mzz//fLWKxeuZR7Y8suWRLc/qshXlPMzU1dW1ez7CyJY3suWNbHkjW9enukgTcryeeSNb3siWN7LlTUfZbGsBAIAglHMAAAhCOQcAgCCUcwAACEI5BwCAIJRzAAAIQjkHAIAglHMAAAhCOQcAgCCUcwAACEI5BwCAIJRzAAAIQjkHAIAglHMAAAhCOQcAgCCUcwAACEI5BwCAIJRzAAAIQjkHAIAglHMAAAhCOQcAgCCUcwAACEI5BwCAIJRzAAAIQjkHAIAglHMAAAhCOQcAgCCUcwAACEI5BwCAIJRzAAAIQjkHAIAglHMAAAhCOQcAgCCUcwAACEI5BwCAIJRzAAAIQjkHAIAgaurq6pqr4xBqa2tTU1NTtYpFtjyy5ZEtj2xdV19fnxobG6tVLF7PPLLlkS2PbHlWl60o52Gm+mEh5MiWN7LljWx5I1vXp6Ghod3zEcbrmTey5Y1seSNb3nSUzbYWAAAIQjkHAIAglHMAAAhCOQcAgCCUcwAACEI5BwCAIJRzAAAIQjkHAIAglHMAAAhCOQcAgCCUcwAACEI5BwCAIJRzAAAIQjkHAIAglHMAAAhCOQcAgCCUcwAACEI5BwCAIJRzAAAIQjkHAIAglHMAAAhCOQcAgCCUcwAACEI5BwCAIJRzAAAIQjkHAIAglHMAAAhCOQcAgCCUcwAACEI5BwCAIJRzAAAIQjkHAIAglHMAAAhCOQcAgCCUcwAACEI5BwCAIJRzAAAIoqaurq65Og6htrY2NTU1VatYZMsjWx7Z8sjWdfX19amxsbFaxeL1zCNbHtnyyJZnddmKch5mqh8WQo5seSNb3siWN7J1fRoaGto9H2G8nnkjW97Iljey5U1H2WxrAQCAIJRzAAAIQjkHAIAglHMAAAhCOQcAgCCUcwAACEI5BwCAIJRzAAAIQjkHAIAglHMAAAhCOQf4H7fOOp37q2DjjTeujgDoLso5wP+w8ePHp+OOOy7dd9996cADD6zOtjVixIg0bdq09MADD6QzzzyzOgtAd1DOAQIaOHBgddS9jjnmmPKK+Lhx49LRRx9dnW3rsMMOSwcccEBZ0k844YQ0cuTI6hEA1jTlHCCQz3/+8+nuu+9Ojz32WDr22GOrs91j8ODBZeF+37Bhw6qjtlqX8Y022igNHz68WgGwpinnAN1ohx12SJdcckmaPHlyGjNmTHW2Y4ccckjae++906hRo9Lll1+exo4dWz2y5hV7zfv06VOtUho0aFDq1atXtfqP1nvSi+f379+/WgGwpinnAN2ktrY2TZo0KZ1yyinpu9/9bvrBD37Q5kr1ytZdd9204447VqtVy/Oatnjx4vTWW29Vq5Yr6UVBX1nxvNaKfy4AuodyDtBNdt1113T44YdXq5ar6D/60Y86LNzFdpENN9ywWqX05ptvtinPa9qSJUvaFO/iinhR0Ff29ttvV0ctPqr98AD/i5RzgG7S3h7u4g2YZ511VrVqa7PNNkubbrpptUrptddeK6c7tS7exZX7Yla28pXz9p4DwJqhnAN0kw022KA6auuMM85IX/7yl6vVfxRXzVsX33nz5qUXX3yxWnWPlYt3ezrzHADWDOUcoJvU1NRUR6s6/fTT0y677FKtWrS+al5YXTEv3jD6/e9/P5199tlpq622qs62VXzayw9/+MMOPyKxsHTp0uqoY++++251BEB3U84BPiKvvPJKdZTS6NGjy4Le2sr7vVe3peXHP/5xuX+9eJPppZdeWp39j4MOOihdccUV5U2DrrrqqvTJT36yeqStzrzhtDvflApAW8o5wEfk73//e3r00UerVcvdOYuS/b7iM8Rb66icb7311ulLX/pStWq54j506NBq1aLY7976IxCLGwm1p1+/ftVRx3x0IsBHRzkH+Ii89NJL6dxzz03Lli2rzrRsbznqqKPKwr3ynTc7Kuf77rtvddTioYceWuW5K2+p2WSTTaqjtjpTvDtT4AFYM5RzgI9IsXd7xowZ6ZxzzqnOtPjJT36S9thjj1UKdEd7zgcMGFAdtWivxK+8RWblK+uFosB3pngr5wAfHeUc4CM0d+7c9NOf/jRNnTq1OpPKGxMVe8S333776kzL/vS//vWv1aqt1lfeC+3tCd9mm22qoxbFJ8GsfIOhonTb1gIQi3IO8BFbuHBh+uUvf9nminextaV1CS6K+fPPP1+t2pozZ0511GLlveq9e/de5Q2gxbaZle9OWnxsY/HcD7O6T50BYM1SzgHWgttvv738tJWOdHTVvFCU+9Y+8YlPtNnGUrxZdOWPaSyumhdX51sr3jDamU9icdMhgI+Ocg6wllx88cXpyiuvrFZtPfjgg9XRqoor54888ki1atnCUnyW+ZgxY9JJJ52Ufv/731ePtDVu3LjqCIColHOAtWjSpElp1qxZ1arFY489lqZNm1atVrVgwYL0xz/+sVq1+MUvfpFmz55d/tpaU1NTdZTS8OHD03rrrVetAIhIOQfoJu+880511KL1Z5y/7x//+Ec67bTT0vz586szKV100UVpyZIl1ap9559/fpo+fXq1at8FF1yQrr766mqV0lNPPbVKpuXLl1dHLcet1x1pbm6ujgDoDsWfsmGmrq6u3fMRRra8kS1vZMubSNn69evXfMwxxzTfeuutzccdd1zzsGHD2n1eMXvttVfzijLdvN9++7X7eHuz7bbbNl977bUrunJbf/nLX5qPPPLI8jmDBw9uPumkk5pPPPHE5hEjRqzyPf7whz80ryj55dfdcMMNqzxeTPH175s3b17z6NGj231ed4z/1vJGtryRLW9ky5uOshVvwS8OwlgRtM0VpEhkyyNbHtny/C9mW1HS09ixY1OvXr3KT3i56667qkc+3J577pkOPfTQ8pNiitv9r7zFplBshznllFPSDjvskK677rp0zTXXVI90P/+t5ZEtj2x5ZMuzumyrNPa1OSuCtns+wsiWN7LljWx5I1vXp6Ghod3zEcbrmTey5Y1seSNb3nSUzZ5zAAAIQjkHAIAglHMAAAhCOQcAgCBqqs3oYdTW1ra5aUYksuWRLY9seWTruvr6+tTY2FitYvF65pEtj2x5ZMuzumyrvEt0bY53/OaNbHkjW97IljdRs/m0lryRLW9kyxvZ8qYnZrOtBQAAglDOAQAgCOUcAACCUM4BACAI5RwAAIJQzgEAIAjlHAAAglDOAQAgCOUcAACCUM4BACAI5RwAAIJQzgEAIAjlHAAAglDOAQAgCOUcAACCUM4BACAI5RwAAIJQzgEAIAjlHAAAglDOAQAgCOUcAACCUM4BACAI5RwAAIJQzgEAIAjlHAAAglDOAQAgCOUcAACCUM4BACAI5RwAAIJQzgEAIAjlHAAAglDOAQAgCOUcAACCUM4BACAI5RwAAIJQzgEAIAjlHAAAgqipq6trro5DqK2tTU1NTdUqFtnyyJZHtjyydV19fX1qbGysVrF4PfPIlke2PLLlWV22opyHmeqHhZAjW97Iljey5Y1sXZ+GhoZ2z0cYr2feyJY3suWNbHnTUTbbWgAAIAjlHAAAglDOAQAgCOUcAACCUM4BACAI5RwAAIJQzgEAIAjlHAAAglDOAQAgCOUcAACCUM4BACAI5RwAAIJQzgEAIAjlHAAAglDOAQAgCOUcAACCUM4BACAI5RwAAIJQzgEAIAjlHAAAglDOAQAgCOUcAACCUM4BACAI5RwAAIJQzgEAIAjlHAAAglDOAQAgCOUcAACCUM4BACAI5RwAAIJQzgEAIAjlHAAAglDOAQAgCOUcAACCUM4BACAI5RwAAIKoqaura66OQ6itrU1NTU3VKhbZ8siWR7Y8snVdfX19amxsrFaxeD3zyJZHtjyy5VldtqKch5nqh4WQI1veyJY3suWNbF2fhoaGds9HGK9n3siWN7LljWx501E221oAACAI5RwAAIJQzgEAIAjlHAAAglDOAQAgCOUcAACCUM4BACAI5RwAAIJQzgEAIAjlHAAAglDOAQAgCOUcAACCUM4BACAI5RwAAIJQzgEAIAjlHAAAglDOAQAgCOUcAACCUM4BACAI5RwAAIJQzgEAIAjlHAAAglDOAQAgCOUcAACCUM4BACAI5RwAAIJQzgEAIAjlHAAAglDOAQAgCOUcAACCUM4BACAI5RwAAIJQzgEAIAjlHAAAglDOAQAgCOUcAACCUM4BACCImrq6uubqOITa2trU1NRUrWKRLY9seWTLI1vX1dfXp8bGxmoVi9czj2x5ZMsjW57VZSvKeZipflgIObLljWx5I1veyNb1aWhoaPd8hPF65o1seSNb3siWNx1ls60FAACCUM4BACAI5RwAAIJQzgEAIAjlHAAAglDOAQAgCOUcAACCUM4BACAI5RwAAIKoWTHF3YjCqKurS/Pnz69WsciWR7Y8suXpzmzFrZYPO+ywNGHChOpM17z11ltp4MCB1SqOOXPmpO22265arTmNjY3pV7/6VXrwwQerM13n90Ee2fLIlke2PB1lU867QLY8suWRLU93ZjvooIPSqaeemnbffffqTNe88cYbaciQIdUqjhkzZqRx48ZVqzWnqakpXXnllWnixInVma7z+yCPbHlkyyNbno6y2dYC0EnTp09P2267bbXiwxT/T8MWW2xRrQDoDOUcAACCUM4BACAI5RwAAIJQzgEAIAjlHAAAglDOAXqYWbNmpQsuuCDNmzevOtOx++67rzpa1bnnnptmz55drQCIQDkHCOa9995LU6ZMSWeccUZ69NFHy3Ovv/56uueee8rj3XbbLe24447pzjvvLNer88ADD3zwvOXLl5efqfvEE0+Uc8ghh6Rrrrkmvfvuu+XjAKx9yjlAAAsWLCjvIPrmm2+WV8XXX3/9tN9++6X777+/fPyyyy5L//73v9PFF19crvv27Ztqaor7yK3qvPPOSy+88EJ5vPPOO6dXX321LOXF+UsuuST9/Oc/Ty+//HJ5V9B+/fqlxYsXpyVLlpTPB2DtUs4B1rIbb7wxXXrppR/M5z73ufTII4+koUOHloX96aefLkt0cf6ZZ54pr6y/8847ad11162+Q1vF1xTlvbXiTnTf+973yrucjhw5Mu2///7l+eKHgccffzydc845H1ylB2DtUc4B1rJDDz20LM477bRTucVk6tSpqU+fPmnZsmVlyd50003LEl1c8d5rr71S796906JFi9ot54899lh51bwo94V11vnPH/PFXvUbbrihvEp+8803l1frBwwYUG6R+fa3v53GjBlTPROAtUU5BwjglVdeKbewHHzwwWnPPfdMAwcOLK+ADxo0KPXv3z+dddZZ6Wtf+1o64ogjyucXpfpjH/tYefy+v/3tb+l3v/tdmjRpUrmn/K677vpg60uxJeahhx5KJ598cvrGN77xwfcvin5xm/0NNtigfB4Aa5dyDhBAcUV73333Ld/sWZTmwYMHpzfeeCMNGTKkfLwo0QsXLkyTJ08uP2Vl5syZ6dlnny0fe9+IESPKEj9q1Kg0YcKE8vsVV9+Lq/DDhw9PJ510UvnYLbfckp566ql07bXXpq233rr6agAiUM4BAiiuaO+zzz7lcbEvfPz48eWbOIs3hr5vyy23TK+99lp59bw43mSTTapHWhRXw4ur4IVevXqVvxbbX4r96q0V21f22GOP1NDQUL4xFIA4lHOAAFrvDX9fsdVkm222qVYtli5dmv785z+Xb9588cUXq7MdK7bIHHjggdWqRfEJLsX+9qK0Fx+vCEAcyjlAUMWnsxRvBm3t+OOPL8v2xIkT0xe+8IXqbMeKgt9e8S8UV9qLrS8AxKGcA/QgxWeTjx49Og0bNqw6k2/zzTdPY8eOrVYARKCcAwBAEMo5AAAEoZwDAEAQyjkAAAShnAMAQBDKOUAXNDc3V0d0hn9fAF2jnAN00oYbbpimTZtWrfgwc+fOTbfeemu1AqAzalZMqMsadXV15S2rI5Itj2x5ZMvTndn69OmTBg0alDbeeOPqTFs1NTVtrhSvvC5u+vPWW29Vq3wrf98P82HPLz47fc6cOeXxh/0zdOT957V+/tChQ9OsWbPSokWLynUOvw/yyJZHtjyy5VldtuJP0TCzImi75yOMbHkjW97IljeydX0aGhraPR9hvJ55I1veyJY3suVNR9lqqgfCqK2tTU1NTdUqFtnyyJZHtjyydV19fX1qbGysVrF4PfPIlke2PLLlWV22VRr72hw/feWNbHkjW97IljdRs7lynjey5Y1seSNb3vTEbN4QCgAAQSjnAAAQhHIOAABBKOcAABCEcg4AAEEo5wAAEIRyDgAAQSjnAAAQhHIOAABB1KyY4m5EYdTV1aX58+dXq1hkyyNbHtnydGe2IUOGpK9+9atp4sSJ1ZmuWbBgQRo8eHC1imPWrFlpt912q1Zrzv33358uueSSdM8991Rnus7vgzyy5ZEtj2x5OsqmnHeBbHlkyyNbnu7M1q9fv/Tcc8+lQYMGVWe65o033igLfjQzZsxI48aNq1Zr1s0335yOPPLIatV1fh/kkS2PbHlky9NRNttaALqgpqa4pkFnrbOOv2YAusKfmgAAEIRyDgAAQSjnAAAQhHIOAABBKOcAABCEcg7Qw9x3333pwgsvTJdffnlaunRpdXZV559/fnryySerFQA9gXIO0IMsWrQo3X777enQQw9Nffr0STNnzqweaTF9+vTqKKUDDjggTZkypVoB0BMo5wA9yIABA1Jzc3N69tlnyxsitb7j6LJly8qb/ixcuDCdccYZ6ZZbbklLliypHgWgJ1DOAXqYE044Id19993ps5/9bBozZswHBby4il5cWV+wYEF5/mMf+1jq27dv+RgAPYNyDtBDPPzww2natGmpsbExLV++PN17771p4sSJacKECelPf/pTuvrqq9Pxxx+frr/++jR06NCynBdbXwDoOZRzgB7itddeK2+Hv8EGG6TDDz88HXzwwenoo49OF1xwQRo7dmw67bTT0q677lrOPvvsk/r165d69+5dfTUAPYFyDtBDfOYzn0n7779/mjFjxgd7zYt95eutt17adNNNyyvlc+bMKbe2FIo96EVRB6DnUM4BepiicP/mN78pt7gUBby1QYMGpdtuuy3NnTs3bbnllmmnnXaqHgGgJ1DOAXqY/v37p80226zc3lJcNW9t8803T3vuuWe66KKLys85v+OOO6pHAOgJlHOAHmbEiBFp5513TqNGjUrjx4+vzv7HEUccUd6kaPLkyeUxAD2Hcg7Qw2yxxRbl1fFiRo4cWZ0F4L+Bcg4AAEEo5wAAEIRyDgAAQSjnAAAQhHIOAABBKOcAXdDc3Fwd0Rn+fQF0jXIO0ElDhgwpb5dP5/zzn/9MN910U7UCoDNqVkyoyxp1dXVp/vz51SoW2fLIlke2PN2ZrU+fPuXt8YvJUXzdwoULq1UcxQ2NZs+eXa3WnOIz2GfNmpUWLVpUnek6vw/yyJZHtjyy5VldtqKch5kVQds9H2FkyxvZ8ka2vJGt69PQ0NDu+Qjj9cwb2fJGtryRLW86ylZTPRBGbW1tampqqlaxyJZHtjyy5ZGt6+rr61NjY2O1isXrmUe2PLLlkS3P6rKt0tjX5vjpK29kyxvZ8ka2vImazZXzvJEtb2TLG9nypidm84ZQAAAIQjkHAIAglHMAAAhCOQcAgCCUcwAACEI5BwCAIJRzAAAIQjkHAIAglHOATurTp0+qq6tL/fv3z5r11luv3fNre4p/rvbO/3+noaEhDRgwoPq3B0Bn1KyY4m5EYRR/8c2fP79axSJbHtnyyJanO7MV3/tb3/pW+uY3v1md6Zo333wzrb/++tUqjpkzZ6Y99tijWq05s2fPTpMnT0633XZbdabr/D7II1se2fLIlqejbK6cA3TS4sWL04knnpj69u2bNcUV6vbOr+3p1atXu+f/vzN27Nh07LHHVv/2AOgM5RyAbrPOOv6aAegKf2oCAEAQyjkAAAShnAMAQBDKOQAABKGcA/RAy5Ytq44A+G+inAME9eKLL6bm5vZvRfHrX/+6nPbccccdaerUqemqq65K06ZNq84C0BMo5wDBLFq0qLxh0XXXXZfOOuusDwp6cTOfBx54oDz++te/np577rn0yiuvlOvW+vXrV96NtLi5xdtvv93mKvsTTzyRfvvb36af/exnadKkSWnu3LnVIwBEoJwDBPD888+nZ555Jv3rX/9KTz/9dDr77LPTF7/4xTRw4MD0+OOPp3vvvTc9+eSTadasWenOO+8sv6b4DPHiBkIr22qrrdLLL79cPlb8evrpp5d36yxsuOGGacstt0y77LJL+b1ff/318jwAMSjnAAHceuut6fbbb0/XX399evXVV9Po0aPLX4vb/b/zzjtlMW9oaEibbbZZampqKr/mvffeS+uuu2553NqUKVPSgAEDyqvm48ePT6ecckraeeedy8eKq+133XVXecW9uGX/mDFjyvMAxKCcAwRw8sknp6985SvlNpMHH3ywvEJe3O7/3XffLQt4cSv8m266qSzp48aNS0uXLk01NTWrlPPi6/faa6+03XbbpWHDhqW77747zZw5M914443lY8V2l2LLTPF9ipI+ffr06isBiEA5BwjilltuSZ/61KfSiSeeWG49GTRoUFq4cGEaPHhweYW72Oryne98J2200UZl0S6upPft27f66hZF4S7KeGNjY/lYUfD79+9fXkkvvk9xBb3Y0nLMMcek5cuXl6UfgDiUc4AAij3nL730UjrssMPS0KFDyzdxjhgxorzKvemmm1bPSumKK65IF154Ybn9pdh7/tZbb1WPtCiuvh933HHp4x//eHn1vbgyPmrUqLT//vuX5fy1115LixcvTs8++2xasGBB+QNBsR+92FYDwNqnnAMEMHLkyDRhwoTUu3fvcn3mmWeWJbrYvtL6TZ+77757eRW8KOB1dXXlmzrbU5Ty4gr83nvvnZ566qnyXHFF/bLLLiuP582blz796U+Xe9iLN4naew4Qg3IOEFSxp7zYftK6nBdv5Hz44YfT5MmTy+JevFm0PUXZv/rqq8vPPB8+fHh5rngD6BlnnFGW9qOOOioddNBB5Taa4sp866vzAKw9yjlAUMVV8V133bVatTjwwAPT5Zdfns4777yyaBdv8GzP0UcfnY444oh06qmnpvr6+uosANEp5wD/pbbffvu0xRZbVCsAegLlHAAAglDOAQAgCOUcAACCUM4BACAI5RwAAIJQzgG6oLm5uTqiM5YvX14dAdAZyjlAJw0aNChNnTq1WvFhXnjhhTRlypRqBUBn1KyYUJeBittRz58/v1rFIlse2fLIlqc7s/Xp06cs6K3v2NkVtbW1qampqVrFsfvuu6eHHnqoWq052223XZo1a1ZatGhRdabr/D7II1se2fLIlmd12YpyHmZWBG33fISRLW9kyxvZ8ka2rk9DQ0O75yOM1zNvZMsb2fJGtrzpKFtN9UAYUa8sFWTLI1se2fLI1nXF7f0bGxurVSxezzyy5ZEtj2x5Vpdtlca+NsdPX3kjW97Iljey5U3UbK6c541seSNb3siWNz0xmzeEAgBAEMo5AAAEoZwDAEAQyjkAAAShnAMAQBDKOQAABKGcAwBAEMo5AAAEoZwDAEAQyjkAAAShnAMAQBDKOQAABKGcAwBAEMo5AAAEoZwDAEAQyjkAAAShnAMAQBDKOQAABKGcAwBAEMo5AAAEoZwDAEAQyjkAAAShnAMAQBDKOQAABKGcAwBAEMo5AAAEoZwDAEAQyjkAAAShnAMAQBDKOQAABKGcAwBAEMo5AAAEoZwDAEAQyjkAAAShnAMAQAgp/R8I2vb0r3AT+QAAAABJRU5ErkJggg==;" parent="1" vertex="1">
          <mxGeometry x="-610" y="120" width="500.1" height="280" as="geometry" />
        </mxCell>
        <mxCell id="NqW5akh8zdySq_Utj7iF-39" value="" style="shape=image;verticalLabelPosition=bottom;labelBackgroundColor=default;verticalAlign=top;aspect=fixed;imageAspect=0;image=data:image/png,iVBORw0KGgoAAAANSUhEUgAAAQoAAADeCAYAAADFE05EAAAAAXNSR0IArs4c6QAAAARnQU1BAACxjwv8YQUAAAAJcEhZcwAADsMAAA7DAcdvqGQAABFFSURBVHhe7d0JbBTlG8fxF2hpTSsglPsop1wB5D4UEERAkUNiVKDiDRoBETAajQEF1BiiohgEjQfxSKhQFAEFFAUR0UiUS4qAgECgXAZaaqHl/c/zOLv/Fqa+vRDYfj/Jk33nndnZGpnfvu/stm8ZY4z1CgDyVdZ/BIB8ERQAnAgKAE4EBQAnbmYCEaJMmTJm4sSJ5s477/R78tqwYYMZN26c+fvvv/2ewpGgoCjqMq9bb73Vnjp1ym7fvt3u2rXLZmRkaB05csR6IaH7Zs6cGfhcVzH1ACJExYoVjbVWH9u1a+f3GjNq1Cjtl6pWrZrfWzgEBRBh4uPjzcKFC83o0aPNihUrTEJCgmnWrJm/t2gICiACde7c2VSuXNk8/PDDZsaMGX5v0REUQASSacbKlStNlSpVTGpqqt9bdAQFEIFGjhypI4k1a9aYpKQkc+bMGX9P0RAUl4nhw4eb6Ohof8stJibGREVF+VsoTRYtWqQ3NHv27GnKly+vgTF27FjdJyONojrvoxDq0qr69et7/3+t3blzpy1XrlzgMbkrLi7Oeu8gNj093U6bNi3wGCryqm3btvbkyZPhj0XPLfn3MGrUqMDnFqACO6mLWC+//LJ98MEH8/TNnz9fw+KVV17J039ulSlTRh/lH8TZs2f1OePHjz/vOCoyq3HjxrZ169aB1a1bt/C/jyJUYCd1ESsktF27dm17yy23aN/q1avD/d6w0k6YMMHOmjXLzp07V79ok5OTY+vVq6f777vvPn3Oxo0bw8+hqCJWYCd1ESukZs2aNisry9/6R+6g6Nu3r9+bl0xVZH/Lli11+8CBA+HnUFRRipuZl5gRI0boY2Zmpt542rp1q9m0aZM+Cm/EoI9i+fLlpk+fPmbw4MFm/fr12rdz507z3HPPmb1795rNmzdrX1xcXKFuhAJBAhOE+u/rrrvuyjOC2LFjh42KitJ9Xbp00b6UlJTznlerVi3dJ2Saca5jx44V6CYoReVXjCguEVOmTDHz5s3Tj7OmT59uVq1aZRo1amQeeeQR3Z+dna2Psj+3q666yqxbt87fMqZ58+YmMTFRf5OwRYsW2nf27FktoDgCE4T6b6t///42NTXVtmvXTrc7deqko4tt27bZ3bt3W28qoqODoUOHhp9To0YNe/z4ce1fsmSJTU5O1vbixYt1f6tWrXSbexRUCVRgJ3WRa/ny5XqRCwmM06dPa1s+/QgdI590yKccb731Vrhvzpw59oknnrBffvmlBs+JEyf08/XQfooqYgV2Uhe5rr76artv3z6blpamH3uG9OjRI89xVapUybMdHR2tX7rJ7Y033shzDEUVoQI7qYtc69ev9y9za7Ozs/Xil2lG0LG5S/4wiZAvaMn0RUYc8nz5tmbQ8RRVkOJm5iXqhx9+0MelS5fqbwDWqVPHLF68WL/D/2+8qYY+1q5d21SqVEnbGRkZxpu+aBsoqsAEoS5uJSYm6shAyHf0Q+RLVkHHh0qmHvJ7HrklJSUFHktRhajATuoSKPl+/tGjR/ViL8wveMlXvmfPnm290Yi9/fbbA4+hqMIUf4UbgBP3KAA4ERQAnAgKAE4EBQAnggKAE0EBwImgAOBEUABwIigAOBEUAJwICgBOBAUAJ4ICgBNBAcCJoADgRFAAcCIoADgRFACcIi4oEhIS/Nb/rVy50lx77bX+lpss+it/xfpCk2X/ZEnAC+X+++/3W0DxRFRQVK9eXVf4/umnn8zPP/9sKleurP2vvvqqSU1N1XZBXHHFFSYmJsbfujA6d+5stmzZYiZNmmT27dtn4uPj/T0lp2fPnn4LKL7z/uLu5Vrly5e3M2bM0Ha1atXspk2btF21atXwMZMnT7bffPONHThwoG7XrFnT3nDDDbpOZ+iYPn362EaNGoW3e/furecLbZdEyTqh8teypS1riJYtW1bbsup406ZN8xxb1FqwYEFgP0UVtiJu6iGjAZGWlma8ENC2DME7duyo7W7dupnrr79eF9QRTz75pOnXr58ZOXKk+eyzz7RPpgShx99++8107drV/Prrr8a7mE10dHSeRXgOHDhgoqKi/K2CGzNmjPGCzHzyySfGCwpdbVzO/8cff5g5c+aYF198UY/zQsN4oaJtMXv2bH1877339OeQxX3kZwjZs2ePTrUyMzMvyCgFpVPEBUWFChX00RtdmPT0dG3L0D4uLk7bck/giy++MJs3b9ZtubBWrVplHn/8cdOwYUO96L3Rg4ZEYmKiWbFihZk+fbrZv3+/PsrFLO0QeY3s7Gx/q+AOHTqkU6OJEyeaadOmmfbt22sgPf/88xpkHTp00OMkRH788UdtSzC0bNlS27Ii2Lp16/S/5/vvv9e+du3amXfffdd4IyJtAyUl4oJCAkEu8tdff93cfffd2nfw4EETGxurbbmp2b9/f7NkyRLdlqCQi03eueVdXS76K6+8Us8hJcEh5zx58qQZN26c9j3wwAM6+pB3+rVr1+p5Cksucgkdef2UlBTToEEDvYG6Y8cO3S/7hPzscuGLp556yjRp0kTby5YtMx999JE5ffq03uuoV6+eji569Oih+7dt2xZeXhAoCYFzksuxvIvaesNwXe5/9OjR4X7vIrS9evXStqwMLvcxvCG+bnfv3l0X//3ggw+sN1TXPnlu48aN9X6Bd0HqgsHNmze3bdq0Cd+r8N717ddff227dOmi24WtAQMG6M/gBYb95ZdfrBdk1gsou3HjRuuNcPKs8CU/8+rVq60XfrpaWExMjK527o2CdL83tbJeUGhbFimW83lTJvvoo4+Gz0FRxazAzsu2vHd8raB9Ut47ta1Vq1b45qEs2zdp0qTzjvm3c4QqKysrsL+gJa8j4XZunwRU7j6poL78Kui8FFWciriph7VWKz8yvZCbf/IoDh8+rI+5yb78ziHDfSHftZg1a5a2iyo01clN+nJycvyt/wvqy0/QeYHiypMcpa3kI9Vhw4YF7guqe+65xx46dMju379fVw4POoaiIq1YpLgI5Obn8ePH/S0g8hEUAJwi7h4FgJJHUABwIigAOBEUAJwICgBOBAUAJ4ICgBNBAcCJoADgRFAAcCIoADgRFACcCAoATgQFACeCAoATQQHAiaBAqVG2bFkzduxY07ZtW78HBcVfuEKpUK5cOV10SdZokXVlv/rqK3PjjTf6e+HCiAKlwmOPPaaLN8kyi506ddLV2GQVNhRc+C/tUlSk1q5du+xtt90W3k5JSbHPPPNMnmOo/IsRBUoFWbJxzZo1/pYxixYt4l5FIXCPwnf06FG/VTKqVKnit3ApkAWdZFHo0DILsp6rN6IwPXv21G24nTfMKI1V0oJeg7p4lZ2dbWvUqBHeHjx4sE1OTs5zDJV/MfVAqfD777+bXr16+VvGDBo0yGzcuNHfQkEEJkhpq5IW9BrUxStZClJGFfXr19cV6HNycmyTJk0Cj6UCK7Cz1FVJC3oN6uKVrO7+7bff+v93rJ06dWrgcVRwcTPT5/3b8VslQz6zByIF9yj+Q967milfvrx+SxC4nBAU/wEJhmeffdZkZWWZzMxMc+zYMdOhQwd/L3DpY+rhu5BTj7lz55qkpKQ8ryHh0bFjR7Nlyxa/B5ers2fP+q3IRVD4LlRQxMbG6ggi6Pwbf/3VfPLRR/4WLkfy/3XOe++ZjIwMvycyMfW4wOSXkPILoarVqvktXK7kDaFHt27+VuQiKC6wEydO5Ds03btnj9/C5Srj1Cmz8ptv/K3IJm93pb5KWu5zP/3009Ybmuap48eP2zp16uQ5jqIu4QrsLHVV0nKf2xue2qFDh9qdO3fatLQ0u3btWlurVq08x1DUpVzczPT9c22XHL5whUjCPQoATgQFACeCAoATQQHAiaAA4MSnHr5du3b5rZLRsGFDvwVc/ggKAE5MPQA4ERQAnAgKAE4EBQAnggKAE0EBwImgAOBEUABwIigAOBEUAJwICgBOBAUAJ4ICgBNBAcCJoADgRFAAcOIP1xRBgwYNzLBhw/ytf+Tk5JiPP/7Y7N271+8BIosEBVXAioqKsunp6fbUqVPn1Z49ewKfU5SS1cWk2rZta+vWrWvj4uJsTEyM7d69u5bsmzJlSvjYMWPG2KVLl9qBAweGz9GqVSublJSk+6dOnRrup6jCFlOPQpIFh70LT1cWC5X0rVmzxiQkJPhHFU/VqlVNjx49zDXXXGMSExONFxCmXLlyJisrS19n0KBBZvz48aZ9+/Z6vIxwFi1aZAYMGGDOnDljYmNjTaVKlYwXMGb+/Plm8uTJ2q5du7YeDxQWQVFER48e9VvGLFu2zLRo0cLfKj4JoqFDh5o77rjDeCMYc++994b7ZcrzzjvvmJYtW5ry5ctrvzeSMZUrVzb9+vUzO3bsMKdPnzYZGRmmb9++pnfv3ua7777TQMvMzNTjgcLiHkUhlS1b1pw8eVIvzq1bt+q7uWjWrJk+elMEfSyOatWqmY4dO+rrSABs3rzZpKWlGW/KYTZs2GCaNm2qx8lrz5s3z7Rp0yb8c4ht27aZLVu2mMaNG+u5hATZ22+/rW2gKM6bj1D5lxcU1nu31tq+fbt9//33w9tSQc8pbMl9EO/it61bt7ZDhgyx3gVvK1SooPtmzpypP0N0dLT98MMPtU/2y+roUnL/Ij4+XvvlOG/KouWNQsLnp6giVGAnlU/JRexNO/KEQ6hSU1MDn1Oc8kYWejMzdPF7IwebkpJik5OTbfXq1bVPAkL6pBYuXGhjY2PznEPq+eefP6+PogpaTD2KoE6dOmbgwIE67w+R9qeffmoOHjzo9wCRg6AA4MSnHgCcCAoATgQFACeCAoATQQHAiaAA4ERQAHAiKAA4ERQAnAgKAE4EBQAnggKAE0EBwImgAOBEUABwIigAOBEUAJwICgBOBAUAJ/5mZhHI2h6yfoesyhUiK3nJAjuyahgQaRhRFJKs1iXL9x06dEgX6AnV4cOHzZw5c/yjSp687r/JvV+CTILL9RygoBhRFJJchBIM55K++Ph4rZIk647edNNNuhLZ7t27TXp6uvn888/NkCFDtF/2T58+XVcFk6UN5biGDRuaVatWmddee82MGjUqz7ICQFEwoigBEhLr1q27IO/gsjBxo0aNzLFjx0zNmjU1KISMah566CEza9YsHT1IgIkjR46Ym2++2UyYMMHs3buXkECJICiKaPXq1RoQciG/+eabuiDwhSAhIIsNyeJCCxYs0BAQEgwy1YmOjtZ7IzVq1DD16tUzL7zwgo4y6tevr9svvfSSHg8UB1OPQgpNPXJycsz8+fM1KEaMGKEXrCiJRYpzk1FK3bp1dTQhF39ycrL216pVS0NAph0yakhMTNSpR/v27c11112nxzRp0sSMGzeOG6woNoKikCQQ/vrrL23LBXrixAlTsWJF3ZZ39oSEBG2XFLnfEFqRPERWUZfXDalUqZLp2rWrBoWExJ9//qn9w4cP1zCRUAOKS4KCKmB57/B26tSpNi0tzaanp4fr8OHDdsKECYHPudDljXICFyamqJIqRhRFJFOC3DcKz90GIglBAcCJTz0AOBEUAJwICgBOBAUAJ4ICgBNBAcCJoADgRFAAcCIoADgRFACcCAoATgQFACeCAoATQQHAiaAA4ERQAHAiKAA4ERQAnAgKAE4EBQAnggKAE0EBwImgAOBEUABwIigAOBEUAJwICgBOBAUAJ4ICgBNBAcCJoADgRFAAcCIoADgRFACcCAoATgQFACeCAoATQQHAiaAA4ERQAHAiKAA4ERQAnAgKAE4EBQAnggKAE0EBwImgAOBEUABwIigAOBEUAJwICgBOBAUAJ4ICgBNBAcCJoADgRFAAcCIoADgRFACcCAoATgQFACeCAoATQQHAiaAA4ERQAHAiKAA4ERQAnAgKAA7G/A+iV9NEXtP34wAAAABJRU5ErkJggg==;" parent="1" vertex="1">
          <mxGeometry x="-389" y="458" width="266" height="222" as="geometry" />
        </mxCell>
        <mxCell id="NqW5akh8zdySq_Utj7iF-40" value="" style="shape=image;verticalLabelPosition=bottom;labelBackgroundColor=default;verticalAlign=top;aspect=fixed;imageAspect=0;image=data:image/png,iVBORw0KGgoAAAANSUhEUgAAAQsAAAD3CAYAAAAKcnGEAAAAAXNSR0IArs4c6QAAAARnQU1BAACxjwv8YQUAAAAJcEhZcwAADsMAAA7DAcdvqGQAAA/1SURBVHhe7d0JbFRV38fxf6EbKSibyGJYq7KIhMomRqCKSlQ0GDWiFQkKxAVcwOiLMSqCr4lEJaINaJSA4vOISiMiq4L0RQSCSgtKBYoYqFAQFChlKT3vPYc7fVq48PxpZ2qn8/0k/8w9594ZqjC/nnPvnTlxImK8AoBzquM/AsA5ERYAVAgLACqEBQAVwgKACmEBQIWwAKBCWABQ4aYsIArExcXJuHHj5J577vF7Kvrhhx9k7NixcvToUb8nMmxYUBRVg2vIkCHmyJEj5tdffzX5+fmmqKjI1b59+4wXFG7f1KlTA58brmIaAkSBCy+8UIwx7jEtLc3vFRk1apTrt9WsWTO/NzIICyCK1K9fXz7//HMZPXq0LF26VJo2bSodO3b090YWYQFEmd69e0vjxo3l4YcflilTpvi9kUdYAFHGTjmWLVsmTZo0kby8PL838ggLIMoMGzbMjSiys7MlIyNDTpw44e+JLMKiBrj33nslISHBb/13SUlJEh8f77cQS7KystxJzv79+0tiYqILjTFjxrh9dsQRaWdcIqGqr9q2bev9HRuzbds2U7du3cBjyldKSorxfpOYw4cPm0mTJgUeQ9W+6t69uzl06FDZJdPTy/57GDVqVOBzw1iBnVSE6vXXXzcjR46s0PfJJ5+4wHjjjTcq9J9ecXFx7tH+oygtLXXPeeKJJ844jqqdlZqaaq688srA6tu3b9m/jwhWYCcVoQoJtVu1amVuvfVW17dy5cqyfm+IaZ566ikzbdo0M2PGDHczzsmTJ03r1q3d/hEjRrjn5OTklD2HoiJcgZ1UhCqkRYsW5tixY37rlPJhceONN/q9Fdlpi93fpUsX1y4oKCh7DkVFsjjBWY3uu+8+91hcXOxORv3888+Sm5vrHi1v5OAerSVLlsjAgQPl9ttvlzVr1ri+bdu2ycSJE+X333+XjRs3ur6UlJTzOjkKVEVgilDhrfvvv7/CSGLr1q0mPj7e7evTp4/rmzdv3hnPa9mypdtn2SnH6fbv3686MUpRVS1GFtXgxRdflFmzZrlLXZMnT5bly5dLhw4d5NFHH3X7S0pK3KPdX16jRo1k9erVfkukU6dO0qZNG/cJxM6dO7u+0tJSV0B1CEwRKnw1aNAgk5eXZ9LS0ly7V69ebpSxefNm89tvvxlvWuJGCXfccUfZc5o3b24OHDjg+hcsWGDmzp3rtufPn+/2d+3a1bU5Z0FVYwV2UhGsJUuWuDe6ZUPj+PHjbtteFQkdY6+A2Ksf7777blnf9OnTzTPPPGMWL17swufgwYPu+ntoP0VFuAI7qQjWZZddZnbu3GkKCwvdJdGQfv36VTiuSZMmFdoJCQnuxpzy3n777QrHUFQEK7CTimCtWbPGf6sbU1JS4gLATjmCji1f9stNLHsTl53K2JGHfb69qzPoeIoKZ3GC8x/w/fffu8evvvrKfXLwkksukfnz57t7/s/Fm3a4x1atWknDhg3ddlFRkXhTGbcNRFpgilCRqzZt2rgRgmXv6Q+xN2IFHR8qOw2xnwspLyMjI/BYiopABXZSES57P/+ff/7p3vDn86Ewe3t4Zmam8UYl5u677w48hqIiUXy7NwAVzlkAUCEsAKgQFgBUCAsAKoQFABXCAoAKYQFAhbAAoEJYAFAhLACoEBYAVAgLACqEBQAVwgKACmEBQIWwAKBCWABQISwAqERVWDRt2tTf+o9ly5bJNddc47f+O7vQsP127EizSwza5Qcj5cEHH/S3gOoRNWFx8cUXu5XF161bJ+vXr5fGjRu7/jfffFPy8vLctka9evUkKSnJb0VG7969ZdOmTTJ+/HjZuXOn1K9f398TPv379/e3gOpzxrf41sRKTEw0U6ZMcdvNmjUzubm5bvuiiy4qO+aFF14wK1asMIMHD3btFi1amOuvv96tCxo6ZuDAgaZDhw5l7euuu869XqgdjrLrktpv4bbbds3SOnXquG272vnll19e4djK1meffRbYT1GRqqiahthRgVVYWCheELhtOxzv2bOn2+7bt68MGDDALdpjPfvss3LTTTfJsGHD5IsvvnB9dnoQevzll1/k6quvlg0bNoj3hpaEhIQKC/0UFBRIfHy839J77LHHxAsz+fTTT8ULC7fKuX397du3y/Tp0+XVV191x3nBIV6wuG0rMzPTPc6cOdP9HHYBIfszhOzYscNNu4qLiyMyWgHOJarC4oILLnCP3ihDDh8+7LbtMD8lJcVt23MEixYtko0bN7q2fXMtX75cnn76aWnfvr1743ujCBcUbdq0kaVLl8rkyZNl165d7tG+oe12iP0zSkpK/Jbenj173DRp3LhxMmnSJLnqqqtcKL3yyisuzHr06OGOs0Gydu1at23DoUuXLm7brjy2evVq99/z3Xffub60tDT54IMPxBsZuW2gukVVWNhQsG/0t956Sx544AHXt3v3bklOTnbb9kTnoEGDZMGCBa5tw8K+4exvcPvb3b7xGzRo4F7Dlg0P+5qHDh2SsWPHur6HHnrIjULsb/xVq1a51zlf9o1ug8f++fPmzZN27dq5k6pbt251++0+y/7s9s1vTZgwQS699FK3vXDhQpkzZ44cP37cnfto3bq1G2X069fP7d+8eXPZUoZAdQqcn9S08t7YxhuSm7y8PDN69Oiyfu+NaNLT0922XZHcntfwhvuufe2117oFhz/88EPjDdtdn31uamqqO3/gvSndIsWdOnUy3bp1Kzt34f32N998843p06ePa59v3XLLLe5n8ELD/PTTT8YLM+OFlMnJyTHeSKfCSmL2Z165cqXxAtCtSpaUlORWWfdGQ26/N80yXli4bbswsn09b/pkHn/88bLXoKhqqsDOGlneb35XQftseb+xTcuWLctOKNolAsePH3/GMed6jVAdO3YssF9b9s+xAXd6nw2p8n22gvrOVkGvS1HVUVE1DTHGuDobO9WwJwTto7V37173WJ7dd7bXsEN/y96LMW3aNLddWaFpT3m27+TJk37rP4L6zibodYHqUiE9alPZy61Dhw4N3BdUw4cPN3v27DG7du1yK5YHHUNRsVosjHwae0L0wIEDfgtACGEBQCWqzlkA+OcQFgBUCAsAKoQFABXCAoAKYQFAhbAAoEJYAFAhLACoEBYAVAgLACqEBQAVwgKACmEBQIWwAKBCWABQISxQK9SpU0fGjBkj3bt393sQbnxTFqJe3bp13cJOdg0Yu47t119/LTfccIO/F+HCyAJR78knn3QLRNklHXv16uVWfbOrvSH8yr69l6KisfLz882dd95Z1p43b555/vnnKxxDVb0YWSDq2eUhs7Oz/ZZIVlYW5y4iICbC4s/ExLAWah67LmyIXdy6SZMmfgvhEhNh0TjMhZrFruhmT2yG2BOdhYWFfgvhwjQEUW/Lli2Snp7ut0Ruu+02ycnJ8VsIl5i4dGrCPHWIKzfkxT9v+PDh8t5770lqaqq7CrJq1Srp2LGjCxGE1xlnPWtbeWER1gr6M6h/ruyq8t9++60JefnllwOPo6pWjCwqgZEFYhHnLMLE++0miV4o2bsJgdqIsKgiGw4vvfSSHDt2TIqLi2X//v3So0cPfy9QezANqYTy05AZM2ZIRkaGeFNlv+dUgPTs2VM2bdrk9yBalZaW+lsgLCohFBbJycluJFE+KEJyNmyQT+fM8VuIRvbvdfrMmVJUVOT3xDamIVVgP7gUFBTWRc2a+VuIVvbDaf369vVbICyq4ODBg2cdpv6+Y4e/hWhVdOSILFuxwm+BaUgllD9n8dxzz8mECRP81in2cwpdu3aVnTt3+j1A9CMsKqF8WNih6pAhQ+S1116TBg0auLsG77rrLikoKPCPAGoHwqISuCkLsYhzFgBUCAsAKoQFABXCAoAKYQFAJSauhuQnJPhb4dH+xAl/C4gdMREWAKqOaQgAFcICgAphAUCFsACgQlgAUCEsAKgQFgBUCAsAKoQFABXCAoAKYQFAhbAAoEJYAFAhLACoEBYAVAgLACqEBWqFiRMnunVn169fL1dccYXfi3Cz35RFUVFbXbt2NaWlpWbEiBEmNzfXFBYWBh5HVbkCOykqamrhwoVm9uzZZe0DBw6Y9PT0CsdQVS++gxNR7/Dhw24h6u3bt7u2nZI0b95cRo0a5doIj9g4Z9HwaHgLNUpKSor8/ffffktk7dq10r59e7+FcOEEJ2oFu5p9yPHjx+XkyZN+C+FCWCDq/fXXX9K0aVO/JdK2bVvZtm2b30K4xMY5i3BPHf5K9jdQE8yePVsaNmwogwcPdu19+/ZJRkaGLFq0yLURHoRFZRAWNYo9P7FlyxZZvXq1tGvXThISEqRVq1ZygpXjwoppCKJefn6+dO7cWX788Uf56KOPJDU1laCIAEYWlREwskhOTpb4+Hg5evSolJSU+L1A7cHIooqSkpIkKytLDh06JPv373eX8EaOHOnvBWoPRhaVUW5k8eWXX0p6errfOsVexrv55pvl/7Kz/R5EqxIuwZYhLCrDDwt7M9DevXvdB5hO9/OmTfKvWbP8FqKR/Xud/e9/y959+/ye2MY0pArseYqgoLAaNmrkbyFa2RFiWrdufguMLCrDH1nYE5q7d++WevXquXZ5SxYvlqy5c/0WolHRkSOS5U0zmYqcQlhURrlzFsOGDZPMzEy/dcoR7x+ZvXxX/vMKQLRjGlJFs2bNkgEDBkh2dra7MWjOnDnuxiCCArUNI4vKCLjPAqjtGFkAUCEsAKgQFgBUCAsAKoQFAJXYuBpS73/9jTAp/h9/A4gdsREWAKqMaQgAFcICgAphAUCFsACgQlgAUCEsAKgQFgBUCAsAKoQFABXCAoAKYQFAhbAAoEJYAFAhLACoEBYAVAgLACqEBQAVwgKACmEBQIWwAKBCWABQISwAqBAWAFQICwAqhAUAFcICgAphAUCFsACgQlgAUCEsAKgQFgBUCAsAKoQFABXCAoAKYQFAhbAAoEJYAFAhLACoEBYAVAgLACqEBQAVwgKACmEBQIWwAKBCWABQISwAqBAWAFQICwAqhAUAFcICgAphAUCFsACgQlgAUCEsAKgQFgBUCAsAKoQFABXCAoAKYQFAhbAAoEJYAFAhLACoEBYAVAgLACqEBQAVwgKACmEBQIWwAKBCWABQISwAqBAWAFQICwAqhAUAFcICgAphAUCFsACgQlgAUCEsAKgQFgBUCAsAKoQFABXCAoAKYQFAhbAAoEJYAFAhLACoEBYAVAgLACqEBQAVwgKASpxX5tRmbBk6dKj07NnTb+F8rFu3Tj7++GO/hVgRs2HxzjvviDEx+Z9eZXFxcfLII4/4LcSKmJ2GEBSVx/+72MQ5CwAqhAUAFcICgAphAUCFsACgQljUAAUFBVJaWuq3Ku+PP/4Iy+sAQQiLalBSUiK5ubl+60zx8fEydepUv3V2Ngjef//9s166TExMlMzMTL8FhJPI/wMzzQrmvgfm7QAAAABJRU5ErkJggg==;" parent="1" vertex="1">
          <mxGeometry x="-390" y="680" width="267" height="247" as="geometry" />
        </mxCell>
        <mxCell id="NqW5akh8zdySq_Utj7iF-42" value="" style="shape=image;verticalLabelPosition=bottom;labelBackgroundColor=default;verticalAlign=top;aspect=fixed;imageAspect=0;image=data:image/png,iVBORw0KGgoAAAANSUhEUgAAAcMAAAD7CAYAAAAW2P+qAAAAAXNSR0IArs4c6QAAAARnQU1BAACxjwv8YQUAAAAJcEhZcwAADsMAAA7DAcdvqGQAABY9SURBVHhe7d0JdFxlGcbxL0n3fV+h+4bKYkEQtQgCR6CgWGUpRVFAlsMRq1Q8KMoiQqFuoAKKheLxiAWLgIhaqQgWFGRR0NJ9pyvd96ZN/J4396aT6SSZpANt5/3/zpmTOzdJM1vvc99vuyUzZsyoDAAAOFaafAUAwC3CEADgHmEIAHCPMAQAuEcYAgDcIwwBAO4RhgAA9whDAIB7hCEAwD3CEADgHmEIAHCPMAQAuEcYAgDcIwwBAO4RhgAA9whDAIB7hCEAwD3CEADgHmEIAHCPMAQAuEcYAgDcIwwBAO4RhgAA9whDAIB7hCEAwD3CEADgHmEIAHCPMAQAuEcYAgDcIwwBAO4RhgAA9whDAIB7hCEAwD3CEADgHmEIAHCPMAQAuEcYAgDcIwwBAO4RhgAA9whDAIB7hCEAwD3CEADgHmEIAHCPMAQAuEcYAgDcIwwBAO4RhgAA9whDAIB7hCEAwD3CEADgHmEIAHCPMAQAuEcYAgDcIwwBAO4RhgAA9whDAIB7hCEAwD3CEADgHmEIAHCPMAQAuEcYAgDcIwwBAO4RhgAA9whDAIB7hCEAwD3CEADgHmEIAHCPMAQAuEcYAgDcIwwBAO4RhgAA9whDAIB7hCEAwD3CEADgHmEIAHCPMAQAuEcYAgDcIwwBAO4RhgAA9whDAIB7hCEAwD3CEADgHmEIAHCPMAQAuEcYAgDcIwwBAO4RhgAA9whDAIB7hCEAwD3CEADgHmEIAHCPMAQAuEcYAgDcIwwBAO4RhgAA9whDAIB7hCEAwD3CEADgHmEIAHCPMAQAuEcYAgDcIwwBAO4RhgAA9whDAIB7hCEAwD3CEADgHmEIAHCPMAQAuEcYAgDcIwwBAO4RhgAA9whDAIB7hCEAwD3CEADgHmEIAHCPMAQAuEcYAgDcIwwBAO4RhgAA9whDAIB7hCEAwD3CEADgHmEIAHCPMAQAuEcYAgDcIwwBAO4RhgAA9whDAIB7hCEAwD3CEAeNsg0bQvcJE0Lp5s3JHgAoDMIQB41e3/xm6PTAA2HwSSeFsHt3shcA9l3JjBkzKpNtHKRKdu4MZRs3htLt20PZmjWhybp1oWzVqtDq9ddDuz/8IZTs2BG2Dh8eFv3qV8lvHLwOe+97Q6isDNuHDQsLpkyJT74k+Q4ANB5hWAQGn3BCaPL228m9WpSWhlkvvhgqWrdOdhzAYtXXZPXqsKtHj2THHm2eeSYcetVVtr30rrvCplNOsW0A2BeEYRFo9+c/h64//KFVgKXbtoWKli3Djve8x+63fuEF+5nyXr3C3Keftu1CabZgQWgdA3bb4YeH7arY8tT+iSdCm2efDSXl5cmemNXxcZfEyrbZkiVVwV5RETafeGJYcvfdyU/sMfCMM0KzhQvD7g4dwuzk+cEf9R+vHT06lB9ySLIHaDzCsIh1/dGPQpef/9y2V199dXj7iitsuyE0WKXzAw9Y8CmkVLE1W7p0rz67t6+8Mqz+0peSe3WorAwDzjorNJ8/P9mRQ0lJ2DFwYHjr+98POwYPTnbu0eqVV0Lfz37Wtt+cMcO+4h0WT05K48lV2LUrlCQ32dW1q319t7WdNi0cEj9v6z/1qbD8u99N9gKNRxgWqSbLl4fBp55qBzGpLCsLq669NqxNQiRf3WIgdZ44MblX0+aPfSy0+etfbXvnoYeGebFCzYcqwo6TJ4fut95q99dcdllYc9FFFoJ6nJXNm4fKZs3se7U5LFa+MvcvfwnlvXvbdr5avPlmOOSqq6yPNVtl06ZWWatZWd9XtVr1jfjfRLfEmksuCWu++MXkXnHpPn586PDoo1UnPPE5l6TPXZ+ljPuV8TVacu+9YcuHP5z85runy09/GrrG29ZjjgmLfvnLZC/QeIwmLUJNly0LA+IZcxqEUhIPbN1vu81CpP+551rTaj5TFFZdc01YFCvDRZMmhflPPBFmvfyyVWO6LfnJT8LSeEASTXtIq4X6KHDKu3VL7sW/MXZs2N2xozV7VrRtW28QZrJqpYGaLlkSmq5YEcrWr9/rZpXv4sXWDNsk82fi89MgpfTWfM6c5F/bv/RY+n/606HJypXJnn2j97BTDBd9NtR0bScE8TXWIC2rCBWQSShWtGsXdvbvn/zm/lF9sgLsIyrDItPyv/8NfS+4oDqY5j/5ZNjVqZOFn8JQB7VURYsWYfaLL1o4NVav664L7R9/3MJs9nPPxaNzWfKduvWJ1WDr6dNDeawo5+ZZUWZKK0M9vx0DBth2Q7R89VULuYr27e21Kt2yxUbi9rzhhuQnQth67LFhU6x+s8N5Z79+YcsHP5jc279UxSm8FseTlS3x8e4rVe3DjjzStrcfcUR4a8KEUNGqVahs0sQqwczRu5WxglYlvz+kleH2oUPDgt/9LtkLNB5hWAziWbqqwR633mqjLUUV1tynngq7O3e2+ykNXFHzpAaqaGTprH/9K/lO7XSAVCWlaqHpokWh1RtvhOazZlUPzhGFxtJYKeZryIc+ZGEkiydOtD5CHWgV1k1iKLX//e9Dm2nTwpaPfCQsv/lm+7lM+xqGtelx442h48MP27YGHGng0YFsUHzd9d4svv/+ggS0Xv9hRx1l2/OmTg07D9DBKWkY7ozv/bz4GQD2FWFYBPpeeGFoFSud1K4uXcLCyZPDrg4d7Ow9l6bLl4fdsSrSWX9dmqxaFQaedVYo3bQp2ZMlVgZrYyW6aty4BlWYfS+6KLTKI4gVkvNjMGZLw3BeDHxVaoWieZm9v/Y12579/PNW8b4ben/1q6HVa6/ZiY3el40jR4a1n/ucVe+1UZPlkOOOC6Vbt4Zlt98eNsT3aV+p2XVIEqoH8uCk6jDs0yfM+9Ofkr1A49FnWAzUfBWpGlw9dmyY89xzobxnz9DrW9+ys3z1g2XT9+sLQums/qMkCNWkqcEuy8aPD/Mff7yq7zBWiSuvu67BTa2LHnwwbBkxwh7H7k6dkr1VtG/d6NFhYazQcgVhJhvsUkC79rESVJOrRjr2jUE2+KMftcqt5/XXW7WbiwJt6Ac+ENrFA7r6/XTyof5IjQQeOnx4dfVcQ0VFKFu7NnS5+24LQul8333WFK5A1a3lv/9tfX0NpX/3YGB9l6LBPEABUBkWAR2Amy1aVNXUmKHHTTfZqM1NJ58clv74x8nehsms4N7JSkHh0erll22+4oJHHkn21i6tDDWgJ59Qz5cG1wz6+Mdtu6GVoZor+44ZY1V3Np0sLHj00b3eI01b6TZhgm2v/fznw5bjjw9t/va30PGhh2zfhrPPDsuSUbfS+h//CL2+8Y28Bsysje/dyq9/PbmXHzV997n0Utsu5PutwThd77rLPks6gXn78sutCbwuCvre11xjTfJqqtf7rH7cdRdcELrcc09o+/TTDRrFDNSFyrAIaHBD9kFWdHAVVSqNPYPWKMqU+iVTNugkHqzK1q0LLWIlo4pmX87SVQ2KBvvkoupUoaEDdY+MeWU2qKOAKtq0iU+uEUu8xWqt/6hRVUEYH9PG008PC3/967AsPlYNwNHBvE/yfmRqmZxoaI7mymuvDZtjtbwiVvRz/v53m7Kg7Uya6mKvdRZNR1HLQHrbHW+N6UNUM2lKFare49puuSpPvU9qjeh+++3Jnvgc//OfMPToo0OnBx8MLWLAap5oOoCqNs3nzQtDjznG+rh1kqHKWv3cHaZMsdGzCkKgkKgMi1xaQb31ve+FjWecYdsN0fn++0O3+LsmhoT6aEQT8DUCs1r8ni33pjCpQ7P586umVsQz+kyDTj01NH3rLev/m//YY/YzaupTldQ23qqnMpSVWWBov8x89dVQWUe/WkMp/DW4R8HekMqwxy23hI4x/ESjGzXKMdXxN78JPW6+2QJrZgyCtFlb+saAbPXSS2HFt78d1p1/frK3bk1jVagpBT1jUKqaVh+xqqNCNBm3e/LJ0DuGcj70d9WMrT7OlAJrYKysd3XvHuY880zV6OYLL6waxRw/I2ql0KpFCs0dgwbZdJ1s+p6amDWtQ6vLLL/hBvtcKRS73nmnTXtJURmiUKgMD2axGlHfSc5bPPho2kOq97hxFoy13YYcf3yNKjC15uKLw0Y1G+oAHgNCzbGah6eDsSrSXZ0724T5RRMn1huE7Z56Kgw880xrhsz8u/qqIBQd6FRZaEHufmPGhC733WdBqCH8Gz7xifBmrDI0v7FagYf2N/bMsMPkyfZ1fQy0zCAULYBgMuZ9pvT6iZoQ7fXPo7ouj0Gzs29fW31FFNiF7jutVzLyNzMIZXe7dvZZUTOuWhL6nXuu/Zyep5q0tZ6sqmVpPndu9RSgTF3uvdeCUH3Jc6dOtQp525FH2udQA6Y274dJ/ih+VIYHKfUbKVzsjLsAVLXMidVW9sEtpYC1fqp4QFclpoObmsrUnKUqQAfo+qipS82czWK4leQIhmzVfUTnnRe2xGotc5COAlQK3Y9ZGgNpaAMrQy1VN3DkyKo7MZx1crD16KPtObb74x/tfZJcVw7RfMd+sXJK6e9te9/7bIUbPfe6tI8VqC5rpSXrNKCpEDIrQ/VXpnMXrRk2Bq7CTiGlUa65FlKXofF3Mhd0yPX40vdvzvTpezWNDzrlFAvSZbfdFjZ88pPJ3prS36cyRKEQhgcphUrmPL+9xDP38niwUlApuNQnp6+6r4OZbjoI2cE+nsnbMmix0quLDnA1qr94sB94+ul2Fj/n2WeTnXmIv2dhGANWoyWbrF0bKpo1qzrgtm5ddWUNPSZVo7plUTAPO/xw2z4QwlB9X+oDq4uWjLPFBXI8Hy1akFnFp/R+qe+wNu90GL75v//Z56ihBsQKXlWfaFUhnWRlL1ww7IgjrCpcfsstYf2oUcneKmnQLXzoIasIc1H/bIuZMwlDFAzNpAepxb/4RdXUhtpu8UA2d9o0G8ShkaQrYyW55vLL7Wx/8wknWPWhCeU626+IIVRfEOpgPfS440LL119P9sTjZAw0u8rE6tXV0y/yoqDTiibx7yqctx92WNg5cKD1Dyl8dOC0x5MrCMvLrRlNFPYHgswl4bT4gK7iob5P9a/qYK7l5mwuXI7nI6p+9J6pr1ELnqsJVFRJ62SjVum/l0fTaqM0IghlUzIaVzSiNTsIRUEvLRS42ZK/mwZqLtVzSwvcTA6/CMMip34oHVQaFFY5aGi8DrrpkH+TeRCuJ0zzob7IlIbTa1BKn4svDoNPPNEGtWg+nkYYasK1aEBF5gjX/SWzWtaVNrTggfq2FICqbjQ3M59ly9TXqFGl+t0VseITvSa1TaPY1a1qfdcaA5kOAJvi+5WqbQWbdACVmtmzpUHXadIk+5pLWrHvr+XgUHwIw2IUQ6pzrBw1CEUDVNRspapu8IgR1r/VGBr5Jxoan9JC1qlcw/3VDKah+rkGSWTrfscdYeBpp9m6mFpr85Crr7bRma3/+U/7t9WcqgrDJuhnVCz5NGM2lsI2HzZgJnlMbWtpLtaVMjSIKXvyfXoNxxriv6W5dHZ5pPhe5lo0QdKrdWg6x4FwUpDKvLZlbUGd9jdqPdhsG848074qKDUNIxfNBzWEIQqEMCxC/c87L3T7wQ9qVm6RDsQDRo2qMZcsX5rmIKoyta0DVf/Ro22f9Dv/fBtSr8EPGhavJb2GHHusVXS6X5/VydXrrRn0Zz8LK2NltCBWWAt++1tbI3R2DMXZ06fbJZs0mCb1To6irKuZLpP6xTafdJJta1m1dhmr5mgKii4X1f8zn7GBNM1nzky+U6XH+PFhwMiRNtAmkwYnpavBqDk5F/WXpYNPrA8to8mxtBHvcTataLOvavuspY871/fXXHqpvabS5wtfCB3iZyCTpqK0SeYo5vX+76557U0gFwbQFJl2U6eG3mPH2nbmBX1trtt3vmMBqYncWu6sLqpGdGv52mt24NHk50aJVY5dWUDXx6tHh4cfDj1vvNG258VwSPvOsqWLfG876ijrEy0khcjQWE3rdVp5/fW27mq+7KLFOZr9UlpxZXFyseWUqmBdeUI0albvS9nmzeHQyy6zQNTIXc2lrE3r558PfWq5rqL6YhdMmZLcy0/m5ycf6nvWsnnZhr3//TYpf/WXv2yrzWTrPGlS6HbHHWH7kCFhwWOPJXv3UNNwOjirBlXgGSd5y2+6Kaw/55zk3t50Eei0uiz0OrYoLlSGRaZjPLiKgiLzyvaa0J1egaG+YNMEcfXTqZrRai+5fl7THnbEA9nmWPXpAK7rHi69886wMIauJs1rMrUOPlonNZ8glE26GHEyKKT57Nn2NZuq23Q+5LoxY+xrIVXG55X2Q20aMcK+5mvhI4/kvHiyrt24JFa72UEoeg5pk6GWzhtw9tk2SV1BKCvHjbOvtdEcPPVRKlSy6b1pqM0xsDWZPl97NfEmVl95pU0lWRc/Q7loBOn6+D29LrloYJVaBBS2NWQEoRaRqCsItXRdZjOrRp8CtaEyLDKa0K7+FFUZKzKuzSc609akeY1w1MCO2qiK1CRwzTnUwXZ7PCCpSts2bFitV8EoFDWpqiLVVRt0Lb1smtzeM1YDomZT60M8QCnQ8l03tfdXvmIr7aiassUMunYNS+65x0449hc18erEQ49JFZpd8zFWzqWxKk/7gnWSZX2b76QYgC3feKNqIv/y5TYNZ9Npp1U3pdZG/aha2Ui/X980FYAwLDLpHC9b6kpzz5KBHTqQ2RJX8QCtqRVLkukJB5r08WuCvR6jKgNtl5aXW5OtmvCs6Sw+r1kvvVQ1J7FIaMSuwkcBaiu5YJ+lLQmFvOYlihPNpEVGl0USBYrWvVTfmtavVJNn2vTWmOazd0t6tm8LW19yiY2CHTZ8uF2379ArrtjThxTP9rVIeDHRYBDNnSQIC0cVIUGIfFAZFhk1aQ06+WRb1SUXVVJaQLm+dUT3l5avvBL6Jf1uuvqCplNUaBk2TdJXlatbWZn1R2lx68wl2gCgsQjDYhSrpv7nnFNjTqCJITLrhRcsZAAAexCGRUzz1FokozI1ACa9ZiAAoCbCEADgHgNoAADuEYYAAPcIQwCAe4QhAMA9whAA4B5hCABwjzAEALhHGAIA3CMMAQDuEYYAAPcIQwCAe4QhAMA9whAA4B5hCABwjzAEALhHGAIA3CMMAQDuEYYAAPcIQwCAe4QhAMA9whAA4B5hCABwjzAEALhHGAIA3CMMAQDuEYYAAPcIQwCAe4QhAMA9whAA4B5hCABwjzAEALhHGAIA3CMMAQDuEYYAAPcIQwCAe4QhAMA9whAA4B5hCABwjzAEALhHGAIA3CMMAQDuEYYAAPcIQwCAe4QhAMA9whAA4B5hCABwjzAEALhHGAIA3CMMAQDuEYYAAPcIQwCAe4QhAMA9whAA4B5hCABwjzAEALhHGAIA3CMMAQDuEYYAAPcIQwCAe4QhAMA9whAA4B5hCABwjzAEALhHGAIA3CMMAQDuEYYAAPcIQwCAe4QhAMA9whAA4B5hCABwjzAEALhHGAIA3CMMAQDuEYYAAPcIQwCAe4QhAMA9whAA4B5hCABwjzAEALhHGAIA3CMMAQDuEYYAAPcIQwCAe4QhAMA9whAA4B5hCABwjzAEALhHGAIA3CMMAQDuEYYAAOdC+D/PrkGWABco4gAAAABJRU5ErkJggg==;" parent="1" vertex="1">
          <mxGeometry x="132.19" y="130" width="215.62" height="120" as="geometry" />
        </mxCell>
        <mxCell id="NqW5akh8zdySq_Utj7iF-43" value="" style="shape=image;verticalLabelPosition=bottom;labelBackgroundColor=default;verticalAlign=top;aspect=fixed;imageAspect=0;image=data:image/png,iVBORw0KGgoAAAANSUhEUgAAAgAAAAFJCAYAAADtx5XDAAAAAXNSR0IArs4c6QAAAARnQU1BAACxjwv8YQUAAAAJcEhZcwAADsMAAA7DAcdvqGQAACwNSURBVHhe7d0LfF1lne7xN7RNL9k0TXpv6L1RJMIgigwyzFQBx0FFx4PKDM5RRx3FeperyFVBqYg6XkYdx9HjZZhB8YzgWEdk6giHQ/CgHEw6kt7Tpk2apkmbtEla2vk/b9eim83eO3uvZsNK3t/389kmK0123r224f+8l/WuqtbW1iOuQvr7+10mk4mO0oW2JUPbkklr21paWlxTU1N0lC68n8nQtmRCbFvVXXfdVbEAMDw87Kqrq6OjdKFtydC2ZNLatq6uLjdnzpzoKF14P5OhbcmE2DZGAFKItiVD28rHCEAytC0Z2pZMpdp2QvQRAAAEhAAAAECACAAAAASIAAAAQIAIAAAABIgAAABAgAgAAAAEiAAAAECACAAAAASIAAAAQIAIAAAABIgAAABAgAgAAAAEiAAAAECACAAAAASIAAAAQIAIAAAABIgAAABAgAgAAAAEiAAAAECACAAAAASIAAAAQIAIAAAABIgAAABAgAgAAAAEiAAAAECACAAAAASIAAAAQIAIAAAABIgAAABAgAgAAAAEiAAAAECACAAAAASIAAAAQIAIAAAABIgAAABAgAgAAAAEqKq5uflI9PmoGxgYcDU1NdFRutC2ZGhbMmltW1tbm2tsbIyO0oX3MxnalkyIbatqbW2tWADo7+93mUwmOkoX2pYMbUsmrW1raWlxTU1N0VG68H4mQ9uSCbFtTAEAABAgAgAAAAEiAAAAECACAAAAASIAAAAQIAIAAAABIgAAABAgAgAAAAEiAAAAECACAAAAASIAAAAQIAIAAAABIgAAABAgAgAAAAEiAAAAECACAAAAASIAAAAQIAIAAAABIgAAABAgAgAAAAEiAAAAECACAAAAASIAAAAQIAIAAAABIgAAABAgAgAAAAEiAAAAECACAAAAASIAAAAQIAIAAAABIgAAABAgAgAAAAEiAAAAECACAAAAASIAAAAQIAIAAAABIgAAABCgqubm5iPR56NuYGDA1dTUREfpQtuSoW3JpLVtbW1trrGxMTpKF97PZGhbMiG2raq1tbViAaC/v99lMpnoKF1oWzK0LZm0tq2lpcU1NTVFR+nC+5kMbUsmxLYxBQAAQIAIAAAABIgAAABAgAgAAAAEiAAAAECACAAAAASIAAAAQIAIAAAABIgAAABAgAgAAAAEiAAAAECACAAAAASIAAAAQIAIAAAABIgAAABAgAgAAAAEiAAAAECACAAAAASIAAAAQIAIAAAABIgAAABAgAgAAAAEiAAAAECACAAAAASIAAAAQIAIAAAABIgAAABAgAgAAAAEiAAAAECACAAAAASIAAAAQIAIAAAABIgAAABAgAgAAAAEiAAAAECACAAAAASIAAAAQICqmpubj0Sfj7qBgQFXU1MTHaULbUuGtiWT1ra1tbW5xsbG6ChdeD+ToW3JhNi2qtbW1ooFgP7+fpfJZKKjdKFtydC2ZNLatpaWFtfU1BQdpQvvZzK0LZkQ28YUAAAAASIAAAAQIKYAUoi2Fdfb2ek6H3jADT78cPQV+z+yPYYnT3bVQ0NHv5AyaW1b94IFblZHR3SULqWes+z/gGUuvNAtX7kyOqoc/kaToW3JVKptBIAUom3F/f7uu92L77jDzerpib5yVG99vZuR87W0SGvbHrRiec7atdFRuiQ5Z7877TSXufPO6Khy+BtNhrYlU6m2MQWAMWewutrNtMKg5Jr9OJxznKZHmtuW1keSczb38cftfwGUggAAYPw4ohgAoBQEAADjhtaCACgNAQAAgAARADD2MMwLAMeNAAAAQIAIAAAABIgAAABAgAgAAAAEiAAAAECACAAAAASIAAAAQIAIAEBCT1ax7xyAsYsAgHGve9Ik9+WGBnfXnDnRV47ffXV17vqlS93ds2dHXxn/9k2Y4A4ReoBxgwCAcW/ohBPcE9Omub896ST3BXuMhprDh93jmYz79rx57uf19dFXxy+FqMtXrHDXLF/u1k+dGn0VwFhGAMC41zA05FZt3+6WHzjgfjBnjvuH+fOjf0nu7L4+d0lnp+uxwvhgbW301WffVxsa3CeWLPG3zq2kWQcPukY7f/93+nT36cWLXWd1dfQvxW2dMsV9x0LSnokTo68ASAsCAMaVg1VVbtvkyW5nToF63v797sPt7a7eCtmPZ81yG8roxe4oUOz+tKfHLR4cdFusyKnQVVKbtTe3HT+dOdN9b+5c9+/19e4n9poq4YezZz9VvD+6dat7pb3m30+b5r5rv7cUCgyaelFbj4fu/qApiM12nn994ol+Cub71obvWrgAkAwBAGOSCsut1hPVkLQe1y5b5u5YuNBdsWKF//ybeXr5f9Df787au9f32lVQc7XW1LhHrbj8worLP1vR0roBPd9V9rht0aLou46ZaWFi3vCwL8y5gaMUmpL4+oIF0VFhj2Uy7qalS93XrT2FVGJu/rf2exWWNMKgYKXf8Nrubld76JB7zM6TCvJIei089Nv3TSjzBk5aW/FPVuA/Z+/pzfb7r7L3+Gp7fNze2xvsXOh8/J2djyeYjgASIwBgTFKP+34r1A/U1vrH76x477IiPNEKjQr9H/f2Rt95zIETjv3ffX9O8brHCp2KvELFZ+3jl6w432kFSEFjU9TDH8z6+di0J5/0z9VT5hC3CrYCh4qc1hIU87h9n0YZcn/Hn+3e7T64bZv7aHu7e/mePdFXR8/pdh417P+InYNvRkFF0yizLfjst3Oxt4TX3DF5sg8P9RYaSqXzsmbmTD+yoSCgNRYP2Xs8YOdZges8e63v2b7dfXLjRvc+e/0AkiEAYEx6U1eXe3dHh/98uhWX6zdvdh+zx+3r17uPWEF8WV+f+z9WNH5mxUND0Jorv9l6jSoqoqCQTVMEL963z13Q0+P+orPTXb51q3u/FZeThob8v59vRWfK4afPtG+34qaipGcq95JALUzUQz87Med5c7Vb8ZcFVvxyXWzn4fW7drkZZRRYUbBR736j9aDvtWL7rXnz3C3W0/5QY+PTrpZ4s52LRYODfthdRf9ECzw63/oPh9pfjIp/PNKiERIFqVKcMjDgC7uKvD6Xd+zY4W61gv+pDRv8+3uptetPLOTNsTACIBkCAMashVaY1AM/14q9ireKU2yd9SK1Qv/vref6Iyt0v7IwoGIUF+qpOUX3+RYAPmBFR6Hir3budK/r7vY9fq0nUJhQD1tD2f9RV+enFzQsfcvixa7ZCqlMHqGI59J3q2esIDJSdIgX3On1jpZf2uvQFRG/nDHDD6XfbUVfoygq7i+xcxnTCIDOjYLK7kmT/NcmWZvV/pFesQJYvDZCCwE1VaOhfC3C1FRLvhGV2Gn9/e4F9nvjqY0lGnmwAKRxG61J+K9p0/wIkNYoDJcZvgAcRQDAmKUFYSrk6r3narKe4wVWtFXI32K9xcussF9pvXoNa0tubz6Xhpy/YeGhzgqiRgTUw9bogRa/PWxFX73bI1mFZ+TZ8KcbtuKnMKK58dzRiGwKHSp4ChjxaEQ2LWZUES/XG7q63JIoULzNAs/q9evd59va3M2bNrmlVmyzac5fZ0ujHaJ2H7ZHsXUHe+17f24FWl5g78XpFip0zhUyvmUBQJcUKgz8S9ZoQy6NOGgNgejc6+oD/cxHo5/97MKFPpD9xsIEgPIRADBmaV5chVlD1PloeFy9+Qt373Z/1NvrXrp3ry9mkok+5qNe65esV6yyvMyKYTyy8If285p3V6C4assWvyr+j/r6fK95atboQylURDWErj/AYgvkVAA11z7Niqfmv3NpDYHWK5Q6vB6rtfbq99cdPOjOtXNzsoWouXmeXwscNdXRHxXieOSicIuP+rH1zDWXv9TeG02lrN6wwd1k4eKy7dvdKyyY6X3QKECLfU8heyZN8gs2RQshNY2gsPQ8e0/0HBfv2uXeYu+vFnYCKB8BAGOSCug2K3p9UWHKtcsKh3qbuVS8aqz4FRoB0Fz3jUuW+BCggvv/7FgjAeppL7AeuIqOCqYK2wqFAytkCgjZ0w+l0LC1imi1taPYCMA+e31avKjfMydPgdZPaii90HkoRNMhClAaztd6gHtnzfKXFKrQ/m/7XMP1WnWvh0ZD1IbJ9r1xcNHv1c/mo8Kv55KLurvdqdE8vi6ZfI0FKAWBazdv9lMuWr9QiBY9apRBAesKC1ta53Gd/ezVFr60+PHtO3b4UAYgGQIAxiSVbz20Q51f4GdFWx8/tXixv0zs+mXL/FBz7q51GrpWb1o7+eX6gfVab7Ofb5s2zS8wu9GKzausYOkqg+vsOTWnnUvFUOsQyg0AKp0+BESPQvT6VAQ10pFvoZ+mQHyv3NpRjvi8dFmvWlc9aDhdewloWmWDvX6tO1CoUAhSWFJQ0TRE3PtXi/O1WsP2WiOhqQtdMqhRmHy0zuCN9m8viqZk8okvMzxkz6kpEwUCre341YwZ7iczZ/rLKD9jbS/3CgwARxEAMCap96m5+VOtgGiIXAVNxUur2lXU1Gs8p6/P99JjKlwq0xr+V9GOqdCstkKi6+w1zKzCdYMVf60j0OZB6sVqJb56xrlUJBUmNJRejrhgKwQUiw6aAlCvWzvx5ZOx16FCXF78cP6SSdFrVNC5bcMGvw5AayY0tfG5tjb/UC9dawWm2+/R71JYUQjQ78y38PF2O49aI6FFfFpbcDx06aCmRxQqtOmPgsqXreh/wwKG9mlYW1fn2idPdoNRUABQHgIAxizNv99hRUvXg2uI+B0dHX5uPi5of54zvBwvXNMIgAJCTCv9NR+tYXZdfqbFgvHwtr5Xz/1BCwIqatkUCvSz8TRAOTTsr7Klnm2x3rt64iqz+eb/JQ4yI12SlyteXKe267p6rY/IXmSoOXr1/PW6fMG39moUYCgq/lrzoKmUbJpS0HoBhTJdqpdvyqIcapMux/zLKOgpzDXZRwU7revQ2oKP2futqRkA5SMAYExTkdJVAJpn1iVr8bx8PvHlYurJVkcFXnS5mQqN9hB4c4Eha7/gzApRNl2KpkKqHQHLpVEIFVAV12K7CGpUQ8EleyQjm16//oiPvZrSxGsgfhutcdDWumtnzPBb9mrEIaaCr98/xc6XevwKLPpdCkbZoyiiOf73bd/uPmEBTBsGjQatGdDCQW12pLl/ffwbC3qX2PukSzMLBSMAIyMAYFzRAjRt3atd/HJpvlzX+WuIO5fmpLWwrxy6QkBD5vl2HRyJhrd1eZxoTjsfjUooZChgnBx9by4VYRVkFeZyaBW99k4QXUuvuXRt+avh9eybG8UjC+rxKxb4BYAWCBReskNUTD31cgKR1jj8/0zGv28Anl0EAIwrumxNe9g3W/HMVxQ15z2/jF6jNpvRMH8+6uVqGPrMrI1zyhGvYF9TX/+MwKLXoGKsKQCFjIUFhrkValSYs3vtpdDmRp9dv96Hl3daKNIwu0Y/tMNedqCJe/zxcL8CgMZXsqdQ8tHIhqYDdFXBAxZwtH7iKw0Nfq2Frue/celSf58FXWWg6/r1USFAgUdXXigYiEZttAGR3gMtAFQo0lUJGq3QLo/awll3eNRVB/9r3rynNh4CMLKq1tbWckcPS9ZvvYGM/QcgjWhbMmlo22P33OMuuuqq6OiYPVYQ9u3f7z7Y2OgLiObytaAvKRUkXVGgfQZ06ZqmDpJS2+p6eqKjY3TVwr9Fd8rTnfa0CY/WFmj/fV3K+EILLNr+ttBWv7qETwX1XVbEX717d/TV0j24cqU7Z+3a6OiZ1llB1pURWv+geX1dCaEb9ChAaIFkTFdO6BJKLYrUudfKfF3Hr02MtIFQvl3/4isbNLqgRY56/niXwJn29elTp7rDFq60RkJBQKFCn2sdhz7Xx+zPta7iNRZiLrz//ug3VA5/o8nQtmQq1bYJq1atujH6fNQNW0+rusj85nOJtiWThrZ1PvGEe/5990VHxwxawZhnBUMr3LXBjHrR2jSmIav3rB6p5rmLXX4W0xC3hqe1ql3XwJfyM4WobVPzzItrFEC91s3279prQHPyT1gx1TC7FrtpzrvYfvcHrLiqp32KBZ94Z79ytC9Z4hZt3hwdPZPOwQ57ft0LQRsFqTev7Y/PtnZnL4rUTXu+Zz1wFW+9Du2UqKKsqQ5NregGTS+192Zlb6+/34Lm9vV4rT20udKr7GsKWAoLCg5aF9Fn7+Gg/bxGHzTXrzUGGgnRyIvWfeg1a+3HGfbcGoV5mbXpZdbOqssui1pVOfyNJkPbkqlU2xgBSCHaVlyxEQD1slUQNZ+tEKBeoVa5q4epa9NVoLSwTcPfpRTMh6zY6SY5uirgOiuUZ+QZ7o97n8UUGgGI6br2TVY41UZdUuiLWjRFUEkjjQDk0oiIhuhv2bjRF/WYRgo0OqDzoEsG9Rp0zvXQ3QPLvR2whvx1zuZYONDPn1Diz2sMpL+19ehBBfE3mgxtS6ZSbatqbm6uWAAYsHReY/8RTiPalkwa2rbu/vvdeatXR0fH7LUCNN16zaJL0tQrjW/WE1OB0vbAGm4vlebnVaBVzNRb1c1xNOysoXrtqKd9BFZt3/7Uyvp8stuWJo+edZY74+GHo6ORab5dr1J3Y6y0JOdMqxf2r1lz9KCC+BtNhrYlU6m2MQKQQrStuJFGAGIq0hq+1xC7LtfTZWwaxs/Xix+JFrBprl5z3PUWBOINcbQYTpcf/vWOHf6qgEJGGgF4rpQ7AvBsSnLOGAGgbUmF2DauAsC4pWF7bRakFe7vtR667imfpPiLfl4bAmkufNngoHuRPY82GtLiOy02LFb8ASCNCABAiXR/AG0RrPlvXRWgDWkUCEa6JA4A0ogAAJQpdwc8ABiLCAAAAASIAAAAQIAIAAAABIgAAABAgAgAAAAEiAAAILV05z/d9Q/A6CMAAKNAd7vT/vUPWMEqdH//YrSP/hdPOsndunix+/zChf4uf3Du3pkz3ZftvNw1Z070FQCjhQAAmG/Nn+/vJ69b8BajLYW/P3eu+6Z9v25de4cV62uXLfP3tP+4ffxqQ4P7eV2dv29+qb62YIG/P77uPLh5yhR3v/38TXb8nwmCRK7DVVU+VNy8ZIm/095Yc3Zfn7+l8A9mz/Y3IQIweggACJ5u5qOb+vy9FeIrrZD/ftq06F+eScVZtxP+Ryv+Cg2tNTW+2NcdOuRvUavdAv+is9Pfd6AU99nzfdeCx+n79rl3dHT47YZ1syKNKPxyFAKA7qKnLZF/Xl/v/nmUetH/bs+lNv+t9cxvs3DxSQsXX7DPR6O9uXTL4Iu7uvzthe9jKgAYVQQABKOrQO/+xCef9PcJ0L3511sQUDFTKMjnDbt2ubfa98b3wr/Eir22BdYWwR/cts1dasX7BRYEStVmYUN3Efwf9rz6/bqx0Ku7u/0dB3VP/NJiRHFnRbcV1u2Rj5eKvIblNcqh+flHMxnfM9ddAv/FHoXOW1K64VLTwID/D5VuzazABWB0EAAQBBWua5cv9/PJ+ehmPldu2eJeasVynRWZn1mRK+Q0K0i7ozChIvjlhga32nrCqxct8r3hT9nnGsovhUYK1NvvzyqcCgUbLIjUHzo0Kn+giwcH3dzhYddtbe6yUHE8NMLxVgs5H2pvdzdv3Ohu27DBh59TLRDpNeydODH6zqfTiIlCQrYn7HVqBES3Wv6vaNTlcTv3GmHR6IqmWDQVomChIKRz3j55sv8+AMePAIAgLBwacoesN3mnFZMfzp4dffXpZh886O8eOMMKrxb0FaLpgu3Rv+t2wyrYO6ywqkAdsCI44cgR/xylOMXChGhIXdMLmvfXOgKFAt1xcDSoLdOffNLtsDZvzAkmKqy6xbGG2Ev1YmuXbqus0YolFi5Ot89PsvNbaNpjv50TjRKooOu1fdte65UWxq6whwr8py0waf2FAsE/LFjg1yx8b+5c/zMq+DqnMT0XgNExYdWqVTdGn4+6Yet1VB9nj6NSaFsyaWhb5xNPuOffd190dMygFeY+K3TqbWpYfZ61NaY5+rlW4B+xgq2C93LryU60Qp1LhbDZvkf3/FdvN58HrEj/2r7nvD173Ie2bXNv3LXLXbh7t/9+3W54uRVFFcRsatvUPLcM1vdpDYGuAnjUCp4+aqGhbjWsnvZo0LnQvL1Ci0YmVFi1JkBf22QF+Af27woeCkjlTF/EtHBS7d5n7V5p50BhI5vWICgc6Pc9nsn411llXz/Fftcie/1brU2z7HxfbK+5357jFfYcF/T0uLPtPF7U0eH+zM6tApECgqZJirVRZ3h41aqjBxXE32gytC2ZSrWNEQCMK+rlao5ai9N+a8Um20useKywIrzeCkmhIfphKzQqyCo4hcTz3Fpgd8C+r8eKlorgJnvOx+x3/pv9/t/k/O5iLtu+3X2gvd3P1auNWkuwyr6W6zdWOOOh8nJpikMjHCqwml5ot7busv+g6CqBGfb1Biu2mmsfye9qatwtdm6vtt77dcuWuestQHxu4UL3H3V1bm80+pGPXpueX4Hn/fb67li/3t28aZNf+6ARivintKbiNd3dPkyp0GuEQe3W+yJPWnsBjA4CAMYVDZur56yhY80lZ9PlZFVWoDRX3WMFO5dGBjS8P9JCNk0n1FgvV73oa6wQXr5ihb8MUB8VPLTeYLM9Tzleb0Xv2s2b3fX2eKX1fvdbwVOg0GiE5s51GZ+GzDW6kcRHLWB81oru9VZ0r9myxf+u6+yxcs8ed8vGje4G+1xXMYxE6yPW2Hl90Hr8mvZQr19D9OqZX2DPlT3qki1j56vWCv1U+3iqBYH4+6oPH3aT7KHRGL1n6yzgaJRGeynoPN45d65ftxFvBqTvBzA6qlpbW/NH9lHQ39/vMmX0hJ5NtC2ZNLTtsXvucRdddVV0dMweKxJ1Vjw7rTCpMGvI+z3Wk9YQuFbUq7ho0Z56qX/T0eF77xpuVy9Yn2tUQPP5cq71QG+1wliIeviPWY9cC+sUKFTA4iKn3nbu9EHctrtnz/Y98Drr1U6zdmloXL1ajTjoOn0VfvXS++xzPXevPRRcVPjOtiL7qt27/TqF0fLgypXunLVro6ORxYvzFFLebedwpr2OQr3+XDdZiNHoixYQah2BaMRECycbLXwoGGj0RudCPZNpFjaG7P9vWrioqwFEweVV9rsL2W2P/tbWowcVxN9oMrQtmUq1jREAjDta8T7THiqm2qhHm/aox6oevsRz1DstIGyxoq+etopMjRXZ+VHPNN/6gGxaBPe2HTvc5Vu3uhutV/1xK0wqbG+3rxVaOyCax75n1izfs9XCN/Xov2MfdazNbvRv6vlqXrzW2qmrEt5phfb2DRvcJy2QlFP844WKhajQ6qGet6YWNDev363etlbmx+crm0ZQVPB1ZcEcO1elFn/R5ZbDVsjjDYm05kCBS+FMey9oSkXn7lx7jVpfcb4V+ks7O92b7RHTewRgdDACkEK0rbiRRgDkE9ar1KIz9VT/wNq81AqWhva1wlyfaxh8wdCQL/yKA+qNqwCtratzX2po8L1tFXZR73OT9dpLGSLPRyvX91thnWW9d/2+R6zQauQhns/W71Wp1VC4iqR61fqokQsVWX0sl1bba2HffHuNU+3n45lz/bHroTl1BaSpp53m2tet80P5ep2+LfbQwr1Lurr8nHw2hZQvWKjSPgUvtyKtHoSeR2FD8/t/bQGokG8sWOCvANB7ojZppCbe8liLNLUO4nx7zlj8fuq5teZAH3XZ4Zn23hTCCABtSyrEtjECgHFJq/hFxf+i7m5/nbqKjob7NX+v4i8qsOr1a+heRVcFUMUve65ZIwgfieb5/84Kq65L16WE+R7/ZD159er93gCLFvmpCP2ctvtVwdfve7UFAfVs/+fOnf6hoqctbzUEroKt71Ox05SFtgdOQj37IXse9e61uZHWNuihzzUFocV8em5NMeh71S4Vdc3lv8LaoyKtc5ZLexNo2kI9doWMr9hD0wK6MiLfuopsCjaiYKaRDq0h0BoEnYOPbd78tOKfTeFFD70nrAEARg8jAClE24orZQRABVjD6hqW10pz0fy7Vqy/ZN8+95n16/MO82vo+2v2s1oDoG15469pQaHfmc+Kqn5Ow9cxlSR9PR4Oj0uUvkPfp4J5hn289vHHj/5DFhXBr9vvG1CPfMIEPzKg3xPfS0DrCq7esqXotEIh2jWv0Kp5/3stlCw7+WT31p/+1K+017oEhZ+R6DJCBRR9p75/WjRqoX0Bio1WaIRBxV/nRKFLK/wVPAqJ30+FGG3RrKmD2+19KzYSwwgAbUsqxLYRAFKIthVXTgBYaEVGw/kqrBpu1k51GgnQfLrm13Op2GuoWgVX4SGmn99oPefsG+poPjsffTW7kKqwNlgRi9uWTesP9PvUC1fvVqMQ8cY92rpXdxf8sLVDWxCPJhXjK6yoagrghh/9KNE0w2jTudXoTCx+PxVkblu0yIcMXa2g0ZpCCAC0LakQ28YUAMYlbdf7x1bEVUg15K0C/jzroWqI+3VWTJfb5/mox+znwHMKooqyNvnRyED80EK1fA8NoWd/3wutLYVoPcKVW7f6y/Q+vG2be589dF8C3VNAm+NIOQvtSqWAopEJ9cZHuuxxpH0RRIFC5zheUKiFhN+aN8/fYKkUurJA+wvk26pYuyVqbcFlHR1Fiz+A8jACkEK0rbhSRgBi6lWqgKp3XUra1X3nNY+vy+10qWAhumxQawE0Vx5fOVBMvrbFdK2/iqcu91N79bk2NNpiD12poGHvfKMVx+u6pUvdvjPPdJf/678+Y+fCmBbqaS2DXq/C1HQrwBotUCjQCIimPvS5FgJqCkOXROrqgfjeBhqu/2Jbm58mKEa/Q+sCtIeDrnqQYuesEEYAaFtSIbaNEQCMaxpSVsEq9f/ocU93pLlw3ZpWQUHrCo6HphxUiHXVgi5V1HC3ir/K5bLBQfemrq6iq96Px2R7jfo92dMauXS1gEZF1CZds/+Lujq/06F2/tN2yJqm0HoCbQakEQVdHqg1FrpWX7dF/kt7jFT8Jd4XQPdDKLTbodYdABg9jACkEG0rrpwRgHJptb6uh9cwfLFet1bo32yFW5v1aEGhbohTTKG26XfpKgFNO2ixn6YLtA5AO+blX2EwenRJ5Jazz3bv+slPfNEuRD37rVZ8VeQ1MaLhfkUGFXyFK4UsLVbU2orjWaV/i4WgNXaeFHh0ZcBiCxY6ZxoR+b6Frd/audLoQLH3hREA2pZUiG1jBADIornmj7S3jzjkrn3q/7Cvz48YaOhaQ+QxFcxSbwes/fG1fbGeR3vzaxMj9Zjj4r92xgx/7Xyh2+weD/0O9e61B0Axas/J9nrVTvXUtY5CRfo0+4+Shvgbhob83PzxXqL3LivuumeAtgJWGNAWwLpqQ1cAaKRF4wha1AlgdBAAgCwa+tf18KW40Hqni6wg6dI2jQbcvmiR71XrVre6Rl5D4yNRL1qLBkVXLnzRip4ChdYi6EY7ek6tNdBthytF+wWkgS4J/NiWLX7fBg1Ltk6b5tdHaD3Ba+1rumdBKestAJSGAAAkpP3rtXpfG+Y8ZIVKewVoDlu9ahX1UovVa3bv9lcCqCf9Yyv+2iL4Tiv62pVQIw265bBujzvalh448NRlkmmhDZy0/4Iu03xLZ6e/l8MtGzb4OyQWutEQgGRYA5BCtK24Sq4BSEKr3h+vqfGX1Gn+XiMImhPPVkrbtk0+egmddtTTyIBW5msnw3wbFo2Wcm8G9GziKoBkaFsyIbaNEQDgOGn+WzfpWdnb6+fIc4t/qVTwtR2uVv6/rrvbP1cliz+AsBEAAAAIEAEAAIAAEQAAAAhQVXNzc8UmGQcGBlxNTU10lC60LZk0tG3d/fe781avjo6O2Vtb66b39UVH6ZLWtj161lnujIcfjo7SJck50z0T969Zc/SggvgbTYa2JVOptnEVQArRtuLSdhVAKdLaNq4CSIa/0WRoWzKVahtTAEBAtEuhLjXUdr4AwkYAAMYZbUS0ZcoUf6Me7aSnDYp0u13tUnj58uXuxqVL/U2IAISNAACMEdppX7sE/ueMGUe/UIDuwf+RFSv8Q9sSazvhX9bV+VBQfeSIW3bggL/pEICwEQCAMaKrutrfd8AX9CIhQDcYOrevzw/3azTgLTt3usu2b3eXb93qbty0yd26caNbYSEAQNgIAMAYob3wX9/d7fZZYdewfiHn9vb6u+qJbqLz9h073NkWCBqt6M84dMh/HQAIAMAYcuHu3f4mRK01NUWnAjT/L0sL3D53mEWAQPAIAECKjLQ6X/fmP3VgwO2ZONGv5i9k6+TJ/mNHdbWfLniwttZPH3x73jx/r/0rVqzwtx4GEC4CAJAS37XifM3y5e4LCxe6dUWK+4KhIf+xIyry+cw+eNB/XDNzprvDnk9F/ysNDf5Yzz0wYYKbcljLCgGEigAApIB6419bsMC1W1HXrYWvtiBwz6xZ0b8+XV00j6/bEBfyVzt3ulXbt/u7Cv5pT497xZ497gL7qAWBH9i2zV2/ebN7V0dH9N0AQkQAAJ5jP7ZCr2K/eHDQvduK8hu7utxU652vXrTI3ZtnsV+8kG+oqqrglIG+55LOTveeKAQ8PH26e8J6/q+0EPDSvXvdogJrAwCEgwAAPId2T5rkfjh7tjtwwgnubTt2+J66euwXRyHgF/X1Lnev7klHjrjqaPh+yH6uFPq+HvtdGvoHACEAAM+hxzIZt6u62v1Jb68734p/bNHQkJtkRb534kT/yHaCBQD94arvP9Ja/sNVVW6XFX7tB7B5yhT3yPTpfsThe3Pn+imHh+xYOwT++sQTo58AEAoCAPAc6rceuQp6Q7SwL9ZtRftAtFCvJurtx4atN6+Crl39Jkf/9hsLEtri95ply/z6Aa3yvzzaDfDzCxe6vVHPXzsJasThZzNnul/NmOEXEq6rqSm6oBDA+EQAAJ5DWtA30Qr5Vuudxz19Dfk/Yj1yze+fPDDw1HB/LJ771wiBflbao5/vs+CgULHfQoKmFfSTc4eH/f4Bb+rqcuf39Pg1AZfu3OkXAWo9wPu3bXMX2dcAhIUAADyHTuvvdwusQD9QW+s+uWSJ3+b3BuvJ31df75YMDrrXWOHONRjN+2fP5quAX7Nli7tu0yb38c2b3XX2uMk+19a/t23Y4P9Nhf6tVvjfsGuXX2egaYeFQ0M+BAAIDwEAeA7VHjrkVllhPtOK8LbJk/3d+7SL3+kWDD7S3u6W59mzf280UpB7Hb96+vPtoS2D9Zh18KCrt+d/yMLFP86f776+YAF3AQTwFAIA8BzTzXtu2bjRF/z3WhjQx09Zr/1F+/ZF3/F0unJAStnIRzv/6XLCb1kA+I59/unFi91tdgwABAAgBXTJn4biV/b2unP6+lzmySejf3kmbQMsuWsDcv2svt59w3r92vf/nR0dfk8ALRq8N9p3AEDYCADAGBOPAIwUALT3v7zPCr92Bry0s9O91z6XZi77A4JHAADGGK371wiB5vgL2TJlit/5T7sLntPbG3316HSD1gpoU6CRJxAAjGcEAGCM+fNdu9wH29vdm7u6oq88k4q7goIWDKrYx7QpkHYF1OJD/viBsPHfAGCMOXPfPveqnp7oKL+l1vPXJYZaL/DVhgZ3X12dvx/A3bNn+/0CzuLSPyB4BABgnHrXjh3ulIEB92Btrd8N8AsnneS3AtYdAbUZEICwEQCAcWrpgQPuE5s2+cV/L7AgoFEBbQakOw4CAAEAGMfmDA/7y/8+s2GD32tA2wEDgBAAAAAIEAEAAIAAEQAAAAgQAQAAgAARAAAACBABAACAABEAAAAIEAEAAIAAEQAAAAgQAQAAgAARAAAACBABAGNPVVX0CQAgqarm5uYj0eejbmBgwNXU1ERH6ULbkklD29bdf787b/Xq6OiYvbW1bnpfX3SULmlt26NnneXOePjh6ChdkpyzXnvsX7Pm6EEF8TeaDG1LplJtq2ptba1YAOjv73eZTCY6Shfalkwa2vbYvfe6i668Mjo6Zk99vavr6YmO0iWtbXtw5Up3ztq10VG6JDln3fYYaG09elBB/I0mQ9uSqVTbmAIAACBABACMOTW1ta59zpzoCDhm05lnRp8BGAlTAClE24ob6O11O3/3O9dvH7MNHz7sqk9IZ6ZNa9u6Dx50syZNio7SJck5m7lkiTvphS+MjiqHv9FkaFsylWobASCFaFsytK18LS0trqmpKTpKF97PZGhbMiG2jSkAAAACRAAAACBABAAAAAJEAAAAIEAEAAAAAkQAAAAgQAQAAAACRAAAACBABAAAAAJEAAAAIEAEAAAAAkQAAAAgQAQAAAACRAAAACBABAAAAAJEAAAAIEAEAAAAAkQAAAAgQAQAAAACRAAAACBABAAAAAJEAAAAIEAEAAAAAkQAAAAgQAQAAAACRAAAACBABAAAAAJEAAAAIEAEAAAAAkQAAAAgQAQAAAACRAAAACBABAAAAAJU1dzcfCT6fNQNDAy4mpqa6ChdaFsytC2ZtLatra3NNTY2RkfpwvuZDG1LJsS2VbW2tlYsAPT397tMJhMdpQttS4a2JZPWtrW0tLimpqboKF14P5OhbcmE2DamAAAACBABAACAABEAAAAIEAEAAIAAEQAAAAgQAQAAgAARAAAACBABAACAABEAAAAIEAEAAIAAEQAAAAgQAQAAgAARAAAACBABAACAABEAAAAIEAEAAIAAEQAAAAgQAQAAgAARAAAACBABAACAABEAAAAIEAEAAIAAEQAAAAgQAQAAgAARAAAACBABAACAABEAAAAIEAEAAIAAEQAAAAgQAQAAgAARAAAACBABAACAABEAAAAIEAEAAIAAEQAAAAgQAQAAgAARAAAACFBVc3PzkejzUTcwMOBqamqio3ShbcnQtmTS2ra2tjbX2NgYHaUL72cytC2ZENtW1draWrEA0N/f7zKZTHSULrQtGdqWTFrb1tLS4pqamqKjdOH9TIa2JRNi25gCAAAgQAQAAAACRAAAACBABAAAAAJEAAAAIEAEAAAAAkQAAAAgQAQAAAACRAAAACBABAAAAAJEAAAAIEAEAAAAAkQAAAAgQAQAAAACRAAAACA4zv03lT16/l+u+sYAAAAASUVORK5CYII=;" parent="1" vertex="1">
          <mxGeometry x="138.83999999999997" y="-20" width="202.31" height="130" as="geometry" />
        </mxCell>
        <mxCell id="NqW5akh8zdySq_Utj7iF-45" value="" style="shape=image;verticalLabelPosition=bottom;labelBackgroundColor=default;verticalAlign=top;aspect=fixed;imageAspect=0;image=data:image/png,iVBORw0KGgoAAAANSUhEUgAAAtIAAAF8CAYAAADilFypAAAAAXNSR0IArs4c6QAAAARnQU1BAACxjwv8YQUAAAAJcEhZcwAADsMAAA7DAcdvqGQAAKoZSURBVHhe7f0J3H3LUdcLP/8TxoRJwqS816uivnf0fu4ronBBBUUkIkMIkECYQUBBGQQBRRABmWSGQAiEISSEkEASEoaAzKOKMokghAQuU5iHkDnn7Wl1V3VXdVf16rWH56nvc3rv7q7fr6rX2nuv1f99nvM/9/7ZZz3j/ptAetoAQxzhdRtxaqyL3I9DpK5M5t5A57mf1NSIREhWVUnPQpB8RybZwTE506yqoEfyWnEwKxnmUC4yyeOT0gthFibLCFQDQxtmDLLCDl7IRrq5xYURwdVY53I1EK/N7szCz9PJuZeeD+fIQuc6t+0xqY5y+pTojI16um6PRUlTGlm2tTUh9/bmRnY+l7pKMMhcpOre2IsVaSQoWSRyz0Y43wp9EKssWCzz0QXGXtoHocNpNj1951d/fOw47n34Z7uNNLjODW9RrJbXbcSpsS4i3bRVWUldOym7b4pESIYdQv8GkpeBKksQyxytKs2oCm5Ur5dHnIcX9l+niYUmS3ya8G9Mb+aASlgeyzomYb4Cb2Aj+sCQ4ET2+VyIIzbct4TBfeRwZl6HJWueTqI3IsdU3SVHLMeVk1VcuK5OqhjaWQvZ6VxTFQQb3g1SeeCG2RNlOo8n+xQeL1acDgfOL7Niz0bfm6IdER0a+zxwI31fUPuz4E1btwzTI2i1NkdKLzQcDMRu+QkzWxy2AFS6HyJfJE4UnRs1OjgRJzcdbC1+sm4EIJzzhWH82UaxdUBS9xAWtWXBmViCwD3Axji2SGmph/wpOKSsMv9sXthIeCFaSmoFP6jbgCSLufwaU5P6N2IC1Ly7bi0givw4BMEh/FMioNtrCEoQGz3rGjnpGzmZWp+gcg+lufqphQlFLsTmB6283m5YtUuBWtvqRk6eoiWo0KiJocxbY6HEsLU0KvcAGwo21AKqLQKkrNeIWhBD/AzVlFApUotP9E+MKtgsudUTEXq2QxC6B9gGBEtqAYHfz5aWetmTAgwx7H6cNl83B54N0tel6GNL0yxb3tjCU5ztlIra0vIsapg0Cz2+AbYpHEqjjg9Che99xL9/5v3jb2eBIHVbSzXTHYJRmygQp8c6z+Ar9USVkdSx5hjhw4mhIAJk2CH0byD5jkyCr+dpBZhVFfQc8w2255q+xfbIM1bKiaVEi9Aozs8L2Yg+MKQ9vfO5MC6PNFXnAlwQiW4xq16XEXPnObtU9oNe0yrtziNayyCt2zKl3mJQWrrGVOVg0jkbtd+IDcCKNBKWjTL3KNRDwuuh9bnj0VlKDZmPF/P+cQE6NPZBioz2PeurPi710jfS8E8W4X1QGeJEakGUnmI3tNJLDQZx1zUwqnSh5W754XQeqPPH4Z4azTZRdG7U6OAECsSRe4ANhBPbJGwEIJzzhWH82UaxdUBS95AXpcyUFwFahZ+pGxplL5jusq0R/KQUrjvIUYuwMC8FtIIfUK1DksRcfp2pSbyQmKBq4R+ytVSK5CcbQwz3fzIwH9UyVDA2etY19+AbGWgnU+uz5SzN1U8tTChyYZJf0lANrl0/+46odh/VaJDKPbAvYQMM1m2CZKXWkFuRuYZH8rYTKqVv4Yn/2U1dL7R6IkLPdghC9wCbwLmpsrrJ0eJnS0u97EkBgi0UzqbT5usYo4cED/BFbwp2wZ6xxectLTzFWYYUzZ40LJHcMG6m8kC2KRxKo45vYwvFFn8kvo17H/E530p8NVgTBeGxqwXB1KXl1WxrA3SDYKqv85zim+uNoBjKxnkCQIYdQv8Gkk9mCkKZmlalWXHBjWhobOI8jDBN99OIi2CcLTon/ZmciESefaBUL1Nw6fAsELFRMiAqSJKdbecshOv34CIeEYlOiOC8bZKzLf2AwiklnfmCXqPhUiSbqEnIxP1q02sJRr27cfgNlQCsAqOBPYaTaKDFpNdJ5fE4Q/xHDjgHMh9doO+lPRt8qO/bwJI0EvhqvOU7wDfS9z7yc74N3DJSd3gNjILw2NWCYOry8la7gYe8zlOm+jpPnB7rfCCHWM0GLwiRHX4EkGGH0L+B5JOZglCmplVpVlxwIxoamzjPWLj810Q8ySbchnZwfkEKeZWOcmKp4uMTyXgRGyEDwjUZBgW46dL334m78grUZQ/cKHvI5P2Ku9cTEuiz0Esd58GKNBKWjzKdxxO/KU0DFc6p8uG1yaxORQj7XtqzQYfSbD9xAEvkPkiUt97veOzHpl741Y6Cf5HCjzvj+V8FbA0RJ6E2yBldaEmw6UJL0cg28oGtgWGOll6TCHXjT5zcWgom4hD8VLkKWONlrltpNmAQi8LIPcAGwoltEjYCEM75wjD+bKPYOiCpe8iLUmQKQfdQNwI/W7fcQ/4yzRMFzY+3Q//WGiiRbwW0pK2lWOxRbUCSlc9OauFHQ0jCtBgOktLtNno2tSpn0wi2I6J+EHUu2DJUMDZ61jX34JtgEjTjTgPeCttbpbTy/vU/boZoi6BSk809+JYm5D8LKGVTcw/VenCLUBHfVGSje0A1+2wq2AIwT8hF4yOxpV72pADBFgrn3Wl9G3k2oCf6UqCL12Gft/bxgujzLT1tswybaGt5FjWMmyE8G34IWySNoMc3gi0UW+oJfJAoSz9C772P+txvB1+6pZ7gS5v13157cE5eTgtaPZhhtbxmI06PdT6QQ6yGghaH2WEeRSEgLV2F34Pk2KvK1P+qF9EqwYyq6EY0NVZxroHQhfsKcaGWYN3/XTaGyDYo0A/vMlcojnUoHGfqKlTrnqBzoZaw034Y5Cu451zuONDWevBZI9PTNQ9eiQ60GNnKlqw/J9mXjXe7iCB1kaSewOOJMvco1G+ETZ/Ss9VR2yqTzN8W6vtaPYQP9X2QIks9oW8jyue8nuYbaZ8jtvhTdvC+eUXLpt3+xBN0pDYGoDbIO9pNsOnSbGiRNMoC3/JTbmhUBUu3/MBcueUu+CE0EazxMtetNBRQWAyh5x7qhvETdWMAkpwP/ORgDyjLC4qtzuIbS14AbClW4adxAyPoha1LFOEfN+MefIuD1EhqUSV0w7ws2FI49qgmIEjdeqm2hb1OBXSm5vKVVoVBl270bGygS7UGn633A6hzwRagArDRs7m5h7rRQtwoH9lou7hdKvDVyj/ugKfbjp9DzhpK6R5gSwH8s83idlKaBbgHYt2xRerZuokJBvdANX227KDdboRqpOkKPx1beoWg3jeGGHY/Tutbr0Yh1oDv6bHHE/MXn8TmFdFXvHmW8adI8mwG9w9qmDQL9JAUzS2SRlUdCj9dWvxBHt8GbL7wo/QWYfQGP+DeR33ed1TfDbhh59uCEkq9jtYTwzJtVg91npKzLy+6DVrf6jbKFK/ZiCGJDgQ7OhreoDp3I8glCr2QbGm9qmyrvsX2qApvRFNjFeWSF+wfpjzPGJerSrcvO+EeJOyHd5krJr7FFxnUWZWIrvIyFqZqUHw2Lx50nuiTduSpZGmKrlvFkkzV5mIv8mxJKTAUidzj8Zuv1FGQXErP9qSyAR94EkAX4v3jAm1o7NnAErkPkl8rj9ILDaO387d/5b9IvZub+7x2axHXCzv1raXphB/GFn96Wo+f2rTjPwUktdOUlqYbUgDoQkuRQprJAk6bRkRw6zpn+Cka31IwEYfph9F4ssb/OI2XuS5uLLw4lwQNhBPbJGwEIJzzgZ8cHJGl7gEtqs20NRLozy3FKvw0blUl6N/akCjEP27GPfgWB6k11ALYMHlpdYtRps3gfFWR8rnzLU1HpaBSrXQtJ/GNCLdToNGzsYEu1Rp8tt4PYYP52OYefKODbUPnQ9LoNFOtgpJoW4ZcO9WS/pz4NeTm11Q1F6jfF3VbQkjmHqRNuQrKwTUx1Lq2NoF3cQ2TZqm67h/CENhC+dUUeDybfrsWBm1HH8Eeb5N4gg94QovBDpswNujzjWcTbi3PooZxM50C2xQOuV7Hs7GFYks9gQ/ifeHHeXwLHqF3Exa/G6Wm4d4///xn4a8SmG8W2lk30/kSokra1W5ESRKK9LK8MGdfXnQbtL7VefCQ1mzEaRBkdBHi27SunoI3LPsWu5KUoagAJltarzybUypLd6spc0WwqUkhyjlR2Fl410S+ISknSD1fhXAKkvGSXeYOtMnPKq/DZ0a62qmTdDfQ3nk7nPy9EwqeY/1AuaM8tqaRMJ/fQKWOguRSerYnua14NmTe1rfR97toR0CH+p4NLEkjgQ8y91ptRNPcxxSYwBK+7Ss+Jg4c4RtpBNySh5amqxYeGa3Hd0vzO30fh82rMH4qaP3PQOvZdKWFSYIUALrQUqSQZoAA6nyLpFGVKD2ltk3C5qYSvus1+afW+ZYBuu0H6mBj4cWodGotfrJuFVU45wM/OTgiS91DXlRsdaattbhZ6M8thQl8CDdQrc6xtS5QuGXbftyMe9hanEgNUQdhY3AhmBs3V9u39ONmqjZD8oJCuc42VVSh8dRK13IS3wgJ6LaNni0NdEcNQQl8NXr+ZA2dK0mj07TNPdSNFN4yqOOuWwcf1bR9gEzUOqk2UXVzUa0AZqm67p/cBERp9cPlJIih4oveFGABruTxNokn+IAntBDnSD4g3jxbo9mEW4tTKYIaxs3UPoAfwhZxvY5nw0+XlnrQ49sA7ws/zuNb8Ah8kSiuz7+MrVAybU+xG1rNvY/+gu/EXzOAryeH3z8QX2XSHjfbSUZm6eg9MZxEA61H9e21KC3OR2vpRK12mAhMpx6jK+z9FrsvHn+LrSgGpKWr8G9kC+1VZZR9TZ9p1YRflzIxyCzOOVW8JaUp2RblzTQFAnNVOi5hQlo2t5pLgroZSLj+I1/D7PkrEBn2J93NeAmVYtGaY5p1ud3WaesoSC6xp9RQlQE+8DSAF4/9/UL0dN8DKRK5ZyNK9b4IcE96M2koT3Pv5tu+4qNTv/p7pAN565128uEnFmiKAG1ofopo4bHWun82fBc398hoN/zUtrr4pxVe69l0sNHaLQ/UUtKi8y13YyTpUw/o8rBEXYs/YVRpQ0tPsaUfRlfIyvIDtbCRUELfIqh8ahg/QTUCEC75wLrdTxQM2GQlSWwpUHq4kdQ5QksxAh/CrfzkWZgHti61uMrqHmArgdQyVBA2IUlearq1wJZ+onCG5I3Jc4v5wVRRdoCqqtVJqAa6uPE/rZoD6079U9eXNk2Ga4U6lrq1ECr0hq0bYTkYqmTdmpnRuieA76LtR5cbOtOP88PmpoY5Qh7kS9MsSQD0ocUgQ/FsDfp8o0lRQrx1wRQgzWafb2k6sQ3xtOt1PBvbdGzxZ+SBREn6UfgiwO18m13jDS3V3PxpGBrPpvBi38Jk5t7HfOF3lS8ZQk/xX7cf8u21x0WYIJmFTxQo4bHWo/32eizFor6eTthOpRkmWZnu6zDn/hbbIyxYyeJQ6K3JNtqvy+rUe5cRIJJM5ZWZGtXQNrUYTEoRnxbkQ4B8ROr5akpnT15djG8FotMzf/ZPR32nTM8nRldWqD7wWPwmp0FVr8qwe60xgd/7yEli9yS3Fc+GzMsX6ftTtCOiQ262nziAJWkk8G1Eqd4XAe5JbyB15SkqJWPcpr/1MeUbabyRpnC7H/FlLwiLeujTbK47u7AmMtixlajr9aUB+cbakWqP5W1O3pMiQz2tg8QQEHS0G+Q7QOAr8OIQGeZSFAPS2FV4a7KVzqHLnNSTyyk2JsFkXq0RqVnr9GIKIIXiCqSAyCmbEnLEmmeR30owl3QMt4P+K6F8nWZf1gXs2zBHIZJPHQs2hZE6TzLgpwG0eOzli/S9vG+DD429HhyWeSD5/aDwFKJJ94edDWBSL6H11vRyoY30v/ii/1DtEwUXzywR3OKAYKhG4TJgXTnQKmiPm2WSNdOLN+NZ1JVXETBsPbx2I06xgYbm9WF0kRIkZV2vZyjI9F8KQR5GEqfl68g0ln4OcYUgnFgPoLiJPPtSJ4RJkmysnlwUYztm0+0Z5E3ho6pTyG8YCa2BPccSTnkmzge5oeRQv2DnIC6yu1RhkJR1vR4sQKOht0eVV5SrErmhbAmtb6PvT9GOiA6NfRtYIvdtFKnrKXwF94mZ8nlKTX2KsbGfE0RT91u//J/HjiNupBnKBkZ4UQwyxa0M7JCGnpQb0vUwuy9ytrNTQ5H+ji4QFAJdwWnjPwJaIe+jk7ZTaYZJVKb7uhbifSD2evriEO1KFMUqaRwq/BwhRT+PvApQLlmaIomq3tQRdWyq4jw5zXFb7cLxFS4OxSEfc3Zw1v5NUcogy5oiJ6JdLLl88TFFIZIrvZD5zZWHMKcpXdrWNPb3C/H+vs/T9XZ8ECxLI6HXs/eb5mBTe4FBXb711vRzVdGOuNpIf3e6Ao0vb0GRZWN9wMnEty5cYOyq9B7WQ2g3mtnBRhhFpZtr/ziWFlJeaXYo5D0uQgTbqTTDJCrTfV1LFDZysd/TF/dfDlWhCLDE7kSOmpBinEdWqVItWF6kJBqmFNfULS6ruzZdziEhXcm5OPsVs/BMXMtJ7d9xT8h4IeqligxYlEfiYq1w6neVa8C0Kh2iTSLLxYt5v6wAHZZ5N7BM5/XMb5yjYdevZ0yVBmrGyOerIoLCUPJMuJH+2C/eNtKRPKBnWYKiPIxJsplNtsgB9J6uh9l9NbNVzhoUEWywN6LSPYotRTu24Ly8nk+Ip8bJynTqMbqWKGzkSn+P8csiLlYgLEu+9wwpxnnklTrK3cvFCbrpRLV0C0Jq1qrLqcflr0ocWVFw3V/C/mM4+ryfk7lXYclrtysJNueROGcr3L1JdlOqFA10Top+HRCVp3SkSCc5HRr7IFim826cfsMMDOrSrbemn6uKDgq3YcLgpp756I9KAzesN9IUWYCU44tj2bSMtYEkO25zjVWsB+StaWY72g0U1W6wFfpNO3Y4RSXiPa3W006lGT4RCI21GOYdofD3CNFhLnExTGNbssWOaN9LIjrKXQsv5mEaUZ25xSAXmWIur45Uwz8NLupjdicADI5dcGpOcfYujV2vwMqXL9BPmKOiurRIvolihG5anCLA56HQ5fYkB2Hs5+J9G3Ro7IMUmc63EeVzXm8Ilgkf8SQEqBkjn6+KCAq3ElkOtJH+uC/5Hvp2HCbHl8WsQFKBjzbyOFlUyvURwcYFaDdYTwi0UV7PRjJIod0cifVOl6RjR9F6eD2dkNbT2poYBqKBPtK4IiKvRyYcn2pxwRZi8TuyVaRMK5eXGSRV12wN3RTi/OqFNKAM/OCOIjgHt+U0CW7O88iSI9XUemjTrk1ympKl4P01snwQfSI+lCKDRbRhmW8Dy3TejSif8QKnyucBBteV2yslYeznAlFB0VZSzQhyQLz8GfVGOvUR/GT/aoii/IDk0M01kkg310XV1VdaCDnb0W80UeGGOaaWaQNJO3Y4BRDx+hRhBO20KGkKybSFY7/Jhpxukx0HO7IRgGyrlpkZJFTXaw3DFKIa6oUMyRlR6vV1ZtjuG6dfzWUc/7Eo78oV2T2VRmaSbZgZUZoep+j7N8Z5NjpKQZKxBChUpWQ+SJGlntAHuTu/nlFFBkXbMGEY5IBEaWt4xqM/MvVc9OMe9b3tlS3P0Bc9cjZM0voNFOUHDW3qvj7gJFEl0HqCTOgAWo9WDyFnO/qNJno1G21PihKidkqcNIXlesIRGfogKvHg1OtyNSB7m2tndgCRaSK5eoVTB9A3DVPuF9wi8LFqLiN3lXz7Fd24FXf3DWfRuzqOFBrnZBTVNJ9H5u8hk87XaSVpRlYYyIBB6N2Y3yx7oumSNsz9PH1vTSupZgQ5NoqUMDF5nvFlZSN9n9dsLZMn3cPWgAqO8mzouAdCvwFnsQwNUiuEGfdQWuow+kCSxP+VZGqc1hNC0bRp4w8B0FL6rWXCRNSiVulz2x7qFqKRbZSbi/uG9S1QizwcKY48fjpGASlPakUftVuLpFHSlpafQCs/lD60RByCH0rrWyZOND9eDvWwNVCirbWgJdWt8cMmAFncQ9XK67f9uGmm9SEcoA4VDq2ileAfHAXdXmugRKVRlVBzD77RQd/cw1jk2m0AH1P5jNfNRWHz1luIP67mWKsGOoJW4aZgLrIlacSPJK10qXy+RbYR0erh1vB0NUqNEm4tQYVKiz9UJLS8GN9oSU0rST0qF8EW2tYW/NQaOkDv9lly3aGvgL3BLvKmIsmw+UJLUZot6oVbA9OgC6YSVYTwQmAotmqm9vvWIUrKTzaBbm4C7n38l35f9TVDeg6UQffLB8az0czkiW7WTlqBT6EPOElUybQRxe+xAs/G0BsEtIqc7eg3UPTs32J7kqoS815av4GnwYhPmEKVoKOPFAEpHfohKnHEWWjXRC4xbFGEfgWEY/IwsE2RRF1vboFDFxQIL+LLCLXnjsvo4F5H2Us58YITlnGWjkKcj8mhSt0RewZhDt7GRIR1sCyNhF5I3LiFzgTR5PeNOoBBXb71Qvp5+t4aLKkMAj8kygmTMg+X6Vu+7CNSz8WajTQFUpRB18h4NpqZgX6Dl/EeT4gq9J6ydxxrA0AvdCDPxtAbBLSKnBVsgrNCsWEORymWJ6HGQoh5b4owAjwNRnzCQAzL9ZSAtAzzbIiFhWShnRP5xHQLZ/QrIBw7DyPaJ5OobDsXeia6qw7B6zyupaQ7K39fVt+xC4S1n01ZS5S/k1McYoQdf4/WJl6ImmIHiZQ5z7Np9uC68hRAyZj4XFVkULQN6/yQKCUMihwRJhOR51u+FGyk/+WXfX+5IlbXRtF2sJHEia4TBVsl6c2TfOZ+2oGvb25xkqIS6D1ApthqJx/Wd92EfoOcHWyeUVS40Y4q9yiTJ5JYbCt6CO+l9Rt4Wpw0heT6CC1oZod5PCKRjJSqZFyYu6EpRqJfwfKEgGjelcKzO8Eeji3eza74g/oywE2QuU0eB1GqndqxnoGVDndM4nzzOTyiPBsCiRRRXWW9vFn2qNcaDeFR7fUkE34SAJSEqZ+n74W04Wpm4IdEKWFQ5IgUA7Iq8/AbaYoqapvrAU5WlHJPQbjFziKs7npDkFY0sx3tBoqqvsn2D3J9xOmTZeykhbwPRBgRnh7rN5pXc6CP0CJydke+XYCUqj8UikEFhuhXcEhSADbvSnU07OIuetXHor45R5hbtJ6BvQ0r63XkJSQSdYmy/XkkoA0txYJal7Rp9sjS9A39HFV0UBCHdV5Ikc7nKEQTsqrztIZv+dIPTz0X/VeP/oF8H4xPwotnIxPcTpEAq0lvR++Z8XgEEkcbCDOs3tMJuhAd7XsgcdjRe5rw4HUh9Bu8z0WYYDsNZviEgRiuRAMPp6dtxGx3is4SIEPVue7Y62AYdfUbIlFAntMjz6uCTBsnl1ec/LZT5hqolh6M7I8mM/eUXcsUm5eeDCXEWemcqJlzuIuqYBwuXsXweIX1urLhtjUiLBVRra6gNvDgVGA0sai5X8lIJPNcCufqGPlQigiLtjKdHxIt8/4CyhRR56MNYRaEnv6oeiNNkWbboOAiCSSxq/NETr8x94wltG8jRBtJ35NxsqKUeyKym28gCLGa9YL8NaQnTLLZMkih3ACFI1VZil5m48W0H8wyBcp0JWD0EeI17eohYiGtHNrl+VWEtIr3shois7JYX75j5ccddAdd0eklao2Dm5/63sixLBFEuMnsoUygriiSD7KKS0bhmlxScMIm/ZJ6JcmK//jPI0/TN/XzyAu24Wpm4IdE6bw/UgzIuiMPRPM6VhvpHwSXOMHVLkla5cBLVpF7IhewufaMEzWEqCxRi5MVpdwTEW5KgH6j6wtBWkHOdvQQpDjFBrt96lAp+kPHUBAo0zJ9ZM8me0NtUNbU5xcB3hfHVOhknSjIW45ZvRhxef06tQ71fZAiJJFlWlJvBnHhKJxap8q0drPsaSyq9fRoEx1Xq6Yk3rVp9qShPA3th/C5xt6NNiT31kQpYVDkiBCZJnPU7H0dn/6of5Z6LvIJXw430ukC2L0KDi6RLtwqxp6N0pV7CoNNYxPEE4Owg88uk/J+T4jKEmGcBKtknsjpN9oeNiLYPGOFG40tmXy0Ck8WA0/f3he2U9VM1zPWYpjXd+jjmDYGkLtJtS93n5S7KrG2oiDbZMGerXc/iL61RxlYlVJ5M1Pf+zYa43QmNepKCwzDFKIaWNRYRDk2+mIUVeWVMqi/u2aVIA3laYGSMfVzjf0bbbiaGfg3oowQC/0FItNkDkiYWZAnA0K++7QvQRvpH0qXxP6VMURZyeCq6sKtYuyBxOHA42kkizfXGwMfBEVIGe/1hGgj6XsCSRKfBHpPlh20wfYEAa8iI8Jvp4vK9WQWQDpmsQ8I6W5FFekPHUNBoEzL9AXtayxBJW5A7ibVvtxjQH6i1LrqikxHH3IiljlRMYD6PucdelNmh3U/4uK8UJRCdZCtuJnZURTNivJIkSXbv0GmqJKmobwUUDKmfq4q2hG3Ibm3hvx3Fwp/JBqQbTIHJMwsyJNJoV5KvJF+zLaRdgyvo7wgRNhwJ3EKtYqOxwPCpSv3bAy3EmQYT7IZmgBfC0VIGe/1hGgj6XsCTlJUMn1EuAnzBCFWD72EB0JGFL8KUpSuJ7clokFeDgjpbkUV6Q77WkgJEaKOrw52pTUisSojC8qSB2ty9yFqMGX3rebAY1mVWn0zkyFOm4UHLWQBw5Wply4zNCqRjRblWVlpgNLg5OoSIgRZK4luHUDNGPv5xn4IllQGgX8jSuf9ESLLZA5ImFHl6YhBSJ4SK5/2Jf809VzkX8ONdGI8UcML+puNTtCF6Gjfs4FVMs+GaItISoRVmwBfD0VIGe/1hGgj6XsCTlJUMn1Eu8H2YMfQP9jBktHZTTZ4GlM5h75KkIa8jdZvtD4iE588hXSeAi3aYQWIsqjIGUNnfX4apk6n/PqVnepYefgbVxWR3+FELE6nR7wA+UpZ5YJaObIgV4OTKtQDdHVr9q8DZGCS9WuM/ZBWovNvRGllUPgjRJbJHJAwo8rTEYOQLOVAlcJP+2K0kf5h4ZUVy9BomIEWhFnW20maQp2sNCCEVR2PhwnPbbhbD5lF4NtAEVkyRIiOk2CcpKgEek+WKTbbniBuHd0cjAdCR91s39aAjkbkLSLZ/r4SpSFtJWaHU3QmbtrDvoIdTwsvFqdhhaqFqAnZFX8428dEnT1Lk91tTgK9FDd7QWvcS3Mo6mPTn4zgENkEIifRr8Az4SIsc7VrhFk6Mj5URQSlWok+hyfK5rwFIstkDkiYUeXpiEFIllKWC1JPPxVtpL+C2UiLL8RFSFq6edpgmFF6Mi5ER/uejVbV8XnYsGCjSArwZCc9gK/URMYTmRxBEl6fcZKiEug3slSxyQYeiMgv2AS1ijQjKuABxyLyFFHoDT2VAAx5KxEZTsk8G91XsBNqkYlFKlKkWswksUZ4PEW5gKaQ7LazArLSCco3JWZr7n39RHX3n5CQQZxGKHSysVJcFMPYJrM5FM6JIn1LFR3kp8O6HBtRNuctEFkmc0B2/00nG2BanrKjHJcB4NmnfvGHpZ6LfOJX/Mjw8rD/xlhESC6oXBNmur5O0IX4aN8HwcOOb4OUXOBmm5QNvE2Y12eSpCgFno0s3b/h9oxzOIWgEJakkcAXOfGG2wOmaDuTtJrGQ5kHIn4VhTKFMDN0NAJ9jTkEdZxkU+XLfOe+cfmUxYfeVR/LHPrj3nGSnLXvFuYmZLpV6dQZpe2QNQ1kbbiaUSyqSOdzbGJkUfk9reF8m+WOalwCoBLfPPWL4Eb6K6uNtOIesWqD3UiH3lYQZro+Juimu7ZBtA7joc5bOHCT3UzSlcYy2ucJEYUekWTxSejxZKnamcS0o5/HRYWFogyIhT4vzFKRp4hCT+nJpCneznsgeIrJxhcBRJFI6ukKxVkahs4smK9xWwj3H+YmdBJc7Vheu4hzvnYLTxhI1c8qrFnJluSkmLCOLcqkk8tvbdWMIm+RzufYxMii8ntaw63cNKv8NzffDDfSn/SVP9r5l9ydC4rwWhNlhFjkJ9wK30YYTfgQLtRPMSgAwlg58HlIyYVttoUeSFBM+AJJFp+Eno0gxx55BqfsiOlQmhUUiRIgFHi8CMmEHkgYDX2EAEzRdiZpp1YJdUQ1XSkdFGUfihRrPJyj1sLdShYCSpyg2uVTnYT+OdlxxkR1lPknltNaJpJ4Jm0UfKpOEWX9KCdMqjxEFpXfgw1hpMrREaeQLN04D0UbYsTENJ8WRAjRN3/hh6aeC3/SY380Xn2Ja3D/ssxEhdfyyaIJwq3wbYTRhA+RQrxiUKAK46HOuyHYYhNeQeWBZwPNyhI1BEUjG/sCSRafhB4I8UdLWRan6gi7WQUFokTnaVwijwcLp/6jSA+YolMIEg8kovd7DWuZyJWYd1J0sq0t1Ie/yzQopAtJVYnix64Hvwjal4Rf2+JVi86LouaUVGGi2GnfaNMoEy85jCqJOieRZTLHRhipcjBiMC1L11GNSwCIWZXfkyK8IADD34Q30j8GrgGDy4FYSUQHqTHErVHkn/fVhJlJbyaFeMWgQBUuw4HPQ0oEW45GgCdYPwrwVYSyBC0Is7pEmCSf2oB5D2EbZ8pFSdppMDNIXsLi5IAYzJKudqMVjTfajEBYTyTb6Ir7mcR1dtQ4mu1sDe4JZ6C/omP+5xm3kHSeZKdLeVIF8sH/VHzMTjskpppMuHAdkGZNu+pUZ1uVqxWHmZ05AmBalq6jGpdIiIWdaiDCi3qhiLtYfdMX/JM0cMN/kzbSuks/oZZNVVSKgaGEdb4Cc0NW+GvCjMjfEblQP0XfC8HDflY6fP7Ntmcs7fs3gmqcrE/aJeqdzkGY+nlSlBG102CmnzgQJZVQ4IOi3FP6Nqa/3eZgpHFakaema92RV4GsCqHapoZ3hHkOTJ0gKiiK7lnf/ldXn2H3BrVHN7Wy8q5lFvN0ml31R8TkqhK71kPU21k8zOzMEQDT43QdxTg9gJid9TM+TyfkcNG+IIA30l/1H9Mn3j0Rn3395aByTOUc54CUsM6HucZN9iB5FS7Dgc9DSIZb7CaMJ7puFOzXGUv7fkhQZrncV3CeZNO5iw/C5wARRtROjz015Gss8kYRkip8FMs33BuMRfBHyBNQreESlrQawU0KopTfftQnJBrENpGQFqmX5pkyjcBJVSUOXE+TeufCwszOHIE0LUvVUfXTV1SzKq8nRXhBoBsW/GswTvEUeiMtxcmXXOv7ScY5gWIgxmFCPC4GsA13hgwLtiOMD8LmQIFhpVah9NcEh2yHR+B8wCrLklSVmPfKC+CwuEAmSvS+WoRGE/4hTs47lLn2EsqtqznOtPb4xrcdKXvuftdM7/XoH/SuU9I1t0FxrV2L8vQTqNLvXssIvgAbUa+pNeh+5YkRg2lZunEeCD1dzepSOlKEFwS64cHJ63vTM6N6yuf/49Rzik/+6v/kPtn5n520SeZyApc6H++lwBLCIMhRiOLGIspBi8Ls0D8QuDCv6HirUBl2PB4yLPy+j/FCunlQUFSxY5H5IXGPrfcFD7DJMiRVJe57ZUXakMwH2fvtNgWKDHOJirUkG+2ezLmcah3nWlb/PrUMXZlNfSmv1UGoTkor7tp1J9whN4iU6voSdq5x6ZroZKffNHcU4/SAanbWy/g8nZALdqMBVoEC/Tww+uR2Iy3E7RKWXZqqb/X0eZOjMsryAJWicJESJkWeTdxYRDloUZgd+juCFOpk5wHh0h14PKQkTgrchIh2dXOFoKhaBqkn/AX3eVJbkwE/DQAqwsDn6PsgOFyJB95CFJJyUQ5xoUBWszZdvmMBayGWdeqVjm9bQpYlunb8K6g/GSpHVzzOJKqlP4SK+QSkc/d6pMgK6TbKHsaQpoVV03OFarqanfUyPk8n5ILdaIBV5EA/BxntTD758z4kPHvu/duv+c/kZVl1gw/aRZvslGtDnzM5KqM8z5yxyAiDvLgjihuLKActCrNDf0eQQp3sNFWoDDseCClTvM+QsO9ioyEgrpjBpfX+kCH+oyCp8ZMAoCRMfJ6+D1LCjHDgj9AicnaYT1RQRc44t6CFELWo8v37ysWAl0ksWnMc/RfpLNQrUb0sYvFY2ChUC4FMGxHr1jNif+KQYXcaJkGalqXv54Dw+arIjJcX9EIu2I0GWAUK8HnIiCwpAm2kP+Vrf9x9jsHmRHx9mfg2LVRKnb2A4nPZkoswy/MBpdCEZXuKR2EjF/lpUZgd+jsCF+pk7lNJylDg9ZAyZZYsGqtphZsVFWqJthl/ck76YD1Zir6Bz6ESA4R/cBqKRFlolczqEAsXUtVMwyNWwt9SOkyZjBXoNgyeNS8WyrLs9V+WKOLSLc7YYVAphWXrYVSq6WqWEDHpHCDCiHiv4wK/WaZAEUb2jZ/bbKR50G1MeHWON3XlpdzJo0Ppq9m9wfYAJ5FElrdSCRdTZNOFHVHYyEX+VpRnuv5O0IX4aDdppJKUocC70Uhb7zBbFsjqkhVkVkS0zHiTc6JmLga84zSVomNoQypxBRYM5Z6uSJThMEp111u6lPMeV599N7VlhFM0f56OPMPdQx+el7kTt+bcTxtluPTHVViUuUojy8qoiGlaKRMyVRwpwgt6IRfsRnkvCvA5yIh8MtBEeGnFPbeR/uDUd6NPfdx/aT77U5vnTSjW+wehGOIs0TXhhcQFhK5nPhtwEknGeSuFcCFFNlUUQHzjJ/K3ojAz9A4ELswrhskjhEz4vSYmW2ivKKPiPV6UqSe3ZrSfQ0w06T+WwEB3GRjFwBjD4+wZkZQWKarMEQocVaXkzT1tKXdjEd9bjIsnvJbdF/QEr3Yqsb/SQWvtpF1bUVeIVlezYp8nRXhBL+SC3SjvzQGlf5ywAUX65QBYmEeV/0mfAzfSXwc20oOLbAwDkeCinD0CrSfIyoOOXGbCWwPWsC9bchNJZHkrlcBUJNNFHVHYyEX+VhRmht6BIIV51bBAoZFObLWzYXZFLqooWqSpp/B6otw9Kn2RUlNvrxxEAjrnoJJoIVEkkkLEBnVmNW0FMHN8+fOQblrie99BhNNbHi6WcJ6GJ2vx2QTp9JkXr4ViUGLNCnZmIex0Rpmw66WDgU7IBbtR3osCfA4yIp8MCEsRFHHuCf1oI/1pj/+v3R1EExRcT6IkCcV6h/CrsKAqpvSso5Sa8yOqdU+uKD07qgSyfFMmICMMwhxe2EhFXloUZod+UQEkww6hfwPJy0CZxRn6Dj7qIopiUQoMCu/Gim+3A+o0jJKYppXySoGuXJkLMO+scZnWJXPI/tCouh8dwt4VLD1pt490etuzfKZXflBWt6qDj2Ei/dhSKQgDnSPNdgp0Qi7YjfLeHFD6STmfA0X6pSqKOPdUfgjIlbrf8O8/KHYc9/7d438i3dqJi07nOkR6OnpPCafeQO/JkhNusj3LNtp4QXtWhJ4gspxAJVxEkc0WjaJGqvBS5Eg3j6hIBEhLV+HfyBbslWdyyoGYDo99kCIFJoV/Y9lGe0OcTlBwIIlhQZ49sOn31eXdVeTgw1vC4MY2fd8bsPvUhAQXeoKrkwa2AOn5QAQl+pITrNGzo4zeOnAQYd6RIoygW+nU3yzLEmaEZQiKOPdUfkg0Dk5VAG+kn/AT8WrAXBPYYOcaUkJA1NF7kGeg9SCJZpPtaTs6nC06J/2QkKLkmcsIXFUCWT69qUgIsayoIwobucg/FvXfFqIiBSCXfZ9HEGy0d5wxKQbCNizz1UQ5MCn9BXC2VDk64hTqp1MVi4gsWDRRZRJXaWexU698+l5GwmU73StwevCVppyBtWeWRFACS06wJoodZfvWBccjSMFLUqSTgw2FQMfoIKNokvc3EVZKB+T+miLMPbEXAvJM+SNoI/3pT/hJdCWKg87FiQiVqW6wAYfSqKP3NJ6B3oMkU5tumYfjsr7dBq4qwTif2gAkhFjgL3QzCXLJigVVI5V5Ecgyu/V2LsbYz5eig6J0WOatifLKpMwRwaYwEuVRFqvktFuZcxXCa5RHpiRUpz60yRvWjO0sr1ouepbqNOTJuzf7UuxjR9FoPcOqBSX7Eia6O6+jswNkIznQz95ESTmfA0X6pQBFmHtib0007tkkZ1ISKtUTP/sfpZ6Lf/rX4410hpgtU8zFouvxVAImjYf0dfSeJnzgphlLZR4SZ43uHTk2wPHOZQMuIsE4Z99PUWRTBQGtuJnp5pMXa99Wci8i2IpXnYV5f4/zOIWgWDe7wN/C/IFClYsXy/efU4svqO2tYecKACmTMiEvX7My2T1sxZ2OY90ZXsX+FcEM7bk78mwGpgoU0+Hrq9lRUL1qZa2hXLALZBUowOdpIqRU6OdlFUWYe2IvBOSZ8le4JNo0aCP9GU/8Kfz5BqPSHVwCqjCbEEJMd31MGg/p6+g9bdjNDDyeLAkdgcGBpTIPR9ks7Mtz5KZ7nI9QKBYx/H5XlIsXoQgpExXAOEtxTfg3pl83tADEOA/vpcBSwijO1QrRzI48XZxc51Dmn2XwJwX9KhhHPb3iRrUDWP5EZ3ofeZEXstrm9Ru/oCd7yZcVahOpUivXwcuriDKvh7WgQD8xGZVPakoBsDCMxN6aaDzXJrkBJYiDJ37WB4Znj9tI/3T6tAs+9ECC1R0vERp6RVNghtBvsL6Ox9OEBV93IUUYKDxtR4+zRveOHJ5gLzn02YCjMstyESrlIvZvtvsCFG2kw+Q0zhads37s02XJxRvGeYBCV9TJO4ZhLl7QRMTrEgv3k0rN/uJPn5x8yFFHvOIeuI5jjvKoczfGV5af4cNei+nEMuOudSvNWN4xTy5qaEOCcRFSwdrogLJkoghzT+yFRFN4nPID0o57b5qSoGTicn493Eh/5jdsG+kOTtGKBJeQJBF7q2laNRYNfbSA9zH6jSYs2HR7sip0xp5WNvb0iMvcl2Pf5s1TOZgE/bydqGhBWMRa9AEEUvEDOc62axO2d+MNnjjoMDErLl6ErGWYS1ysYU3q+fo0Ll+Vcl+F1eubAd6+LmE9k+SlX8AxkDsCbpugY00WgCphFIssOxbat7rojtwe1k4GxsWQQrw2LAwjsRdSTLu/VT7oG2WPOi8wfP1ngo30Zz3pZ8pHHX3WFR98J23VAz8Ii73VNK0ai4Y+WsD7GP1GExZstJEiDISe1jiHs0b3jhye3RttT+VikvC5B1WHi2oFrIUMDAsgsrrt6HDnftLpcM7KrMulM+NwRzxcBC3o2uaDywnVcsnVtat8RPrVFVU3Kql4ySL7SVafh+PwK1VvB0jWZAEsevGHaXYsHFurRDvyQtg0ZEBWtFGp11oMuafO4YmmS/4VjKmcpAnne8JnfkDqubnPetJ/S9cM3aWD3gsKcjgJrep4QUjlHfo8VYQQ0t40yycmQm6mo/c04QM23a3e0/eMiMvclyNAHK8+K+PoJMIhYcWujA6yFhQQ1gcER3mYY+/Ge4NJ0s89ZUoI171OJKabLQTX1ivEvILLx0HUhaduZx3OdmB6yKWeef3dl2Pta7W+VDGx9kWHMM6/v1CTQZ2yNaxZXjSHxz15VvzaBTKXgTona4gBcT4nfMJngI30Z3/jtpHGoMk8kH/46Qu4wO8kvKrjTyGVt5qivWNR10cHA23IzXT0niYsuFNmReiM9R7s8ch8HHGZ+3JEXA4mjTx7RykOCauRsrG3bxPWTmCbzotx3mSfy1K5mCR87k7V4YKKYCitURnU2VlwpjRalx5QJXXDlWWam5P4biVEsVheuvKIz4Ff/+oTy9OtJFoGL2Ijiw4Pp0mjRbkhTUp1DdqAZnetu5gv4htl5sDUOVlDDIjzDYRoI/3vn/yz4QqCLiN5IL+48BZZDn4/OPC7MK9gImBa5R36qtl+CsAwMTGdZhi9pwmpN92eGY9n7OsS7Cv+MyyQgUk2riFYxUCiOpJGOrHCPKGoCwiu8rAD4E9dXUZG3UlSQrpKMrkyJ0DsFHxOdRDvvtUlzs6FHxC7PPm6Z45w/yZEnYF26NMAsBmNduWlaVKKaswtJLh2HwNOsGRTDLmUb5RZcQysyVUY/bHg8Z/x/qnntNtGekQjyhOyjzcvH/uDgpUN/C7MK5gImBZ7+0NAPznt63s87bSbYbQbTXhwA0fRMBgUSGRVm2AnLkdKsy9b5WaS8TWE1VlZDAizRJBY5mxUeUJVGRGcuzZ+hBdMjTMPFKLwuMo0TWp9rb4jRZccQpsEzUhqMPce1U1uknV//liW6Az4ta8/201GVYmxOCvWLz0wzr+m8Lrj4BOs2yi7RCnXypSFOFDnJg0TuQRi9XfoQP74Twcb6c95yn9vrhrsZSQEZBeZftJxjqwgpX1/iHYlnaAL8VEmAqZLl88SqMIiHxGKU4ynO80mI2lCo013a0jPNChKSvv+Icm+4jtukIxEVkGxjko6dQzIIveTyt07luLXp+oYqhCtVBcsIOuOPI6xm1DsKhnNwxS7ani4BMobVmD3Yi6L6nDw8NhjRWeffClmXp9Ids6n6BLSDnPvL778m9xMldgNDymVki74T/YiwzRFIKrIinBAUbaDMiekKy7Bx3/6+6Wem/2cb/q56vMs+0CzqhAY52gU4wkEipJSgZ+VdLwuJMjckqZ5LxEBUyJfPwUgzTJJyenRxjk9Zxbre2TnjhyFKgcYyrMPlJ1wCcmrBRr5RKYsVNZONBXn0jgIo5uSpxMoGQmelldUg1LL6shXk5TLlr/mj5+qm1mFqv7UYpedrFtBeK32vGAInGhtbp7xxnjRIlyatYdTZQPDZXVyojbjdI2uMQbFuUVC5R8ZBGLRKlP46/4d2Eh/br2RdgwvKYINC6vIgYkc4wnEuBTvD5Fu+k7QhQaZW9K0ygemRL5+CkCaZZKS0wdsnJEiDMaePmlDsDcNlQBMydIPVMOwrEqmkeMJVbYgVtYHRCfwT6ViTG5alm6qaERsjcIdlTATf1DsO4jossWu5vQLG1bsCi7nRIb7vmATwTM2H/dtbsLlxyUOKAhSrsk+yLK8XiIkozNO12GNJaDOLTKcd7PM4cOPQxvpb/75wSc+hWUqHu1GC5KDEzmaST4HisiSIUKUlXS8LsRHmUiaVvnAlMhXiYYeRkBOz/xhTLiRyKqJjUdLyTGfrmOsQrxSWJyVTX6rmE199zh3UkwtYiOaUQpxPkXhJFU4HDo1S07D55urBFw7llqsc0l696cdy6KZTrh8JZdHeiEG+4VJ2uTH1Emo6uxYCWFdf1wpoyDxVG3S1E6qc4sNUXhEftGWuyNpQ2mG8Tzu09439Zzk854KNtLM9UN2WXGqjnCYIwt4ZTeHwO9poqSczzEuM/DyYQcTdNNdGxVNU7yvivSHABAhRLQvzfJJiZCb6eg3sETm8USZXN8HJ5nbcA9MVZhWCwqzkhgQZKAJxrG7rwDRqYW0pjwjzjdVmKZKVYara4zzySsyyoVL3s++xSw9lDqZ4F7Oga2nPOHCRQPZjsPkIZKWqcUVmXRrqswn31UfmelM6vxiQxSq828IjafeLG9Q4a+FG+nPf+r/QJ9Y+cc3KRmDOE9n1zHMkQUTOZqAIgcppf1oli0x8Cp9nv5mjgimqa6tjvaHCTBLCGY8Gzgk83hKOPUG+o0oA2Khr4Uxuml5SoGykrQOeTVauitjwjl2LYMwqxYhFzdKkVW1GJqcouRakNVRZVEkPaT+USwrszPR4GatZXG6SdwqiIUsX1sn4bjWxGqUlt3HGxLIs6jrDQ1YoM7vUZmiWGzpCNtQmhkkJ8PCST/zNZ/6PnHguPf5T/uF6upAXCzGCoakHKfss2Sz7aHV3Ryz/maSrzIuMfCyYd7nQ52og4imKd5XRfrDhEhETIMZxuPBIZnHE8NyPaT5JQqFt9AxuZAspUDFSOK0rEoDsvE5ZNmBSrmcKO+YlPkiU6ZMcDcp9uVscfmIlPNVGOfqZU+BF3HUkgb35OtDcECHHXMncQktqj6RZr5yck4mmLJ1TW1wfQ1IEarqCMStJM0MvGS4mWSzY6rJr/kUsJH+gqfXG2lHmtFflICjMqtzMZtncZ4g3JEji5Q5moDCL/R6coSVdLx8yLHQB6Y6WdMzoJpqFWOPB08NkyJiWOfxoE20QB8pQmQR+zcGhhTmVeqChCVOTGSK9N9kCF7JRMSpsVC+IgBrmspG41JN/uZ7hypfJ/3ayquP47yQN+JD2XP+wGonFr70WJfVFybaufhpO2mUZ5uqOzRhgaqGUFxkhEGQg5U0gVZJegU1Pc2vlLjhV//b904DN/yCp/+i4BPISNK0/iNMG9V5lmy2Pa1DlKPj97A5moDQT8oEXlri6HhZj4cJuumujYqCKdrLZKymWxXhG6aSezwxVAk6+o29m+2NPLMjB0mS0WpxMQyy4Rz6jM6hNKkq6heU4I3DlI1gehEMLl9KuSYzk2X1siu29ML7X4cFC92/iLNw+LKnCkTT9Np2HtS+ujuLO4477lagqqVcGPk7zMIcrAwF+GRkRFy7Egp8aCP9hc94NvOlBn2hUXxhlKgMaahOE6DN6lzBgF2qHFncuoZ5Ol4P628CQj8pE3hpiaPjVXoyLswrOt4UahVjz0YZyj0b7LeB3VREsKOPVK6hfoMX5oigtopKHofKHDXBzueQZQeqncvxCaZSsCZdtq46BKdW16HKB4arK/HsqyS8nx7H2Rewht2Hseg8tGkGiRef//XnQZ5RXVtliGLWIsxFysKkLAHvl0Js6RV+2otnv+qT3yv1XOSL/EZ6QBCwqjag32x7KpMbTqUJJCdIMJWLOBBxniycyIEECn8ToJXkrNDryRFZIgT/3uj7Ak7SqgY+EMbKjq8KlaHcs3GazXYMIklXDxkLg6IrExfDANvk1hTg/IIUfQkT3bW0aJ5K0ZjmF0I73ex8SoKlye4Y9LlT3PvXsbxoP6G43AEnY1fKRX95tjqLykCLyVlhXtorX9R87Sia9xcaeZiQJ/HKx8KN9Bc/85dEV78gQsq+rdVTFIFMzwGMrjudJoATqHMFA3apchB+zzAHEij9A+9GExlPZPoleN9GUJCygTeFsWrg8QBJ6Q58VTgOOx4mpN98dyqxHk8bRDOst5u0Iagbiy5Hw54/5GYqhzIBlgvN4hp9oWqpQaxyKMB52Sp1oHPPkt/OzsVR5/J8qM75mV4gXFa4iMVrnUo3NOmyrkxXpKk35QV0/W2wmVHU30CWHX+4yc5hiih47L95z/Dsufcl3/oc8qqAbubC60aQNVreTOspikju4Uhm97QvTXFP5Qkm7BTnycLWMczR8XpYfxMQ+oW+DRRVej30N95jn5dglcyzUboDHxHufhvLhjouMoAn93hrULSR9r0NTh4dSh9JykGkkmfvKCeWqP7mfSifWAQDnamTf13pxPKES8E37PR81Wzn+5iDWZL1oPOsStuI1y5qmE1djvnblhV5GulEQhRV1IZEWzLvypEY5uAFOZI6X/lJYCP9qG8rG+nuZYwJ5htD11yQFSuE/EItJFjKwzyo/EQuYIldRQ5CqspBymjvMGMWKP0owFfBkTTi5SRR7h6VPs/9/O+cdIi11E7tH8KYtaHZRiKs0fFRKOUOXpAjrGSYPOJkWCn01QRb653MliDc+xICSqJdKUnzskUSHJn7nFzncQ33FhRTprUItjyRE6xVVIIUyRfXKCePq9hcbyIHsoj8zMZ+Q7iGcQ5ZoqwS1uVAG+kv/fbnok8/P6iJQbm+gD0yU1axchwII1nqRBFP7akyyeye5tNg81Qe4iDEeYJwwp8FvJKNCLwbjULh9QQVksp8Hnxahb4ki086z4b4m0wkU1TMor66G5344BRH6ulTOKIpPKr9lQEMZanUBTFd+5ErIFw7D6WwP1GdYec9b8CyA78ziF6PY180Nd3lDNe6/2BQhsl02OZGO5Y1v54izr3D1iFPvGItmzk8DvJ8xSc+MvWc9Eu/45fbq0ieoS8wzezwOlRtA4b6CPaMTVnRlZagTF8TxeFR5atJZvc0nwabp/JU51WcIwhp9TBHFvBKNiLwbjSKMDH2bWC53Ocpp1XhS9K5f/1fPCJ35amR5RCpAq0yzchTAMAZUvuJlYhyKAsJc6qXL6LKurRIm0yVXiReuuDT427Au+7lLFd+XpSALQ3PMSdaBCo9vY7q29odx9NYxblaYZ5ZsR6UQ59w31qwKYym8rSgjfSXPetXiE+nm+p8ZtlQE8ATpK9TxxPDQDTQe5AkDPqmHB3mjgK5niLdPKe8G8nsnubTYLM6D7H7EOcIQlo9zNHxQkiFcOPXqBQbRk9QlwcdzjK1vQJrlLtDMRJZjqQSFsSyyiTMEYnixiLKQYvCbNcvSt5C2o7aQHs6mXcXxQl2pWvMuxd3JVzecZL7ikWbjXPTHIbouOQHn5ULzldIQebRJ0eOnWuL69qZxBHzhK4AXqjL0wfn0iV9zL9+j9Rzzkd/Z9pIdz7fbCgEeGPfRxEDZJgvEyjh1BvoPUgSBn1Tjg5zR4FcT5FyTHk3ktk9zafBZnWeXRvuvrIbFZw4ViE86Ug18UIFx4Qv4nzxHwVJDUxyv8xEh4hZeWEnZcSiHK0IzZA5RIkDQdnI5X4dTF5lOVq+aM1NmkV5pzhn7WuEOl+LdiyAyX3L4YTlLFxTybcvaXYvXJtPtmBpirWNCy362wQDMde6hNTavvwTwEb6y7/r/8WfHuba006DGcbj6YRAsJsd061FBDt6Dw6nkcbDDxA5MsjtBXItRzSGx505/NNcitaoy8MXHudJio6QD7nIuAAhkfkgUZ5MSm92q3yV2A3ldkLJmNvpQZVheCDwsBLhatCkoB6gter8MgQ5BxI+vHi9Id3inAS4wnH1Ft7fF3H8ub1I3AvRfy32vVLBvfjFlucci1ZuNCH9NeqKrlmjSxL/WYcon6Kik375v3r3NHDDx3zXr5KfyuHNiwnzrhTppGVDKIBVMg9m5huuNuRmOnpPE84TvFEgSUSBXE9RTNNfjG453NNciuLf0OVp/ZB+rr7XQ4fGPkiRAYPQu4Hes2IvFspfY0YoWsKgSCccQwP/BinDk91MKDiuSZcb+2QM8rjwfKVVa0ygdP3cZ1nz4sPtc9Jil0Fnr6HYhqwlFT60vkve5t9X8YiNcZtzf5F966zMbrh/RYlhLmWlJJe6Hg030l/x3b9GfgUqukQwIlGWoZfCRWd8KFgGrKebzIcJwdADcSOV3oEmWvMgXFEdwVBPUUxz+wlgSl1dmkrdHxIABSOmp8c+CJZUBoE/QrzjRF6m+tA7ELhwXzEsEKlkcSj0biA59ooyBZGsZqtKMzI7A29uIqo6uxY1wOVm0s9XXbhedaqFta+WheeA2HkptzQyQNJD8kNSgfk6hHN3zg4u6dK1buzKW0HmmswObPPrq5z94c2X/ctHpJ6LfaXbSKs+QkhMbil5CHE7JRKN6zJH1fU1wTLB+joJY4gQDD0AwauDFPwgk2eHqaNAkLJDMYTeDn8ADGWpeP8Gn2fs3WhDqkKZKJnzQhGSd718MEQmvQ1Jih0K/wayxIEqi/bzhEgRVcGNzrVyMt9yQkrlNV2EMOOywm2i9ce0mstZ4fxGRACR/JB6TNJxrcnVJNuyYxnmW1YppFq/7gUZQQp9NsaxKycGbaQf+z2/rtxIY/XUx78yxaEgEyGhXWQBxLBaELSqro8MxknW10lIOjt6Dw67kUbPDzJ5dpAXCuSemtagfLOmZwCY6qdiov2UALkfMtzGsGEcaGRCHwRFSBnvZXGW4prwb4A3gi5LUndMdIiYVRWO4q5FlE9VVAxa3bISykTTdY/Y/O/hslYzw95NBqKTbGmdjZPWSxmrxEvqHJGzB/g3CavXP84nqFhJVq9xG0jzfunHPzz1nOex3/sb1adeNeyDxHGg8nvY+oNMrI8iRRnRoFIStKqujwzOfWtVQpVI5EkMdqitPj0HaK9A4sCBPGL1FLxYtvFmRGC6UyE9MxDhMjXwelhJDHQzkMF2UibrVkIgZR7I/STuhZzLkFyVeZyLUAxMMTzOHOjKhDkcYqXuT6AKBHmT5ICjWgyoe64liFm0wB27Eb2VcAyS7FieDv3SdFTJ+rknKh+9fo/4GISVj1hzSICz7M65USX60o8DG+mv+r7fdJ/IwYdyrGBIrsqsytWIJ26owNB6mWzENF+3W6DjAwQRVnZ9ZHDhRryj9+CwGw30HiTJA94okDjaoMy3MRC5MK8QFUAy7ND7I3FC5Ga8EDZPDogqZUj1ro1cel+rU1QGMByn6iiYUJweZ0Y08rFfVwGolUvro1inuO7SBQpg6p1gGXSJOLvsxu9ZmiyyJKUwyVi2YDWDFEuO10MkWpZ7g0245JctCkuPJTmZBLvXLc6rq/Soj3u31HPOr/5+v5HG7PoWz+NCohQkrVmVi/QqMgBp6+rkqUL9inyRvs+RBVjZ9ZHBPZvuStDRe3DYjVR6R5jgTTnSzXucH5FkrVro91RS1R8dkRT7RFmCaKzsKnZsmtGxqtO0hhXXMggeipIXGjntV2U90TfN3SqiJRy1ToirUZU5RdVTVanZvcHwLEmCOfW6DjgEmk4h/RoqxyDBocfIJD/qmHYdS8dcQpMVBDYo+ZKPRRvp5+269Oiu44zYTeuqVgwWwUaFAfXaskG+BQo6VkwH+p4EIepayODCTbdn6Nlwo47Wg8Jh0De0egmtUFAK0BGmEK8YFMnhohs4MJ3PzjiPU6iK1fLKrMo1FmcFkqqKFNJ5mnNXrk4SPuQic8UZmzCZuObk4hyNM0/M55znHDWPYXI7oeO4PUsfkOAkxynFLWbXeoTmtccMsk0kFltUuRd8gz5IoM+PHV/yse+aei7yNT/4W26XtO/iEdzdFLL8c8sAJtedSuHJRtX3f5HKUIbCTEBGO4jZaqpfKUXHaVqCAKtkHkicYH2dhOSr0dVvpF5Hu4E8Kr2DH4gp7/s5f7RFrz6DcxAmWR6gEhbGstnCnSxD/7hAUDSysY+kSjaXBbgECXjJRPWhRZdTpN55P9JxylqroNe8a+Oxe9ciZ3epA9a6NKXgL15eVk+Z6Ji6bdbpOgLjWNJRCBcmkX3xvwAb6a/1G2khWdh2VMjtfUGITi0hmnZdr7P3fBtvWs3kqKb7legCfU+COKldXxOME6ynEyBDrD6CXAOtJ0qSUKDfyNLQURgp3Dmez+CcwCzPIzPxISIiKj441skgijSyblIeZ9vzykSAn0g1zi6sr1pmK1bZPdmgdirp5/dR4b10EUcfr56THP+CIoetc1Hi6TRK41ydgeska3AIjK1EWG2tjKYxl4kv/ph3ST03+7gf+m3RJz2KKumOawSy8oMhWS2ytSKdvyaa1mzIfVeRqJKWoSAHqknB5Kim+Ur9ArzPEYKtYuzxYBXraQID3yARCrPaDfAqD7UUyT/pzbiuLkWlZsz0dKfScBGCTwUp6LuaKJoYViQJrlUXAwiYHmcX1hfJsEiYmWbXeRlxZO5ZLmdNuzYSGhYXOmzdBySeSrljHcsPQZ1w8lcvFKb5/HLnVA2PM37RR4ON9Nf9MN5Isx//yetCsaXeZB4PspJ5xsmzQryOVhhmxP6aaJy+rwDf7dh490VM5gJzIru+EFT40CRWNPpBgk6qihiU62uKWPdeY8Rpepyqo+indoyzBxpZ6xtmygJhzURRp57ODmiNS16nGkJWplQFeUKauVx911zO6Ztjl0Xn6uScZt2qc37MC9RwaJnJ5HM24Fp0UEvSKJLIpfPHOnVMO0xf9NEPC8+ee4//kd9Bn7Tux079mexs9SY+36QlTOqSNWrW3s+bo+LyrTDMiP017vzOerNPtR1v1hqHwgxAhh0dfxWilSIRMQ1mGI+H9Kn0jjBJm5pZNEF7PDlCSgY+PuzoeCd9mUpShgIvBMmxV5xJ+eFhq+jSOGhDnhXlUxQF0tJV+Id0cu0us3Kds1zCGjYuYy3q/cfUhmUdh5XfmXj3ug44sH7KTnRiLWrL0MALVtf6wn8ON9I/+rvtJ5P9rNKB4Udb+dkvcsI4nQuQJ+XJGiVr7efUl8ZCvR9yGzbeAy8RFnm7Pk8lYFK1026G0W40YcGLhBR5MPZ5sFzm2cBLU3iTND7pahZ58SkzOMPYwStARF8YPFaIcqkLZsohz+fAKPKoSq5an4RT1qo5Z+2j0B+TaEOj3vWcHtUSBf8BopZlGRcl0p2P9IyQZdhfh6YrRcE4+IKPeufw7Ln3hB/7PfqTEGZlHxLxR2koLAKFVASWg9GuPIk8KU/WKFkrn1NfFgvDSOzdiIZ9G/JiFqdBQuVm3jPjb0QDHxNkXZ1kMVQJOvqNppbAE6mcCt+G/j0BDKkrS9H6Nvp+ItoxlFA/a6Ar6fuH2ac/bDWDPC48rrRqLTWdvMtKHrV2CeesvZe1a5dvWK4H8bJPdHz6MpVj4TqPPjfFNncMQxkj+PyPBBvpr+c20gD1xwgZeLc4r0I4lIpzUVIwsytPIgdkyRrVODFCWc6BhXq/p4jnN98gR3oWEcTYofMrvUgQB10PGey8hwcBJl0HHEQjhW8jzLK+bsIQ7is6URBqVf2sfFhwLYEgsczJq0BEtQiIzth+NqcLd1DmHMqPWOMM+9YB3cJ7P8GlnItjmT8/FcsS7WNqGWdYu7jkrrV1/gNGYd6ubHeOFElPn/cRD40dx70n/qffH94xdB/RpBaY1B991oADorzC4lHWEQvzeGhpmt2bB02OkzWKcdKGHB2WowW6jTUQu67KWnlrxrnogmOfY2oz3qq6vhzkVWRE4NtACoVvIyjLgx53HqecoOZcZecSGGkJMSteBC8cpkACcUECwpum5rPuWU+Ny7Uy3RSnWsDZD/RCuV+6P6LZZT4O3bKc+ozHQZZWrIeVCnMM//4QcZ4BleBzPxxspL/hP/8BeYcqU4MP8L4wg3Otzts1xKAop7BwkXUMwlyeVppmduVw5ElZIqRqLOMcsnJ0MMyOSzgYUZoepyAU1RSfo1/kEB8fDNDhsW8Dy+S+DXSBUXmLeM8fujZkKQjVwIjDKjGg7xtkTTiVTMjQmvOMKu+uRTCAnEekRxxbYPKPhCzCfcIkh5/sq4c9/8e+MCrUS5lcO2lTnKBuWeGahrKpPK3pcz78nVLPRZ/043/Y+aSAUKUSfbzEnk42JiSqT5GNdAZV3qFYcckUCqOsIxbkaSVpRuCFNPIwIU+ClHSyLllBSsf+jJO2aoE/SVTeKoSHjG84zQg8w9AwOQPz3u762iCaYb3dpDHaSPqeDJDFrtBHka1tDlnWpNqxhNrcTUUGdxUHpDzuaU3GVevqoagxtRzeJE0n3AMoOcW5vXbk56i8RtWrdcyLJ4IsvXM9Xbsitz5POykqJ1yTUHbz7/8Z2Eg/+b/8ofzLnkoo8mn/1bZnpk5AbpTnBCBTm0Gds2sQbsIFoiJhxKJCtQyMhH5PIw0TigSOrG47KnBpZY4kLy6Bv/F4Bj4mPHx3sOEYGLgJQesgc6DJfpV+ib4XEpTlQUe6Pk04E5WTSMTnVokZWoMoRRapC1YQ78S9KWcTrF/IBLjmMSs4x3E51GUZA7FTkW5e7hrovCw4SWyKnbmH9iCQFemqFOsUSYeiKKBkn/1P3zH1XPwp//WPpjfSHtF2r5LM1BNuKyvPDOMEc3kd2dhmUOXsimNwmE9QcJhJkMNTZJVB6PdgqRspvDX5vTSdw2WY8eZlK8xAOvMZiOCJbhYUpJV9fzeaaVVuRmZFzL2WWKx7LQfiKlxVSs8Mw3XQgqEN4dQ6Q6Lz7pvMt4SpD+IeSr11lV2mUx/GkItb0Bnp/B62aLcmoZ8IRRfUPPp4hmmEdUQyJOIdwpJi4Wd/GNhIf9NP/nH7iSE+Q/THaiykfQRD36JaQCSq4SGmRbVIklNeagwy4QzifKwwBkR5BKLuZlBUxMNkEfs9WIxGinVshJ7Y50li96SyAR94EsAbxjlkxXAYjMYFALMbNrY64+smQ7R7NbkXEWzFq8tCqCeWES0dYzfnREEH73KRuZSA3QnGhBKyOrrVDNSaZPDmr1qEbsWXzQmOxZ1n8YZMSc67sACZCk3uKyZyT5QYWhQ5xdJGSDu32c/80HdIPTf3zT/1/Ord54bM+1H8Nm0zDkgKtS8BhOJantQV1/F0PUwmYlpVE+Gc8jJjsgm7VblIcZkc5uoKYnBfDk8raGa6Oehgnu16Pa0gzEz4tqmhtePd4HOMvR48xWTjizgGGRTeDTTLD0QER3mYJHnxU4eBQryUIhRZGpGsUF9VRWUpCRRGsVSec27ZQtdccse08SAubT0H4HZR4o3ZBMK9nJpumsUHJEqnrNmXp6gip6o8I/7MfwI20k/76T9J7/7ud4U0lUHlb7xCN5DN1lMdqbqeUyWhuIpI34lWIXHdDHAQZnW+YKBd4lxIuCNXFskqk6o9OfgBC/1vqwVeJ2lVspoBII1doRfJVE4gpB3dPCEorhSIFp2nQPtky+gIUggrhgllDI6Vjlazu5bCm8kIK9+1iAplLkLez7BgrSjFgnxLubT1KAEbI9WGSgQ8N3T2PLu4OJvuVHU4JuuLbYr8MmlSDcSf8Y/fPvWc9Ok/s22kJz4ehKGd6mStQqr6QDxbc189gXumVhAqtvpJONYzimpaXDcA1LL0A5y6Y1DlEm6WuirlhqtRz/pDR+f1xHJ6XyDZJv44vRXOyDI41UDIh1NEUKhIgFjgi/SF/ZdXXCRIo1rhIan8TDp6WiVOqDL1QaapDIDil6aF98xx9b3rS+Q0/XyLqlUck3UF8bU4cH3gxR7slQ4F1V68kG66gw5alXZyDcU2SLA7/wAn/PQPARvpb/nZF/DvWCKie3s7dWXQ+R3AIPcm5ZQ3IfISkTSlqsd6Olmm6+g36R7aM8hUhWV1dSY+TERkC6hke/NUYqE3Ur1WSm9+VPk8wJC64xSEopqiczCZOwVjaCggKAGBBNCpVZGVoSP3FZynsumyCNSkRPlHqCzWra6muJk8U+n3ramm/IFpbV4yX6fEXPXVa57eowB2rKlTfP+61pLXc9DC2LQH1NuVctF6RGkmaxWbPMG/+5B/mHrO9Yz//kL+Xd1Epr6vavKoc2RD7Kj8S2pP1PUkw9gHFGIPgPV0skzViWqxBwixR5CBkPCuQT5xObGwQ+czIkjPrkRQF5JHQ5+HF+361hWES3fg2SBlwusPErUONkcOiKogisP1VHYs7p/vGqGYlMVJVbmAc+hNlWWQYJhfvgDVUnUnX0AnXxU66IiWQG8tTr+OQGefM7mH2oHsHKB1HbTIbtrTnxhZSVI0t1iVS1mCk3/aB4ON9Lf+3Ivyu4F+WwjeLJVE9vaqEOfoZAehvWto/YOMe2ong+qPKdkjoRUrKhF2gbvxcLTCoafRDh00pK1MqrI2YjzRzTXwbpCzaLJbJdCXj/0bu76l0/6BDMJsdvq5UnRQEIcJ8cAfGWQhc4wTB8Wkl8b5Kqss05SpApvEKYJwqiABnQfNTpeaMIosTuTv6pr0c/uSDtMnRcTy5Wq4F4/trGsQgtZ4hgXvLrkzwbSdNbaBUY1P/aC3Sz2n/bafjxvp3R+PKoE8H1BO5wDw6TrwhdVrGHo7GVNotmZ8UrjF9YCC7vZBHqFrWIcWiLIHUasUeWuYXB5Rvo5/g40KvBuNSuGFRJvel2vhJyFAXRn5PGIhCHVEHjbcBpqZ8QRJVoWOzEMDvKkry8aoBuYYllVoyLZJf0bx1YRIuHc9I47ODzllrR54HTv3V+tQLuTc6x7WP/ECp8stWOepan/qPwIb6W//hRf3P1FVdNfHj8w1kRFYVq1H9W0wJNn0bueY9QID72Uiu2oqzxIQ0z4m29BXIf2Gk81LOFktRd8P4XPJC7ZhuRcSpZVB7MfCMBp6+4L+/nyQHIRLd+DZQDK1OwnHaqxII3ERD5khMswjKJQknSpjspz3yTNWSuVSNoPYxgrVhRUcmZui1Dvx3gpwomMmDvA0x7z++LrrPvELubTcgmT7Ujj3RAJv+bcf+A/iwHHvO37xJfyrTkT6bxHBG6iSCBw8ybxqTWvXosi2p/6uf02Onio6Gbu+DmCnpPI29TpuEOrXcFGx1oG0A3UVbtUdvyg05490Vt/1tsFmhvR3kwaCQpaMJkmn/jBM7N5lWXLRIUVCiIf+rrvjHybO4FMg9yGmz6OnoxQliSJ5PQrn3pegA06858ZfMukWu2+zIeGwk7eG6gTE4YWveUD3NT3+BR+yewmLjuGodfzbDwAb6Wc9+6U7303JXmXZ/RYFCfblcu5luRIpiSwXoVL5CZyx9QqzTdXGJp3XQfoEWYCEUse5gQjQhPPEwOipyyBL30/sMQB8cGxrFd2ZTkI6lGY7PgokDwNlgkTYGKutwJC64xSEgjHh6U5mNhQDHScR7KoDrWXsoYm+8KhKIRCzEhxQlc3sqb8xV3nM3rxHrWvj6Pxr4TdG13UcPdhjXLS53ANewsJzvuzY7q1MxfLJ7/+Q1HOy7/ylvRtpAMi0JGmTb2fWZF+yNo+7We3KNbUeoJ7yA5yx9QqzqWoDFd2VkQ3C896tRWRIU7LcRSXTp+eAfv0bXecwVAk6es+Mx9P4BJ4COEKxjxC6qb69E61CZdjPmEEy7BlmCIJxnVaRZsbWCpmB3periyUYnypdK9atJql1pg7LElUclddzZG6OdTXPv6c87fkbHu/5TwjJ0mUtPsY96f4N3Eh/13Netu/dwLj7SRUlk3TfIitcsmXr8wzzCcg5JjOp11Cp1X5AMsYnZRbk5WCiYHpc1SmSaKx1kLk7TlJf0xd1sjtclBF0fSFIK8jZPMlnXeLjBw106r4H4aRRrfB4gnzGmdQDEw4z4m4OOshacqCbtEPHB0KtarbeRvLvSlPM+1Yjdzc36a6VD8or7juy/Syq79ModjhYeu5zcHpEp2rPjjFwmvO6e5kbyxJF2nT3bj7p/d429d3ou3/55bNfcs1RfbWxJH+VZM2aQZbUXbXWcZ6BQpRjQM4xmSnZ+u5OVOSvaU1iP7IKXMMa1exQX0F8xSfz5QdE15uDWMV6mkCrFEgcA5/QsxEiSk/GSbBK4PFkmfDfItTQX+Vm6CiYFRUtIlZOBkTJGZIXpBhnU9QjpQq/o1UTfl1Kh9ogZGfewfvsOE5V91zHt5d96x7uBxdvGE/F8mUfdB56aT/xfcFG+nt+uXwCY+fgN2yVflm1bt4dVQ5Zr8sS/9mPKM9AsXct6S00nSMZW78wI5DxDlokqpBFc7+SUYYDNxEWeZkQ6+2k8sSwzuNpfALPRjizCj0U6/YQQJy6fXsVZcR4up+RDreT3SwhOKhDEj3IKU4jFALZ5B8/Eox353qH9sM2pSvyDnLsLnHUsdecqs4sl74+xd7xkE3m6c7PQXvk3Yk/8X3ARvp7/9+Jq0ZyHH4qXYH9NToZQGjpsYjzCqouXaPLEP/ZRzeHMHuSyddCKMGUOA94u8s96CnRcVchWknMyqYSKcILmJCb7Xg8ZFh4mUAqxaUlK2cuRxOeXBE/DeDFtL+TtVswBgWSRFeJKErXk9sAA1MKY9VUocjUa1sYbuTJ8L6aPHvOQ3oGOdat8qjjranqnKqsh900pUWcci0Duvu7bvCCDmIHh2ycD0j6r9/776eeS/99v6q8Ujn1yV6uE9TaeZ1mSElB7t1lxLkElZasqzh3n8PkBxnTswJgwe5OLtbD4VRqjyMLY0fv85TB0N8I4kTXRwbL5CBcgQNoJPR4wgyr93SDIcxk7ZMk8Umg92RZq5dlcCpVKSAW+qTCoEJScQGA8wCbPINQycr6fjqaZoWl+yxJkqhyEan71VauZYSylkp+yuPQcvq1qfeEh+xMZ1l/vk5yeESRT3gvsJH+/l87ZitZc5oq6WU6Qa0jjmft2l2ilGtJym4uYYVKJnMNVCCsyoefZKBaQmcli0OBl5GU6U6OrpcIdlJtkMcr8JHOoS8KwqOwBsX4M8oIwDRWjPWYGGDDNUHYV7dRNyMusEFmEeQRFkqy+V/rAL6pFNHUtTbBqUIEO/Mk+/y522D8qw4zsy4hziTPe/xGarCW5eeU4CS7xVMcyH5O9ueCQaF/9Z5vk3pO+gO/fuwWNyQ/4etzynpH1Vqdd00+kCB116eczEjYVPmAjHewRQLjSknRT9PBqRjh0B8EtIr1djwbZFTg8yCF0OPBUpkH4S53OpdTA8PYKxeXcEfIhjru8YQC543/CKmUYEjnkGfOIIvcj5VgpF6C2jCgypeGsioTaxFZJvKKwHmPqrLR7oVKxWHtQxa3L+myTeTJdqPnpD3XKw/7X8KN9A/9Jt5Ih8EhbyAdp15HLnVwzaPqhHSXnNPl0aXqqJlQP38V7Q9psqioRb6Nyj/n9ZTBMAcpiJOst+PZEEgAbSDPKBKFWYW+IcmKWuBDEsUmfPD9BB8FkUGxZjUDvUAQCCoklfkKTp8sMmdHJUqARUNLEIgSM+zxRsrbY0cu4j22b2X7jwux4hhVnKoOx8760H4VG91zn28ZR53Kj3/k30s9V+OHn5f+U50LOid5KSdeEyp3cO2jjvGIvCHV6nWuzAdyla6iQCVtnUwuYpqvCiK8SOb3qHOk2Y7Pg8NgNPB5SK/A58mbQqE+EsW691IlHpal9Rutj8/Eh0qg4wZBWtXMholuxg5MDTZdpw4IlW5H3yPY5F6srHzDNPI6Y9pc8vctIxRPiwtNQuTfXfLoNXP065LRw5caC1z83vpOfMtdDvPj3uOtU8/N/chvzW9pGuPhb6g+51zPKWqjlIvz53QL8x6R0+dali4l0uXDC1Cvhfm4ifJk0USO3d6ugo7mSaFXqN8IqvIwgfPFfwQkFRDzPiIyKBLDjIicLpODsIPJOyT98UZsB8LU7Vs70WFNLJDJh6pMUVYeeYoKpTHJtb+I1LJq/TVtov2pXYZl65Nw0mIV56x9as5zrNP7eqHxYx8BNtI/+tu7vs+JXMB74hLW1ZQ7qD5Ku7jGUblzqsXrDbicu9OmBFN5gIn2d7JWIV7JRESpxUUQ+l8dgDBbADZHCeRetx4f7F/ROsEUwoqxfkO96Qly3kNGBJfroki9sQXQF7flBcnRMgT6BudR2IqUMXVztcFhaSQYqjtUXjeUZxMqxQllwmXrkyeqmDbuYLKms61c7Xi/d45z0+GAb6x3p1QkqKUf8/C/m3ou9h9/d2Ijvej1adKc8XXvlj7BusgSi+s26Qb5d5XvmKfzKowiaU/kYivWqc5BGNopJmunWAmJClSIEiNm6819Axc94VFsr4RpyNtpvaf18FlKiNZ0ZztpPTEMRAN9ZCya3TwXFa3n09J6hEgyEJFh3jMuCRRjcQVtkN2dFcW6UlkeeTWBUrF0pXgBnXfQkqWc+nj6qDelKsPcse7eKEMEyTT1PvrdwEb6P/9++qhWx7nyJdZt1fugVEflpVh5QhjYEotrk+mOrLE4tyekXJ3X5ZtOCYxTOSqTOgdhKFOdbN3QnK9bmfXRAf7awQYiKdyqBr6NIFNs68FCxZ5N2THgEBgNijQrH+gFgqjIsrE+kExCNcA5NCUyjInNJXA3k2wyIcWvuzcyYjDdT6cqxpPTzOXjXYJ804cwbZzk1PX2Id9AKo9r4U546aZ6BCjG1f2od/k7qec0P/4HO7a5lXP1W2fVBjyn2ZEPWVcfKKCbenFdNt3COk2qxcewEdKuzO1y7UoHzFN5KpMqByMW5eh86IZ+wQe2UQg/5Fk1dVFIHvzUASjoLoCY7U7RWTJNWODMAT53m5bX8hTP2E4I0hRtHSZkJGVymCELxrWwAozGVgLaFGbZfIpCQBq7Cm+XKs+OtDN/lMqw1lXHOeJUdTS0azpso3lQ4pNujDkEG2aOj3zYW6We8/7EH9GXxCVvHSbJ8rdlSrgq79Q9BpDtk3ka20Qe0jK5Hg423cI6TarFxwDZ+7pva5tOUxnVeRiDKE9HNPQ3gtYxltBV0Cw/YAmqLJV5Ak6quvkTb56+G0QHZdh1kNNlsgkP9D2CqjzISOdE7khKxkBPq8SOEmAlHhTsKlmiyz2q7ck5VbZjYkLt9FThlpBmUa7M6nwjTluvv5k79bHvRLkzjfLLPEbqUD78ncFG+iefL/y4Ko5v2anoJFpSIyVZlWtFnpBjZ6Jsn8yDbBM59vp7NOkW59/Yvan2pBzTqSqjOg9hEOfoCIc5BoISBsJhUg/YUor0Hiwcv66EIE3RVl6/UYZ0hkwTbvW8pJ8bR92oL68o4tDrepmgm6YjnWRkKE52XBjBB7lVpBlxEQ+bZZCHD4YIG+4m5cm2ST8JzrUmszDLdDFs1H4buYR7gsWvOZly0InQFz/LeVzAcN2E4J+901umngv/zAvaK4369O14sZe9TwaJdtWpzLvXnBLszuNZnGtvnj0b0GBV+LV6jlV5PLs34MA/lYowifN0hKIcAxEZFi4OySZOctiCq2xFP7YBhchTRRlxnCaCbHLWQUyySRDlVMv0EXe2xXIgpLsVTKRTT/RvFpBEWX3Xh167thrR0XXouMWJ962A5oicG0fmHqGofcgyz3DsbhN6rRtszP3oOD7sHcFG+r+9cPetv2FXwp2rmbIPTNNLIoy7Dq8y78rlAQlWrGtvDrVf4zk6P8VevwckmMpFmMR5OsJhjoGADAsXhmQTCwkzpK+TzIWYTDRVSLeZw9quc3D5bjL15RVg1UNfJUhD2jZIBsKxO9BDgpTW81lSRFGmFg+tWaAqQrDQr041NohTBqF6AQNW5xsxV0+7qeSrTNSHlsFC1m9+T/366NEc84e+w99OPef7uZek/7MhxRmOe7rkpFFlU4jVyxkYJg+va5zKSZhW5FHlAGKRL4kOrQGZ9VZikfdoDxOc8XjIUDdZpJEIPBtZKvYAoev2bVUUWyuYTMR0d+NNhsrkIOzo5E6gbGN5ghGCaawQJg6yVjt2J4WwzEiYo0gmTl4x63ME6w5/oPibTN3Ue+tCOrmUZaJ8zdrGm6mV50BLW5tdzcHLjOfpxOdi/e5+mn/yD/9W6rll/fxL134jLUp24nN/5JpUNoVYvRyBYXXOVfnEeQjh0AsEh9bZYIQi/0zdmXpaTycZGeoWLyCZ0OMJUoXeo77KJX3fVkX7Q8dQENBtoodVwEQnb0VYg1zuIMTdKUHyLMHarnP2hXYw5Qi0NRK7brW8V5a1UomXQgvD7M4cc0zkOss6tZyy9jmPcwWnXz+1f/+QtwMb6V94+dqN9Aq6CzrRao9egyjFjjpH5V+Zd28uNsQEhvUGgkP9nSAZGi5mkU+g98x4NoJc6fGIr1xJJy5RCUW+jogMdRaPI27UyY2JwvAo8lSiNKStgoRZ0mr77hQdlIhhmZYThFnWO0yKqV5DuVtZZyPYJr2Z1j9OK6jJSmJAkEHIukw41cK8Yk5Zk6glmxqy/0vic5z7DsID+uCH/M3Uc5Znd36zQ8KFnQIR5JoPOpBu2kU1j6xxRO4VOUlZx7uipoeV7skh8CKJopYnyxW+Gc/G1BUleVRWiYcIDmswAm2dmizpaFFIdSKjVmapRGDY2gcJm7Ayg/AY87f0Q3kRhJ5Cz9JIuv/OgKFyqBLoqxWKV/e55NfLp1EViJCWiTwMMdO6fEOmLn6znPK48sN1M9wky4/xg94WbKSfs3MjreEWvAwnPYZT1WrqLC68Mj+yCvOQsok1NJY9OZTeIJ+o55n9hE/5kkdlJcRDfyUg9UwSNvewKCEReDxZNtCrzznQl+6oSHoOiF1OMFRkorLSjwuk50JbkknipnGE0UGQpAwETgdQyQwOsZBWzn6QA4QXTNGZO/WY0MwfMRDBvjMHYmUuDldDUWbfihYdjyjNolqHcr41fuDff4vUcxvp555wI30pnPOAz32yT1H/qBohrzJ5li9Y1Ez9mtkc059S55uyJpPKS4hF/o6IDEnqDApr9ZAsVXi8dihPAlFaIBLpPY0wTnT9OSiu4pRAK7K1Ivr9TkymKRzhdRjFti8LZY6iYvSiNLJaNMkLUoyzVQrGgKdFIgZeJLJ7glCsVnJUXgLFBX7fqhTuZYd/wvN4Qj7gbd489dxG+lcuZCN9G071uY7h1HWv4bVaucbduVICdZ6dvg0/FOcghCLvy9MzwdDfETQhRivVbaDwQFsT5EqP1w8tSdDVVUFpTg42rFlEF6HWyaJyoA9hgRLoPFhbObuJPFyeRD2565Y69gZFI5v8LphZaz+XiwqKYQkYCbw008ZAdredg1lUZyoNNi09YpRsaeYTM7f29/97YCP9q3fwG2nPJR70udd06vor611qro09OcVeRijyz3oFyVnJwIvCUu1A5wkSga7BedS2ZOj6QJDUEZNsvm6hSCMReGqCZejrCKpQdxuIQh1lDhQFqSV0EHrWob5VFv2gZIW2DsR5GTufNUUEZaOkEgp8UITkIq9HLOwT0vC5FlVx7Mw0tMvzT6/krFvDc9aW8b5/9/9JPbeR/nViI335h3AdXNp5vI0fi5V5LynXqrUcug5h8kam8Um1Qp1nx35IuhyZhwg0U4wZTbMFMDMeyK77KuEtU0xiNM1soJvJOMFMJ3C0E3I0E13mvpcSekgZnhxmCgJexUYUx1WUrie3JbAhjNQ5PFMmnpxuf95+BmH+6WUsqS4QTi/whOxb4/v8HbCR/s078I30bTjASzuGc61nZd3Vx7A334r13IYcKq8Ti/RJJM5dCZf5mERoulNMretoujjflJUwifJIfGGCzoZmOzpPjghvfWELL5MCKkN/mFAXiQQb72VrCctFWRILPRHgFPsIIZiSpREXG5NTrcnJZ+nk312aTtBNq665e5E6mnJ4Yu9qJH8D3nu91ZulntM/747+asc5uIYTfUlrXL2WI45tRc5LyeE511q0nsNqEKJlPiYRmu4Uy6GOxhPCA01D0mttlEGcQ+LtJEOhPKANbZjWeUKkPMgBt1KZs6MaJsACVp4D/YQoKvRsFLlMj3CeCVcCOAdJ+uH5FTSQqfT5RY7Dt27Ea7O85OKER58SwHu+5ZumnttI/7ZtpK+Wa3rhTrXWI+uszL0i16r1nDOP1nNpesh0rYExhCXJnWYoAwJJygwhFvkHIhSWagWFg0Sgk23knCKJRFoIY8DT46yBRsb7aKmsTladbGPsHMAk86sNgVaqMFOwdn3eriMHd663w9y/edHAJK+mD13CwuyP/FtgI/27tpE+KbfhZF/SMRy5ltW5V+Vbua5zrWmmrsZzdP6aI9YmzumEQy0QiPISollfDZIM9DksySvQBJxOJE0Ju9oQbBX9/CDaF1YM6pC56AJhVqHPuDBWDPQbSRafdJ6IyolZtMUpWQT55haanmmaqLjG1GIKzs5n2JmbokkZJw6otIv3+Jt/I/XcRvr3bSN9K7iNL+IpjumIGitz3qZcp/AcrYdovFLtap1naU5F4UY68IawML/orpU0QykQdLVVsNWmmW6SSJR0hN0cdDDPonA3UQCfy7E+kGSq75+zNHZEzsqzIfeKlENilkGuqVK8KUcW5yVJcplrakERxoqnd+SfYViOFjziLcBG+g+ubCO9///rfnqu6gQv5pKO/Yi1rM55G/NpPZdaY0PjlWpX6zxH5ITM+jzIK0nkNENZEkh1nq62CrJaIsDndRE+yFAMudfN0Qb7d3kimKZoG5Osmi5DRu9hU+k9W6DjLJAikbMLyhAG+3O2uLNzRFq41ir//nJEBkFSed39K9SmePib//XUc/vSPzrhRvoaN8HXxMleyAvhFMd7VI3VeY9Y50xO88g9q3Wec+bkONv6k2iorQSknknSTA+KafWFVrhuc8wkqqbLkNF7iNDwW2syHCdZZxNolQIJoBvskp1tZz8uVcy2MOdG9QZaWyEvnGW+HnCuXTRilPrd3uxNUs/tbZ9vv9phXBDnejMeVfea8u7JOeO9VM/RNaTaa8lZc1SNkx9jFSS1nQQo1C1EEyxiXxLipw6tsO/hE9O+cWI8PdZDokTn8ZCbeqEXMzbJd1aKBQBp36XI6WHk7bQyr0dkiaKJ7JGhcTozy7u8KdhIv+AObKRv2zfht/4FW8TR5+nI/Jeae9Y74zuVx3NkrdU6z7Xk3LiWY/McXl9jdAS50rPpeRuIVCLaw+s97VRfD4lhuT5SbYmFnvLoEHlqOiYX0qUcqEFYllegYiS8cz4nRZFOmYREg9rmUZge9jf+Wuq5PeYLz7yRtl/3MGY41Zv26DrXkH82x4zvkj0eqU+T/wjtudfpOecariWnR6OFqO7cSSu2EMlZbwjQUXK2o99oosKDzSpBjZpYQufpkta8JKPm9RDh3J0E07mFr5NHV6O/3hFja1IoarzzXwcb6Rfdkm+kbUN+mVzLm+tU6zy6zsr8s7lus0/jOUJ77vqea9Le1uOiEHkrUdeDgmXAehg9pJkVeDZCVKHfwDscmQfKsEPoryHz7c8FGf4uOkfXNrnaobgViPNP5N7YYW146Ju8ceq5/af9jrRxNJfyBjvVOk5R56gae/Pu8c96r2nNd03PcRuOq+shgqyeCsBvhlC8FZN5Bx5Ijjayvs8TFBO+gJNhpdy3EbtCn6eRTm8/W9hEOKCu1zXQQXGNidw1Q9WCGhDSIUqjr9XjoW8CvpG2v0f6fNz1E3/08Z/q/N6G41hR4xJynNu/MZvnlL5VxyoF1VMWz/LZJEkan/Q+3xG7GqG6qttH9/4dqz4ft6YNUa5BDs+KPCtybHRziQo5/EvBaqVJ9q5FXgdCug6qVROyiFKtqZdJ6RZnbUC/2vFbt2wjfasOBnCNx3XUmq8tL+Q21FiZf2muVclcnpiqTrhtbiYKIcvEt2DZQDu7+araHGykmxwg/f064Xo2GsV4giUrd+TwBPXOHH3cVpo4n7nCAbVDhgPybilwpp15CXuc2pn3lAiWuvD78j7iMic6y+oC2HD4+hwP+xvg75H+tSvbSF/VYh2Xvt5LWx+7nioQhztXz9h3Zo3kJHy2qTqCvJCuKgSnVkGCMuXB/vzlCrVgrSDF4TcpZt1TVZGJzyDOLcw3B9gBNt/mrasVMjXpVh9LwqXFmY+oQ2+eI3XgoON0sJnJwLp1DDN1BevW0cK+KIkTnoMR6gRrz9t0ttMbd/OwNwX/Z8PnvvxEG+lcZV25/ZmEGQjZuqNwhGTzGaecB7zsbMZVtVwelKke7yUkk2VU1VXkrem6duT1RPu8X40rdcjmNaeMnaUVtmSieylfedmacqK5jGKXRAjOyej0rKS7NBScO0crgJVV58btpGl9mt2C7KEde8yHn9FugcOrJ8AroHrxJll6WP1kpzqDJ6V3UAe+fu/yZm+aeq7ML77oxeNzu+hmq8vi1GvKZvh0c7XCpmDxGjEpOaixrlybm0NfU567prW0uUIXvidXb6gb2jVA9tXu56aQS51yIC7hsfaUxKWABZ18bfF8bGXD9bg8CJCvfRC+Cpqzwn+1ahDEtxY4Z+yG+jq5vvd4798OXBdnO/fXfGETvPbv+v+8Weo5+c//8fN3bpOBezIRbdufF4Pz6VO2pnEOQqEvHMA29UIGVNl35SPM6uXyhvoPL/3fTKJjO9/wFUwy3XSHjkOYDMvASL2Y1rAgxYXAHNs27S6s9LX1cu+2K0/18CizYN/5QG5Vqn11z4tbe/wnAnZw5FGFSTJirOSW/WHmsjj4zJ7ghXu3t3jz1HPlfub3fr+63hKX36krcjHl3s48mWqqn3bsp2i+42Q9OBBGgvyYjkEVmsuDKULSIsozELlwX0FEswea06tUHiY2yToDKKVEYKoksjIdFREqU7pigzCB3jHFgWXq1Idcm5cmXZNMnAUJy4D0yydJmFIV8nwNydrPsCO/B9njIDyWh/CEtm+gG4kTzfReugmXV1tO++3xAWvOKce5L+uMudVc1oIuHOZkVdMP/5tvkXou9BPPex6+X6huTFHcWMQ5GGGa7qfpe3mYXwNgfTgQRpoExHQ7xXg3BuFNwMqEfkiemfDW9De3TDBNl2iZyK9gfgqTCfD65o4UgQGWGiLLV0O75nJ54nQVJLV7zt1e1hcMGU9+HAxL7mVnvhuC8uR3dWgqDtgV6wN0ZCIPR3DoioyprHGYJvPT1knRNNwE1TCBBjROQqsEXg+Qxa7Q52mkZWKYpeNdTko99d0zstD+A1ceIQscXnUet7Syugte5wj3IX3E3/5baeCGP/6rvxr3OcMbTkcAQq1K5tsoU4yvk84HyTDrIaoJE9CbQ3ISTdMKxrfRTdvxdtN23ALfRh4pPBk33UYIbdYVA95Mp9HWT6ExAmFHUkKDPIr1dKWiPNWqWA8IuC6WsSaMUEYxZ91RsEZ5iOJL/u57w1yC6bJqIzbgbwKZZGm6RBkdhJUotjydHDUKaUK8ioiTF0fqhbnSz6Omv4EGGfW3sSBcunJPQfBaNILWwaSuGFYKBNWM10mKqqNPoeGRo7AoM+uBNLMCDyQolJ4urL0N7Ky0j5XHnHj3t3rL1HMZf/SXnpPuFfydhd+YMAEwjRVjPYTcVjBaspJQ64eEG5OmSqTSoGEcVIoIOenBASIdARvQbfQ9VSgOGT2bhnGRejw5XK/rws0z7OdR04fgCTRqtBS8KESGOTqCFBpUoKlCeNgNumEvHgeVomUo2IuuAKueWmdtmrgAMxZZpjUXfBZFenLjAKaaeCMvE50QgJzMhCgr6XszTtYqhV5PJY3Dgd+F87mq+mGUhnW/AdoChMZTTTevE6QJdbKPJzAujBVjPaS77o1GUiZId54kdMhAuvuvz0YKFcVYGxk4GG1Njgj1GScpKpm+RvSaeZAMe7oZOj6KrFD6OB751n839VyWH/j5n493C/JGw9x90nQbJfTVVBmOtZHmds/qIHk0MLcbuGYiT8WnKo6Gc2v1hBlS62ECbprJ1FJNx6FMG9nxOgh0fkg4CyGe5rZ+GKbZrV8G4Sn1AO1MgJn2EEde6IRgsJGxPjoQZpUeP40jlS4N4xOINbJqQsKEhUeWjFWp1iIVCy/AjGzsnr/Ak0ynq26HxCBPtZ1MmGmnHeRkmGay8FThONR5ImWSdQ98kDwbOtsGOc26p3yGXaCEYN+TO4GyidtoJvJUiRAaD5GLVBI6CBoNtBthtm/EgHDsyvUR4tjyRIkQU47GWb0ObRxOxS6h2cihgRIFsIoPsdkCw+OAgDDzTsFkSdF2XShIK5tZgQeiOt6NJNvU7/22b5t6bu57fvqn0Z0jDMh7CXODSdMl2tdtkDdn0uom4z8JUoQIikZG+NxUma3iYNisFQ2rKD8oIzydICfDNJMFA6Zjd6zbGL8WbTzMDDQBN10ihAZM9c5ziPl/wk65BNqNc3gIg/KHpNwppKk2Qmg9bAq5Hk6iMJOCDLipdraaAcPY5eN+kIfVfH5E8xRDAU1lm8sy4SIs7RSXF190yUuw8LocUYkzyDWVQmFy0qiuPGmIbqaVpHEy8Y0wajQechJNxy6j8zB5WUcToJVhlsmdcd1caeuHoeul6YgfuLn7tlEKIo0nR8jYRuh14pk0VTkx1RRYQaGZwhN5NNBtiP7AsAFCscto83R1BMQASAFoECjrbGMBN81EEnU0ra2dBuAgH6qTgJm2QwPC5Ou+gUJlwDpygFYw6RxsxkCIKvRbOD7JtB/w9m8fO457z/rxH8d3DDCKXeKG0kw1WyBSs5F7SNMYwhSepTXliY/7ThMFsY3QQ0LsYjdnbhhn2vkCqehO5N7YBNa20WoCbhpHCB2YIs5cZYkDYiqB/WGUp3DMD8sMiIX5LZhWtPW3QfgnDNxcfIZz21MLDoQRqWUSuOk2QmirqTgkdJ5mmlAzGk/o9cRpGJ/QIJDPmSd3wVwHpJJZCCaMlWWcgVGMjOx1tn8BRtHBtRqjEmMq6zgToUhT8QkNEtymDg363wKRw2rSQ0z5yWZ6PBFnBLqMC+Eoo62mw+rCnOuhZ0+Zi//E5zhT+lsnPOY5DxqEYZlpYxuxy8cjYQUFIg7Br+9GO9nqCCOYit2+JsIo80SJhB4Sghgzv3XjExJVw955K4Pc48UBdj2QNF1VLhA5GiWh2cijjmZDtF5PCsWnsS4yUBPajTzqaGrKsbS6D37YO6eeiz7zR34E3zbAKHaJuwqaQrfcSBWHhFEn7sEbwja+TRGVK3mlyIMyG3q0KDC7caY3IhuEkx8E5OekPGYILzGVwN5u3TSMT1XMk6e0rwNSpzW4h/BPfE499xQe3dP2HB7TP/E59Lb5mmoqDsc6UsloNsJooNlIhwMgdGkqPoF4JUVnH8VApOqExzqInxj60S6MdVm9bv5BcfZ6y966Op4aXrg/d83YGBRIlgbuqUyXufKE5zbQGapiKNrEPGUy9Ah/g5vCs7QGItuAeAhlZyLeiN1D+Ac/h156jv+EQemH4abZKBrw5GgmUredj4AoE8u4YZlpYxt5/RvVcJvI00w844ZlphGjqditNGgIFIr5gOuWEZ7f6B87iFYyOBF6la+mt7GDU816PGiKUFRxSB61HUSYHWjgNLnODRRilJVmg5l2tFnCzECzAT+LH/qIR6Sem3/q934fuINUtxR0b0GDAL7Zt3E/VWarOBiiG70HDatoHmBPby0lBubBHG2NHTwsSjws877LHU98omNklB/EUZ7CsYCbirNEbKOnSVPNsXjyFBEFsY3QI+YDbsjVQPPuRQyj9GKSG+cwcLo8VzzhmSIF4hOhaqaqXMSAj3vKROj1xWGqchTycLymQOrGJzRwgBxVJ55Pj+vkPkcRKKQDZMKgEkkJUTXFpWkuseQ1l78QZ5xEoHLIVIGOFIcGOXM43bzAGD/lANLU8gilRWpWH3oo5sET5GZzoxny8dit4h40VQa5x1rcY/gnPodefqbm4nP8Jz5HwgiMPXHAzfsnNA1HqEvPR0CUiG3g8w+JgfDY8XtwjkoMhrHbTCSqKBUj5gKumxThMZC6/Dmizk8RhB4xv3UrZQR1wcCDhnGQp9pOIIzwlKPSoGElBsNmPZ7K2yiq+EbuMfGMmyJcGDB9qjV+xHu/V3j23PvGZ32nu2fE2wa6eTCD0MtDJAqgmy4EzDeuylMNHdgRRuUBkTdRkDRElXM3dvCw6MqwzPluHOG5SL0hqZRtJzM+dx5u01Rm2ynkGNYhXqEUi/MoCuY9eIiU7GvT1AO60nWq6jn+A59d8xH/nOfKc+glTQB0k6rADEKPF+ZhfKJjTRTJsAcuF8VSF606d2OnGjqKtuRNHfcUe2UcSRXAODzmMUU3WOjIUpXw2EVUisjG+kQJHejKWgDTpctoNwbhSBR1pYo8HOWGmjruKfbKOJJuRmAcHvPYkwboCQhQF2sjZdDb/GzELh1rokQs4LooVMUg6HZcx8KCnSLMu4fwj3+g5spz6FXPOZQetydP8MUOIKmJuVbeTLguGgDiIDwS8x6ypqfp0jE/yEM07ykTuI4HTKRufEKDAHfOwjDPlWCpBQyuG0d4bqP7upRuogzIWh4w7L0+tB0N+NfI44Zlpo1F0AoiaCIOgByAnWGEpxzVhBuWmUaMpoiVgXjsIAUzqCwOJAx8zAd+QOq56OOf8Yxy58i9agrdW9AgDONMOx+f6PnG1XZij5jfunTuOJcjYM5ThmXOd+MIzzWzYM4TNxNl7LvtxiaOQdcBNI5mU7ORhqLj9ORBmQVSB1KH4cw59HBrps6Jf0AqoCldpMB53FPI4CbjdHlGsTiJn/18iIeZME7DoEGkYdBB8rByIVkZxPobYJC6fH5PHITHPA8ErgsUhTREuUMXqHMozVVj/5T9IBa65SE8xV4aQ4ipCOuIsAEPHwwRbdI0XaKEjsvZXk8dcbJzzU0wATfNWgKdKJ8yP5KQoXQbyjHXif/EPnrKAUdSVOMiKeONfMMDcxFiDRuuW0Z4fgPdSEE3D9wTmgbzG7HbTCRABTTvAWt3JyOM/D/hxLhRCpbnFI8ProVeeq5iATfKfU+JxSc0KHNpHEmzaM4TdWU69YAudpEosa07DBJp0MjL/EbsNhMJKrcnTbgnHCrz5akW1TmTqhr7pxQJjwGgCV0QymqgyaRuckUqXXgE4TxwT2UaCEo4PwZA1w/ysJrfaN5TG6kbn5CokrWeSOUkYhvsGjbcVJylYxtoLR40rDIQMU/oMbENv96P/8f/OI3c+Kuf8hRw76zuHmEY53Kk7USI+eZGnYjzeM4P6foeEEkdpGV1cQS6jtxp15HGrXSUN0fJnNmdp9Hq0zyaUZ87/4BmK10ZIpXytYhzpYs13WP3gHieLQeawmXsyd8gu+ctf/m1Dvcc/vEPVVwwv5HCiTIf8NKtswG0SB0GZaYMkSoM4wyYz12Qs+qEx5dvvRTMT6njCd1qbRtuMp/TpEjyRJqD4yoWp2BfgkzVoLK1xxw3MeennPNIXJVibdOHMTYGRZKFG1G25Mntod0kuKc8lTVoMpOiKIbrefw4zpXp1ENPeC6SbqPV3PZUpsvcRuy2834QhmjOU7QlFAfxmNxjCKRnP45B1w0TzDwVj88F14//JMogPqGg6+JxVtVzaZyi4XF78qSVoLmsJub8U5lGgwCXLwyrue0JTYP58oTnfCd0wTj9k0i9PFfG8QmPPWEOjLMqz6UOkpW5+ITHkTqPXJcH7qlMA0Gex3OFdp7X51WhMByQ7wdP6gJlenagWDsfAbU9zKBXH6jSswN1wcCDhnHgHz/xIz489D33HvOEJ6A7N+gmYgcP8ygQ7xF4zg+b21rS5dk03sBDMF/pAm6I8idNnklj3M3RNmca5xk4Lg8B5HVPeB2xXyRwHPsB10U+TxSVrgfMeUTnwuOEaAb4ShcpnAWP2xxlVOxgDo5TP0cbbxn7CVQpxaIuxdzclj9uiJMjzAcRqSNj/jnFM6Ebx3k2zUVZni2gqTjYpNVHsQtOg0aGYVCAO6X6s+YMpJtMFCfhHw7STHiEHq8JN2H/7OfzOMXiZBWD4/QcJ8C814V/wnzqBLZYJPZLuAzCU0i4kfJnorZMoYHr4nGYqcbbU+yVcXnKwUTI2sylfxKph57wXGRwPCmYH1Ogf1xQlx6Zse9Iz0c9jtDnop/TU+Y2UiYwFztkLgc63uap6HAXayPJQcwFXLeMUg89lSjs+kEeVvPbU5kGghLOjzDsB3lYzedHYj7gup/yMR+TBm74JY997HbvL4AZFIy7kNgNjw4kSBIw9jRzrus3MpncBbOhU2viuHRL3Ndoc6aZ8tCMPWh97gnnif0iSWPQ90+1J4+Qv2jQJs4TBcCXH0A3RwNtjnaMZlI8PKYHNu4B+WIXqGHuFCvjoqs3q1kVntKoPIQnqAn9rZZ/9vnCcxqneOz7J98P4vAEPipnJCzIMIyTcwmf/3g1iitxj/4ft9sIY7/rCP307CfD8zafxiHuB/6p9EMnD8s81rhuSJzY8gaKrvZgnSPlyI8gCL2jeKQdwyVu8TKVeugJCRwwR4zFYe64p9IPo9z3aP2eyuMf4Tj1UySPfcd3a2+RlHEEj7Mmx30Xj9MMmEsdJCtz8Wnr1PPlsXqqSMocpDw5SM+DsB+EYTW3PZXpMlee8JynHF988lBz26AchweZbj7jEz4hDdzw8x71qLAnCaQNyEYMgE2A68btCSC582zJNvanOJiJjHSwpn8IYzgX+x60htQvU3E+dmPfgzd/sG58SE/bA6/3uEGeSbrwiPJucf9Pnt2EZQbUiSGsxV6Zr157eAJ9T+ymsXvKmUdeOLcBPYlR3DAMwwCAOzy6129Q8bw5ylsHpNv6aNPtlHi4ed0jmB9t1OM4dwJBBcaUL/XiYwny9XK/6Os6eOxGoF9CueOeSj+MQB+HYi8/lkCnRgqgudBpxr5T8hTw+jy1LsbLVBnEJxR0XTzOqjyXOvkJjz3tXOxQ60q9/Lg9eajcebaaS/8kUg894TmPKr9/BHOf8ymfknpu/jM+93PLzqXe+IQOmANj/9Tf9OWH1M2R1C1jP5FHUBcewBj0WU80hT7WxIcyjr1ezmgpcajN/fQMtV1dHvt/is7H82jTgn6A1eQHUuPZeui9YVwM5ZUyDEOCXcsuk3CPSzsO9BqBXUjZCLvn+E8E+uCuxfVHGpizdJOW0rnnFA3/hB6lS/EwSnPBGbsOoh7oe1g9mOc1Djcow6LDnnoc+2UYe/kxB3wXj7d4mYLjNJuDaW1gHB7z2OMG8Z8EGrguHm+DvTnCMM+lDpKVQXxCgwC3ti/6rM8Mz557n/xpnxbv4eGR2ah54KYM9ANuTPrKQ5qO/QDrKRq46fQPbNzj+jCOtFvMQ8RLnX4szscHqMlA/0atuWAuZ6X1StC7+GCu5/UyDOMcnPJ6tOGvS+eoS3M5KxECdmS5h3dpYRxn3GP8J2vazbdDEsuJ/ADHQ3/zOnobdw/c5Ge/J83XeqRJCeM4d+IT9LiZMoy6Ei2DkLkEHNDnifE4lQL5KQcC0lypFx+ZsUe3Nk8ZxCcUdBB+x6O/8AvCs+fev/yET3C7QrB52DaMHrgxBBq8gfX/pLFIjzeh09pRbOs7th46FxdMWfmpOV9lo4O9LMZd5Vou2neO87ww1/R2IPcdbkfWbLzTGPZzzFPpPPSm2j3Gf8LcxnADDuMuWoauE//J/dgr/W2+DGMvPIK89djP4GEc5Mcca3VlWHThCQi7awQDrGvHYSaPUydJHvvoR8ex494//8iPzLfp3ibWgzanCm0GxsNDNXaP8DSdA2LVZ+JyVnInsNN9ZuwF0HPea6XhsJfghJz/ZF/Ky71dLdF60CbTgXagEXJTDeZgvPTdc/zHT4YZz3CDnk0ROreD8HrG+Us/wGn8YwqgnB6Bx3eKrcw//mu+JnYc9z7sgz/4LHew0xe94zdq26dMYCfNMIyNfDc1JNz503XaE3DO073dKdEa/CYVblyrTWvog3jWpmc27tBo/TyM19oc9zAaKt83PulJcezobqRPt424wxuWW3fod/i1NAzDuHjApuA2cMsOR8dpDv7cp3jbVeR1uA7Y/roBXmEYbXNp4xtIczBObrr9Y5oOM5sE5Hr6M56Rem76Q8NG+hZvfm7todmG9e5ir71xm9luVcbd4ha/7rf20E53YOc8hffDDXjiWd/93al3c3PfRdyU/RKOameHWtSKZpwG6tyfu50IqrS1u9tOBlX8nM04DdS5X9XODLWkFe3sUIta0Voo1Z6m4d7994cW/ru+rQEe8CZv/MaflPr67BfD1S78FnMLXhN7WwXWngY7qadh3fc35/wm6KK4+hNhr+TlcaWvya19K8kP7NnPeU7q+W+k/X1taycDFl3RjDmoc7mq7WRPinops20RVGpdO+8PtaL5ZpwG6tzPtfP/UKuSt2VQyWfa2aAWs7IZeqjzuKedCKr0nnYxUIvjWuG++ESJjmxGhDo3p2wJKnTu5qHmJa2CkuB27A9VUdcM4y5DfSbk7fgfqmppDZToWhuCEpyyGfR5ObItgkp9ZFvMZfyO9MVTvwqrmhIqxYq2GKqErEl/dL5a3TZjHup8Wru+ZsxDnc/Sxj+Uy7fRD+Xpt+VQRVa0KahEe5vRhzpns+2EUOW1DfCAN3njv1p+R/riqVZ/CVzgkjy6ZV3oQVwtZzyf9lIa18BZf8fSfld4HbpzebFn/uIWZu/R41hzbp/93OemXv7VjqPxd/cVbQdUuhVtIVT6tsl+KCffDPq8KFv+L3rp8EmaMYA6aUc0owt1yk7WyMnJdtehzgnfZD+Us21LoQqsaNNQyWaa0UKdp5lWeMCbvPH/77zfSOP1XBT6pV3wwVw0Jzhvt/qlsfedcc3c0m/fTnZY9u3lHPLzdvFn+KwLvJvvv3XfSPv79962GKoE3cY/lKvf7gLUce9tCSq0qh0OVfRUzTCuGeo9fap2IFS5lS1DBfe0uwJ17HST/VBOui2HKqJpu6ASatt1g//6O21bDFWCbvwPpabbXYI6/tkGoMJ72lmhFqRphmFcH9RnWdPOCLWcPS1DBfe0uwJ17HTjfyh125ZDFdG2XVAJNe28qL+Rpg6hbXM/VCa63Sao45ts+Xd060bLd7ezQC1kRTMMw9BCXUtWtDNALWNJcw9Uo8WT7bZAHVvb5n+obG2bgkq0qg2hTCuajAf8tb/K/a0d8iR3m4Xn6daccnvvXA7Hvxb2al8vp/ntxrv5O5SXyS16LZYeir1Hx8jO0cWdyYMW9Ozn/nLq+f/Y8K+e+T82PIyDbu9Xu2uw7Y6Mfefp1pxle7sYNbdorzF/KLfoJBzOFZ+rQ5Zu7x0a2Xm5tLMHN9In+uvv9uDv6DOtgpLMtLNBLUbTbgvlmI75gRX0bQoq0bmbYdRQ75NLaBNQaWTtuJ9S5bYAj2m2nQlqKdrWQImk7TZDHW/b2h9K1bZTsHAjTR3CZEO/S0VL1O1kUMVXtGuhrHn5j3s/wLeGm7odzTCMeajP1BW2cm3LV7ylP7nQVQHXvbKdAKrsdHMPW6MFE+3aoY6pbbofKkPbaoiNNGWTNAJKJmkXAbUwSbtmynHM/zi3e1j6ed+aYRjGXYC6/u1s4bocuvM/OVlo10x9LNJ2AVDLkrQGSiRttxXqWNsWPwsFt5FOwW33k4ZL2kmgCq9ol0pc39SPe337zWVOzcnnm2EYhnF5UNdrRYP3CPoektrETyiQ26VSr3NVOwFU2enmHnyjg8p2/ZS/R/rswBOraddMPAbRT75IOQc8fE0zDMMwjKOh7j+Dtt3bYkv3PcFPMId2zcDjkLYLgFrWqDVQolG7LHb+jjR1gLPt0onrFP34i4CouYzwFPSaYVwM1BvU2u1ohnEhUG9Pom33UfoeS7TBT04c2iVTr3VvOxFUaXUjJyfbfsBGmiowatdIXLvoB30AnQseeq8ZxmFQb7hTN+P2Qr3e52iGcRDU2w207V4fG9gDDH6CObRrBR6DtJ0RajmjRkIJRw1Tfkf64onrFP3AN3/TXJbtkEfNMFioN8wpmmHcBaj3/imaYTBQbxfQtr0Fve8ATfCTk148cK172omgSs+0+JDZ+asde4grGv7kN6BTbwcxasYdhXozHNUMw7h9UJ/1I5pxZ6HeDlXb9jvSzXc2Xi3wGCTtzFRLWLSRjgcn+tneGM7im5vqN+OWQ73os80wDOMaoK5fs8249VAvO2jbfkq/8fbtGqmPYdSOJfxqh+hne4HI5rLU6+aacaVQL+aKZhiGYcxDXVdXNeMqoV5K0LY9W2zUni61wU9IFtqlA9c623juc+eK9tTNuAVQL6y0GYZhGHcL6l4gacatgHppQfP7x9jctvpWbbwp4PrxMZzxd6QNOfULONsMwzAM42io+89sM64G6uUDrdl4123wkxNdGLaRPinwjaBphnEboN7bwuYusneyUedC3AzjNkC9t0fNuEqolxK0cmmE22v6J5tOgG2kh8AXZG8zjJVQ77GqlSvPBTR6iaJ2V6HOhbi5h0to9OKIZhiroN5fs824SKiXCrRyCXLbaqoNfnIiAXdwIw1PkKQZxmqo95lr7sOta3Qa1Azj3FDvS7K5B02jk7hmGCuh3mO9ZlwF1EsHWr7UMD+QK9xIp6OcboahhXofuQZv6qpGpzMMQwH1GQrNPcw0MplhaKHeR5pmXBTUS+Qb4II20tRKqWYYM1DvpdSomypqtM0wjFsE9Rknrweg0SbQDEML9T7imnEJLNxIUy+yphnGBvX+cI26kYkbnTI0wzCMGajrCWruYbaRCQ0DQr1HNM1YwWAjTZ14rhkGB/V+cY26eYRGyw3DMO4M1DWQvF6mRhtcMwwO6v1CNaOH20hTJ21rhlFBXcCHzfuIZhiGYayBusaG5h40zTAa/Ptipt0NrvA/NjTmId7o1IW01wzDMIzbC3Xd7zXqvmIYAeq9QbXrxjbStwLijUld8Nw/TTMMwzCMWaj7Cnn/cY0UGwb1vqjb5WIb6YuAeNNQFyG2ESkMwzAM45Kg7lXkPY1otNk1425AvfaSdjy2kT4M6gV1jbpAuH+aZhiGYRhGhLpPhuYe6kYKjbsJ9V6g2jy2ke5CnGzqQ0s22m4YhmEYxoFQ917yPk000mzcfqjXvdcKd3gjTZyY5kNFyAzDOBjqg2ctNsMwDoX62DV7gzBJNOMucgs20sSbmXrTN42wGsatgHpzX1MzeKjzdU3NMG4J1Nub3GtUjTQa18yFb6SJN1zzxiRkhnFVUG/iPc0wLhXq/bqnGcaVQb2N630NKTIulRNupKs3Rf3GIVtrM4zzQr0p97a7AXXk1o5rdwPqyFc0wzgj1FuS3COBRpqMU7BoI129eNSL7P5BzTDOTv2mlLTrhDqSUzfjtFCvwanb9UIdTa8Zxpmh3pb1PowUGXthNtLVia5fjKZVFsM4lPoNN9vOD7WqI5phnAPqvbi6XQbUymaaYRwI9ZYj93SpNWKDwm2k0wlCJzBO5WYYy6nfZJp2uVCr7TXDMPZBfa5G7XKhVitthrGY5m3mHmBrBa7dPe67w8duHAL8QPXadUCtvNcMw7h8qM9ur10H1Mq5ZhgLoN5a9WZ7ayF4O7nwv7XDOA/bm36mXQbUymaaYRgGdW3QtsuCWqGkGcYk4S3kHrjWvNd8uw5sI32noN6oVLs8qFX2mmEYxiVBXad67TKhVko1w1BCvY2uZKNtG+mrhHpDSdrpoVYx0wzDMO4S1HVwpp0HaiWSZhgM1NsFbrTrRhqOwTbSFwn1BoDt/FCropphGIZxPqjrMtUuA2pldTMMAdRb56CNtm2kD4d6sUbttFArGDXDMAzj9kBd50ftPFArGTXDqKDeJnCjDRspLthGehfUya3beaFWVDfDMAzD0ELdT+p2GVArg80wOgzeMraRRlBnq9dOD7WKXjMMwzCMc0Hdl0bt9FCrGDXDiNyhjTT1QajbeaFWVDfDMAzDuM1Q9z7YLgNqZbAZd4Ur30hTb16unR5qFb1mGIZhGEYf6v7Za+eBWgnXjGvmwjfS1BsOtvNCrQg2wzAMwzDOC3V/hu38UKuCzbhkzrSRpt4oVDst1Ap6zTAMwzCM64a6v4/aaaFWwDXj1By0kaZeXNjOA7US2AzDMAzDMEZQewjYzge1mq0ZR7BjI029SFs7D9RKYDMMwzAMwzgaag+ytfNBrcY3Yw/VRpo6wVw7HVR1qhmGceFQH9yLa+6h2yjPBTXDMC4a6mPLtdNAVaaaQeE20pdxkuAq6mYYxgFQH7YlzT1wjTZcWBtBeS6oUec9N9qypBmGsRzqo7a100OtYmt3l8P/Y0PqdFPNMIwJqA9T09wD1WjxgmZcLtTrtahR77HQaDlqhmGooT5KdTsdVHWq3T52b6Sp0wSbYRgDqA+OqJGTRDOMc0K9J6sm3XDXzTCMLtTHZmvngVrJ1q6T7kaaOsy6GcathnrTq5t76DXaJGiGcZug3uODRn2emkZbxc0wbinU271up4VaAdUui7CRppbpm2FcNdSbWtvISW0zDON8UJ9JRSOm1M0wrhTq7by180GtZmun577zlDWMRP0ZUDf3wDXaoGyGYdxtqOuCslHXJ9Rom6gZxpmg3o51Oz3UKuq2lsP/Y0PjjkO9h2ELUAFpMwzDuHaoa5ukgS7XDOOMUG/JrZ0PajW+zWEbaWMO6j2ImnvwjQ5WzTAMw9BDXU+rpvnm2zBOCPUWhO30UKugGsY20gYN9d6BLUAFtmYYhmFcFtS1emugSzXDODHU23Br5wWvwDbSd4363dg092DfJBuGYdwxqGs8aPbNtnFBUG872E6JbaRvG9Q7CjZyEjbDMAzD6EHdO7YGulQzjBNAvfW2thrbSF8j1DtjawEqsDXDMAzDOArqvrM10OWaYRwM9bbzbRbbSF8K1KuKmnvYGi0AzTAMwzAuDep+VTX79RHjTFBvs7pR2Eb6VFCvCGwBKrA1wzAMw7grUPfBrYEu1wzjAKi3l22k9wI/uGRzD6JvkX0zDMMwDKMPdf+smvSbbd8MYwe2kR5BfehgC1CBrRmGYRiGcR6o+/LWElRoa4Yx4G5upKkPS9Pcg32TbBiGYRi3FOp+XjX7ZtsYcLs30tQb3bcMFdyaYRiGYRiGh9onbC1BhXwzbjXXvZGm3rC5kZNVMwzDMAzD2AO1vwBt9K22cdVcz0aaffNRAd8MwzAMwzAuBWavwkwb18FlbaSpN1No5GRqhmEYhmEY1wi1r3Ft9HvZxsVwvo00+8ZgA4ZhGIZhGHcEaj/kG+hW08bpOW4jTb3IuZGTqRmGYRiGYRg01N7JNfs97LOwZiPdfdG6QcMwDMMwDGMJzJ6LmTb2o99Id1+MbtAwDMMwDMM4KczejJk2dNAbaerkbo2c3JphGIZhGIZx2VB7ONfs10PU3MefLCrgm2EYhmEYhnE7YfZ+zPRd5z76zPhmGIZhGIZhGNQ+0TX7a/oW/ceGhmEYhmEYxh2ks4PuhG4LtpE2DMMwDMMwFkLtoFMjpnK7QmwjbRiGYRiGYZyIzg66E7pUbCNtGIZhGIZhnBFqB50aMZXbBWAbacMwDMMwDONC6eygO6FTce9D3u89z1DWMAzDLj1ruZeeDcO4rbzRX/rLqWfwdK6Fiy6Tj/mqx6WefSNtGLcE+Mfxa2nGWqhzfMnNMAzjCKjrjW+gW03vwTbShnHRUJ96qhnGtUG9j7lmGIaxF+ra4trOvwvbNtKGcXKoTyrXDMOgPxtcMwzD0NK5lnRCHttIG8ZyqE8dbIZhHAf1mduaYRiGFNk1xDbShiGG+lBRzTCMy4T6vHLNMAyjpr0+2EbaMALwBso1wzDuDtQ1oG6GYdx1bCNt3AGoG2DdDMMwtFDXkroZhnGbsY20cUugbmBbMwzDOBfUNWlrhmFcO7aRNi4c6uZDNcMwjGuDupbVzTCMS8Y20saFQN1AfDMMw7jLUNfFrRmGcW5sI20cDHXxp5phGIahg7qWUs0wjKOwjbSxCOri7ZthGIZxXqhrs2+GYezFNtKGAupCvDXDMAzjuqCu5VszDEOCbaQNAuqi6pthGIZxN7B7gGFIsI30ncculoZhGIYEu18YRo1tpO8E1MVva4ZhGIYxC3Vfgc0wbje2kb512IXMMAzDuBTsnmTcbmwjfXVQFyXYDMMwDOOSoe5dsBnG9WAb6YvGLjCGYRjGXcPufcb1YBvps0JdLGAzDMMwDIO+R27NMM6HbaRPin34DcMwDGMt9b3V7q/G6bCN9CFQH2rfDMMwDMM4HrsHG6fBNtLLsA+rYRiGYVwu8D5t92pjDbaRVlN/ELdmGIZhGMb1QN3LfTMMObaRHmIfMMMwDMO4O9h935BjG+lM/cHZmmEYhmEYdxdqb+CbYdzpjbR9IAzDMAzDmMX2EMad2kjDN7y96Q3DMAzDWEW9x7B9xl3hFm6kqTezb4ZhGIZhGKfC9iJ3gVuykbY3qWEYhmEYlw7cr9ie5TZwZRvp+g24NcMwDMMwjGuD2tP4ZlwLF76RtjeWYRiGYRh3Ddv/XAsXspGu3zBbMwzDMAzDuOvYHulSOdNG2t4MhmEYhmEY89he6hI4wUa6fqHtxTYMwzAMw1gLtd/yzTiSAzbS9gIahmEYhmFcBrYvO5IdG+n6hdmaYRiGYRiGcZlQezffjBkUG2k74YZhGIZhGLcT2+fNwGyk65NpJ9QwDMMwDOPuYHtBCWAjbSfKMAzDMAzD4LC9Yo3bSNsJMQzDMAzDMDTATfXd3Ufu+I8NDcMwDMMwDMNTb6zvxubaNtKGYRiGYRjGAdz+jbVtpA3DMAzDMIwTUG+sr39zbRtpwzAMwzAM40xc96baNtKGYRiGYRjGBQA31dexubaNtGEYhmEYhnGhXPbG2jbShmEYhmEYxpVQb6zPu7m2jbRhGIZhGIZxxZxvY20bacMwDMMwDOMWUW+sj9tc20baMAzDMAzDuOUcs7G2jbRhGIZhGIZxx6g31nOba9tIG4ZhGIZhGMbExto20oZhGIZhGIbRMN5U20baMIyGp/zk56TeHA96oy9NPcMwDMO4DdCbattIG4aB+Maf+IKbl9//CuH5RS999TQr494DXv3mQX/xMa7zCvHZMAzDMG4xtpE2DCPzlJ/83NSLPP1nPjX1ZDzwz2O/fTNtGIZh3GZsI20YRiB+E/2ANCpIvpnO30TX2DfThmEYxi3GNtKGYdw8+Sc/L/VoRt9M199E1zzoLz469QzDMAzj9mAbacO4w9x/cy9843z//eNLgde9+GUPTKPIvfseJPzG+b6kuxeHhmEYhnELsI20YdxhnvwTn596Mp7205+eepEH/gWd/0F/8ctTzzAMwzCuH9tIG4ah4pk/+0mpN8crPfihqWcYhmEY141tpA3jDvPQv/IRqSfjDV/zJ28e8r+WjfQLfuWTU0/Gi3/nKaEZhmEYxm3ANtKGcYe5797Lbh72f/3TNOrzwFf8vZs3/XP496Ff/qJfvnn+L3xAGvV58e8+7eYlv/fMNDIMwzCM68c20oZhDDfTf+Y1furmIf/bJ6ZRywt+5d+kHs1Lfu9bbl7iNtKGYRiGcZuwjbRxK/mGb35G6p2Ob/8P35d6p+GxX/ek1FvDO/2fH5V6mNd8lV+7ebM/3/+PBF/+ol+5+ZNnf1gaYV78O9/o2jenkWHcTU59TVp9fTAMg8Y20sat4zu/9wdvfud3f+/mKU//tjRzLH/4R39886ivfNzNs5/zyzc/9GP/Oc0ey9c/5ek3L3zRi0LdVTzgvpc030y/wav/7M1b/3/x39TBcf/LX3Dzgl/+12kUecnvf/vNS37vNK+DYVwi2+fUX5P8tekUPO3bvjPXffnL70+zhmEcgW2kjVuF/9bnf/ziL4X+b/7Wb9887hu+KfSP5OueVL5t/Ymf/tmbb/uu702jY/iaJz7l5vd+/w/S6Obmyx77dam3hnf8Pz86PD/4Qb908+Z/4VGhL+XlL/61mz95TvS/+Lef6Jp9K2bcbeA3w/7adPQ301/3pKfe/Oqv/UYauevDV629PhiGgXnAX/u//8q+v8vKMC6EZ33PD6AbiOfFL37JzXOe+ys3//v/8pfTzDr8N9Ff+XXfkEaF3/+DP7x56UteevM/veGfTjPr8Jv2P/7j56dRxH/f9J/+y0/euM9ynNiJ/w8Q/7c3+NabP//aP5JmlLz8heH3oV/+wmenCcO4e7zghS+8eczXfH0aFV7wgheGa8Qb/bk/m2bW8c3P/I7wzXeNvz7833/lf7+57z777uzaee0HPzj1jHPy4z/xU6ln30gbt4Rv+pZvv/mFZz8njTC/7W4sT/ymb0mjdcBvomv+60//t5tvX/zN9BOe/LSweef40sXfTBuGMc9XPf4bU6/FX6v8NWslT3rqM29+/Teel0YtX/7VT0g9wzBWcu9D3u+R9gtUxlXj/yM///vJI17rNV/j5hHv/PZpNM8fP/9Pbr72ibK/C/n/+j/+15s3e5O/mkbzfNUTvjF8kyXhg9/3PW7u3ZP9r7h/48/9UeoZxpn5Mdn7+1y8weu9bur1eeELX3Tz2MfLfqXpL/y5P3vzNm/1N9Nonic/7Vtvnvfbv5NGfT7gvR5+84qv8AppZFwbb/SX1v/bVUPPY7768alnG2njyvmWb/+um1/51V9PozGv+zoPvnnY279tGul52ctedvNo5Tc7f/HP/883b/2Wb5FGer7hm7/l5nd+9/fTSIb7XKden0d99g+lnmGcmde+7F8FEn+mlP8BsP8VsLd7m7+TRnr8N9u/8bzfSiMZ0mMxLg/bSF8GcCNtv9phXC3PfNZ3qzbRnt/67d+5+eqvf3Ia6fC/86jdRHt+4Zeee/MDP/If00iH/9ex2k20x/5rfcM4LS968Yun/hYdfw3z17IZ/N/eo91Ee/w6X/rSl6aRYRh7sI20cZX43z9+7q/8ahrp+JM/eYH69xNf9KIXdX/nccRP/befu/nu7//hNJLxjU995s1LX/ayNNJj/7W+YZyOr3xc+x8eS/HXMu1/U/G0b/1O9Lf3aPly4j+ENAxDj22kjavjqc981s2zn/sraTSH/xZH+h/fvOSlL735ygX/c4P//j9+8eZ7flD2N2H4b4x+63d+N43m8Xnuv9++mTaMo/B/2J35JrrGX9P8tU2C/yswf/XX8d9QNINf98tf/vI0MgxjBttIG1eF/yvufu03fjON9uFvgN/8jO9II5rn/8kLyL/Capaf/blfuPn+H/6xNKLx30SvxP42D8M4Br8JXfm3Yfhrm7/G9fD/Xcjzn/8nabSfL/uq8ruehmHosY20cTX4DSb3V9zN8uu/+bzuRvNrJn+fusdP/+zPs/+HM7+WFd9E16z4xswwDMwRm1B/jeP+MP2Yr32i+r8LkWDXB8OYxzbSxlXwXd/3g4dsMD3+Vx++6Rn4d6b/6I+ff+jNxf8fzur/nbj/e2CP/DUMu1kaxhpe8pKXHPp58te676r+sO2/ifZ1j8KuD4Yxh22kjYvHfzvz878Q/7ffR/Ebv/lb6D8mPMX/Wtz/78Sf9d3fH/r+fyP82wf9QQFi/xrXMPbjvxk+mp93f9j2f7j2+L9H/ohvomtsM20YemwjbVw0/+H7fuiwb6Jr/F9v538/8ZQ3E/9X4/l6L3zRi9LMsfjf6bSbpWHMc8rPj//Dta8n/Z8xrcCuD4ahwzbSxkXzZn99//8VUMNb/+03v3n3h71DGh3P67/e65z8f47w/o98t9QzDEPLe77bQ1PveB74qq968uvD+7z7w1LPMAwJtpE2LppXeeVXPsmN5NVf7UG5zmu+xqvfvMs7PCT0j+RPv/7r3Tz07f5+6PvaD3rgq4b+kfg6r/RKr5hGhmFoebUHPfAkm83Xee0/dfPej3jn0PefW39dOhpf51Vf5VXSyDAMCbaRNq6Co29cj3zXd0q9yOs8+LVv3vUd/0EarecN/8wb3LzjP/h7aRR5r4fHm+ZRvN97vGvqGYaxB7/ZPPLfXIU/zFfXH1/vAQ847pb9Xg8/3TfthnGbuOf+BGr/twbjalj9+3sPeuADuzeQ3/+DP7x5wpOflkZrePBr/6nuJt3/R4/+97VX4r9ponjU539t6hnGLeT1HnRz84I1f+cy9Rl62ctedvPohX+PtOe1XvM1bh7xzm+fRi3+P4T2f6vQSrjrg3F5vNFf+supZ5yTx3x1+Q/37Rtp46p4n0es+2baf7sz+hbG39Qe+g/jr1+s4M/+f/7M8Jvu1d++v98j7ZtowziCBzzgATcPf+g/TKP9PPi1X6u7ifb4f3v2Kq/yymm0n/es/m2cYRg6bCNtXBWv+qqvsuTbE/+71//ovd89jfq8/uu+zs17L/i1C/972P/g771VGvXxx/jKr/RKaTTPqjyGYdD8qdd6zSXXJP9vx971Hd8ujfq877u/y5LfZfbrfjV3XTIMYx7bSBtXib+RzOI3lu/7Hjr/Ax/4qs3vNGv4n/+nN2x+D3uE/yb5vvvmP6If8J4PTz3DMI7m3d5JtgmmeN3XebD6d5T9v7ny/+HjLO91wr99xDBuM7aRNq4S/682Z74F8v8qdvZXHfzfsvGB76XfnPpvjh7y1m+ZRjo+6H3efeo/MPLn5hVf8RXSiMH+6wjDWMZr/6nXmromvcIrvMLNw97+bdNIh/+r+F7BXdO0+HU+aMcm3DCMgm2kjavm/d9T/nci+2+V/9F7PyKN5vA3vXd4yFun0Rj/TfTe33n2v4Ki+Svr/OY7bJJHzTCM5Wi+mfa/Njbzh3PIB7pr2mu8uvyvxtv+Sj3DMNZgG2njqnmlV3zFuHEUsOL3nD1/5g1eX7Qh99/4zH4TXSP9n6h80Hu/x8199+xjbRjnwn8zLb0mrfoPmd/jXWR/FZ9fl/+fvBiGsQ674xpXj/894t6N69UeVP5nK6vwvyLyjg/hf2fa/+0cS34HEXyD/CHv2/+fJfj4fffdSyPDMM6Fvyb1/vYN/0306muSz+f/liEO//fI7/lvLgzDoLFPlXEr8DcI7tc83vPdjvnrnf70G7we+S23/0ZK+rdzBMBmuWkV3F//9wGPtP+w0DAuCb+ppf6jaP87zSv/Sk0It3n3/13IK7+y/e09hnEEtpE2bg3+1zzgtzzwf/t9FP73rh/6dm+TRjc3b/inX7//O5KCzfII/80z/Nezfjz8DwsNwzg5/j+KfuS7vmMa3dy87oNfO/xO85HU30z7X0OzvwLTMNZy//3352YbaePWsf3Hfdq/bm6W13+91w3fBPl/Xfv2b/vW7UYZtkVs34Tb//bbMC6bV3+1Vwubaf+H34e9w0PS7LFs30z764T/NTTDMI7D/hfhhrGXK/4EPeoL7H8RbtxiDv5fhBvGqbH/Rfhl8OjHPi713Eb6dV7ndWwjbRiGYRiGYRhK7Fc7DMMwDMMwDGMC20gbhmEYhmEYhpqbm/8/I3C/9evmKNsAAAAASUVORK5CYII=;" parent="1" vertex="1">
          <mxGeometry x="1130" y="920" width="380" height="200" as="geometry" />
        </mxCell>
        <mxCell id="NqW5akh8zdySq_Utj7iF-46" style="edgeStyle=orthogonalEdgeStyle;rounded=0;orthogonalLoop=1;jettySize=auto;html=1;exitX=1;exitY=0.5;exitDx=0;exitDy=0;" parent="1" source="iRQ4Wu5U3kiScN2gP9Qv-68" target="NqW5akh8zdySq_Utj7iF-45" edge="1">
          <mxGeometry relative="1" as="geometry" />
        </mxCell>
      </root>
    </mxGraphModel>
  </diagram>
</mxfile>
